# Blender 5.1.1
# www.blender.org
mtllib maniglia.mtl
o maniglia
v 0.747020 0.108722 1.050701
v 0.747020 -0.001277 1.050701
v 0.746714 0.108722 1.053029
v 0.746714 -0.001277 1.053029
v 0.747020 0.108722 1.055356
v 0.747020 -0.001277 1.055356
v 0.747918 0.108722 1.057524
v 0.747918 -0.001277 1.057524
v 0.749347 0.108722 1.059386
v 0.749347 -0.001277 1.059386
v 0.751209 0.108722 1.060815
v 0.751209 -0.001277 1.060815
v 0.753378 0.108722 1.061713
v 0.753378 -0.001277 1.061713
v 0.755705 0.108722 1.062020
v 0.755705 -0.001277 1.062020
v 0.758032 0.108722 1.061713
v 0.758032 -0.001277 1.061713
v 0.760201 0.108722 1.060815
v 0.760201 -0.001277 1.060815
v 0.762063 0.108722 1.059386
v 0.762063 -0.001277 1.059386
v 0.763492 0.108722 1.057524
v 0.763492 -0.001277 1.057524
v 0.764390 0.108722 1.055356
v 0.764390 -0.001277 1.055356
v 0.764696 0.108722 1.053029
v 0.764696 -0.001277 1.053029
v 0.764390 0.108722 1.050701
v 0.764390 -0.001277 1.050701
v 0.763492 0.108722 1.048533
v 0.763492 -0.001277 1.048533
v 0.762063 0.108722 1.046671
v 0.762063 -0.001277 1.046671
v 0.760201 0.108722 1.045242
v 0.760201 -0.001277 1.045242
v 0.758032 0.108722 1.044344
v 0.758032 -0.001277 1.044344
v 0.755705 0.108722 1.044037
v 0.755705 -0.001277 1.044037
v 0.753378 0.108722 1.044344
v 0.753378 -0.001277 1.044344
v 0.751209 0.108722 1.045242
v 0.751209 -0.001277 1.045242
v 0.749347 0.108722 1.046671
v 0.749347 -0.001277 1.046671
v 0.747918 0.108722 1.048533
v 0.747918 -0.001277 1.048533
v 0.787594 -0.006277 1.111314
v 0.778779 -0.006277 1.125568
v 0.775056 -0.006277 1.106721
v 0.766194 -0.006277 1.121956
v 0.754481 -0.006277 1.116929
v 0.791949 -0.006277 1.127983
v 0.800780 -0.006277 1.114680
v 0.805449 -0.006277 1.129426
v 0.814666 -0.006277 1.116723
v 0.819077 -0.006277 1.130087
v 0.829302 -0.006277 1.117344
v 0.832688 -0.006277 1.130104
v 0.844692 -0.006277 1.116537
v 0.859514 -0.006277 1.128547
v 0.860780 -0.006277 1.114409
v 0.885560 -0.006277 1.125138
v 0.877491 -0.006277 1.111102
v 0.894768 -0.006277 1.106721
v 0.743934 -0.006277 1.110309
v 0.779979 -0.006277 1.093235
v 0.739187 -0.006277 1.106370
v 0.734835 -0.006277 1.102010
v 0.730906 -0.006277 1.097239
v 0.727425 -0.006277 1.092078
v 0.783643 -0.006277 1.079744
v 0.724412 -0.006277 1.086561
v 0.721884 -0.006277 1.080732
v 0.785935 -0.006277 1.066247
v 0.718320 -0.006277 1.068362
v 0.716779 -0.006277 1.055478
v 0.786720 -0.006277 1.052744
v 0.717250 -0.006277 1.042639
v 0.785933 -0.006277 1.039235
v 0.719679 -0.006277 1.030391
v 0.783641 -0.006277 1.025720
v 0.723975 -0.006277 1.019192
v 0.726788 -0.006277 1.014091
v 0.730023 -0.006277 1.009357
v 0.779977 -0.006277 1.012199
v 0.737690 -0.006277 1.001032
v 0.746832 -0.006277 0.994223
v 0.775056 -0.006277 0.998673
v 0.757305 -0.006277 0.988840
v 0.768973 -0.006277 0.984737
v 0.781712 -0.006277 0.981754
v 0.786577 -0.006277 0.995619
v 0.795420 -0.006277 0.979751
v 0.799258 -0.006277 0.993568
v 0.810018 -0.006277 0.978619
v 0.813039 -0.006277 0.992493
v 0.825445 -0.006277 0.978277
v 0.827866 -0.006277 0.992368
v 0.841657 -0.006277 0.978668
v 0.843696 -0.006277 0.993169
v 0.858625 -0.006277 0.979754
v 0.860496 -0.006277 0.994871
v 0.876332 -0.006277 0.981514
v 0.878243 -0.006277 0.997459
v 0.894768 -0.006277 0.983939
v 0.896921 -0.006277 1.000920
v 0.887599 -0.006277 1.093165
v 0.901735 -0.006277 1.094798
v 0.889187 -0.006277 1.013813
v 0.906954 -0.006277 1.082536
v 0.903196 -0.006277 1.015418
v 0.907832 -0.006277 1.029597
v 0.883367 -0.006277 1.026791
v 0.882324 -0.006277 1.079692
v 0.879633 -0.006277 1.039861
v 0.879118 -0.006277 1.066313
v 0.878613 -0.006277 1.046435
v 0.878357 -0.006277 1.059660
v 0.878186 -0.006277 1.053034
v 0.910676 -0.006277 1.043427
v 0.910273 -0.006277 1.069904
v 0.911531 -0.006277 1.056871
v 0.885560 -0.001277 1.125138
v 0.859514 -0.001277 1.128547
v 0.832688 -0.001277 1.130104
v 0.819077 -0.001277 1.130087
v 0.805449 -0.001277 1.129426
v 0.791949 -0.001277 1.127983
v 0.778779 -0.001277 1.125568
v 0.766194 -0.001277 1.121956
v 0.754481 -0.001277 1.116929
v 0.743934 -0.001277 1.110309
v 0.739187 -0.001277 1.106370
v 0.734835 -0.001277 1.102010
v 0.730906 -0.001277 1.097239
v 0.727425 -0.001277 1.092078
v 0.724412 -0.001277 1.086561
v 0.721884 -0.001277 1.080732
v 0.718320 -0.001277 1.068362
v 0.716779 -0.001277 1.055478
v 0.717250 -0.001277 1.042639
v 0.719679 -0.001277 1.030391
v 0.723975 -0.001277 1.019192
v 0.726788 -0.001277 1.014091
v 0.730023 -0.001277 1.009357
v 0.737690 -0.001277 1.001032
v 0.746832 -0.001277 0.994223
v 0.757305 -0.001277 0.988840
v 0.768973 -0.001277 0.984737
v 0.781712 -0.001277 0.981754
v 0.795420 -0.001277 0.979751
v 0.810018 -0.001277 0.978619
v 0.825445 -0.001277 0.978277
v 0.841657 -0.001277 0.978668
v 0.858625 -0.001277 0.979754
v 0.876332 -0.001277 0.981514
v 0.894768 -0.001277 0.983939
v 0.894768 -0.001277 1.106721
v 0.896921 -0.001277 1.000920
v 0.903196 -0.001277 1.015418
v 0.907832 -0.001277 1.029597
v 0.910676 -0.001277 1.043427
v 0.911531 -0.001277 1.056871
v 0.910273 -0.001277 1.069904
v 0.906954 -0.001277 1.082536
v 0.901735 -0.001277 1.094798
v 0.775056 -0.011277 1.106721
v 0.779979 -0.011277 1.093235
v 0.783643 -0.011277 1.079744
v 0.785935 -0.011277 1.066247
v 0.786720 -0.011277 1.052744
v 0.785933 -0.011277 1.039235
v 0.783641 -0.011277 1.025720
v 0.779977 -0.011277 1.012199
v 0.775056 -0.011277 0.998673
v 0.894768 -0.011277 1.106721
v 0.877491 -0.011277 1.111102
v 0.860780 -0.011277 1.114409
v 0.844692 -0.011277 1.116537
v 0.829302 -0.011277 1.117344
v 0.814666 -0.011277 1.116723
v 0.800780 -0.011277 1.114680
v 0.787594 -0.011277 1.111314
v 0.896921 -0.011277 1.000920
v 0.889187 -0.011277 1.013813
v 0.883367 -0.011277 1.026791
v 0.879633 -0.011277 1.039861
v 0.878613 -0.011277 1.046435
v 0.878186 -0.011277 1.053034
v 0.878357 -0.011277 1.059660
v 0.879118 -0.011277 1.066313
v 0.882324 -0.011277 1.079692
v 0.887599 -0.011277 1.093165
v 0.786577 -0.011277 0.995619
v 0.799258 -0.011277 0.993568
v 0.813039 -0.011277 0.992493
v 0.827866 -0.011277 0.992368
v 0.843696 -0.011277 0.993169
v 0.860496 -0.011277 0.994871
v 0.878243 -0.011277 0.997459
vn -0.9914 -0.0000 -0.1305
vn -0.9914 -0.0000 0.1306
vn -0.9914 -0.0000 0.1305
vn -0.9239 -0.0000 0.3827
vn -0.7933 -0.0000 0.6088
vn -0.7934 -0.0000 0.6088
vn -0.6088 -0.0000 0.7933
vn -0.3826 -0.0000 0.9239
vn -0.1305 -0.0000 0.9914
vn -0.1306 -0.0000 0.9914
vn 0.1306 -0.0000 0.9914
vn 0.1305 -0.0000 0.9914
vn 0.3827 -0.0000 0.9239
vn 0.6088 -0.0000 0.7933
vn 0.7934 -0.0000 0.6088
vn 0.7933 -0.0000 0.6088
vn 0.9239 -0.0000 0.3827
vn 0.9914 -0.0000 0.1305
vn 0.9914 -0.0000 -0.1305
vn 0.9239 -0.0000 -0.3827
vn 0.7934 -0.0000 -0.6087
vn 0.7933 -0.0000 -0.6088
vn 0.6088 -0.0000 -0.7933
vn 0.6087 -0.0000 -0.7934
vn 0.3828 -0.0000 -0.9238
vn 0.3827 -0.0000 -0.9239
vn 0.1305 -0.0000 -0.9914
vn 0.1304 -0.0000 -0.9915
vn -0.1304 -0.0000 -0.9915
vn -0.1305 -0.0000 -0.9914
vn -0.3826 -0.0000 -0.9239
vn -0.3827 -0.0000 -0.9239
vn -0.6087 -0.0000 -0.7934
vn -0.6088 -0.0000 -0.7933
vn -0.7933 -0.0000 -0.6088
vn -0.7934 -0.0000 -0.6087
vn -0.9239 -0.0000 -0.3827
vn -0.0000 1.0000 -0.0000
vn -0.0000 -1.0000 -0.0000
vn 0.1298 -0.0000 0.9915
vn 0.0579 -0.0000 0.9983
vn 0.0580 -0.0000 0.9983
vn -0.0012 -0.0000 1.0000
vn -0.0484 -0.0000 0.9988
vn -0.1063 -0.0000 0.9943
vn -0.1804 -0.0000 0.9836
vn -0.2758 -0.0000 0.9612
vn -0.3944 -0.0000 0.9189
vn -0.5316 -0.0000 0.8470
vn -0.6386 -0.0000 0.7695
vn -0.6386 -0.0000 0.7696
vn -0.7077 -0.0000 0.7065
vn -0.7719 -0.0000 0.6357
vn -0.8290 -0.0000 0.5592
vn -0.8777 -0.0000 0.4792
vn -0.8777 -0.0000 0.4793
vn -0.9174 -0.0000 0.3979
vn -0.9609 -0.0000 0.2768
vn -0.9929 -0.0000 0.1188
vn -0.9993 -0.0000 -0.0367
vn -0.9809 -0.0000 -0.1945
vn -0.9337 -0.0000 -0.3582
vn -0.9336 -0.0000 -0.3582
vn -0.8757 -0.0000 -0.4829
vn -0.8256 -0.0000 -0.5642
vn -0.7356 -0.0000 -0.6774
vn -0.5973 -0.0000 -0.8020
vn -0.4571 -0.0000 -0.8894
vn -0.3317 -0.0000 -0.9434
vn -0.2280 -0.0000 -0.9737
vn -0.1446 -0.0000 -0.9895
vn -0.0773 -0.0000 -0.9970
vn -0.0222 -0.0000 -0.9998
vn 0.0241 -0.0000 -0.9997
vn 0.0639 -0.0000 -0.9980
vn 0.0989 -0.0000 -0.9951
vn 0.8944 -0.0000 0.4472
vn 0.9177 -0.0000 -0.3972
vn 0.9505 -0.0000 -0.3108
vn 0.9795 -0.0000 -0.2014
vn 0.9980 -0.0000 -0.0635
vn 0.9954 -0.0000 0.0961
vn 0.9672 -0.0000 0.2542
vn 0.9202 -0.0000 0.3916
vn 0.8634 -0.0000 0.5045
vn 0.9921 -0.0000 -0.1258
vn -0.9394 -0.0000 -0.3429
vn -0.9650 -0.0000 -0.2621
vn -0.9859 -0.0000 -0.1674
vn -0.9983 -0.0000 -0.0581
vn -0.9983 -0.0000 0.0582
vn -0.9859 -0.0000 0.1672
vn -0.9652 -0.0000 0.2615
vn -0.9397 -0.0000 0.3419
vn 0.2458 -0.0000 0.9693
vn 0.1942 -0.0000 0.9810
vn 0.1311 -0.0000 0.9914
vn 0.0524 -0.0000 0.9986
vn -0.0424 -0.0000 0.9991
vn -0.1455 -0.0000 0.9894
vn -0.2474 -0.0000 0.9689
vn -0.3439 -0.0000 0.9390
vn 0.8575 -0.0000 0.5144
vn 0.9125 -0.0000 0.4092
vn 0.9615 -0.0000 0.2747
vn 0.9882 -0.0000 0.1533
vn 0.9979 -0.0000 0.0647
vn 0.9997 -0.0000 -0.0258
vn 0.9935 -0.0000 -0.1137
vn 0.9725 -0.0000 -0.2330
vn 0.9312 -0.0000 -0.3646
vn 0.8840 -0.0000 -0.4675
vn -0.2562 -0.0000 -0.9666
vn -0.1597 -0.0000 -0.9872
vn -0.0777 -0.0000 -0.9970
vn -0.0778 -0.0000 -0.9970
vn -0.0084 -0.0000 -1.0000
vn 0.0505 -0.0000 -0.9987
vn 0.1008 -0.0000 -0.9949
vn 0.1443 -0.0000 -0.9895
vn 0.1822 -0.0000 -0.9833
s 0
f 1//1 2//1 3//1
f 3//1 2//1 4//1
f 3//2 4//2 5//2
f 5//3 4//3 6//3
f 5//4 6//4 7//4
f 7//4 6//4 8//4
f 7//5 8//5 9//5
f 9//6 8//6 10//6
f 9//7 10//7 11//7
f 11//7 10//7 12//7
f 11//8 12//8 13//8
f 13//8 12//8 14//8
f 13//9 14//9 15//9
f 15//10 14//10 16//10
f 15//11 16//11 17//11
f 17//12 16//12 18//12
f 17//13 18//13 19//13
f 19//13 18//13 20//13
f 19//14 20//14 21//14
f 21//14 20//14 22//14
f 21//15 22//15 23//15
f 23//16 22//16 24//16
f 23//17 24//17 25//17
f 25//17 24//17 26//17
f 25//18 26//18 27//18
f 27//18 26//18 28//18
f 27//19 28//19 29//19
f 29//19 28//19 30//19
f 29//20 30//20 31//20
f 31//20 30//20 32//20
f 31//21 32//21 33//21
f 33//22 32//22 34//22
f 33//23 34//23 35//23
f 35//24 34//24 36//24
f 35//25 36//25 37//25
f 37//26 36//26 38//26
f 37//27 38//27 39//27
f 39//28 38//28 40//28
f 39//29 40//29 41//29
f 41//30 40//30 42//30
f 41//31 42//31 43//31
f 43//32 42//32 44//32
f 43//33 44//33 45//33
f 45//34 44//34 46//34
f 45//35 46//35 47//35
f 47//36 46//36 48//36
f 47//37 48//37 1//37
f 1//37 48//37 2//37
f 3//38 5//38 1//38
f 1//38 5//38 47//38
f 47//38 5//38 7//38
f 47//38 7//38 45//38
f 45//38 7//38 9//38
f 45//38 9//38 43//38
f 43//38 9//38 11//38
f 43//38 11//38 41//38
f 41//38 11//38 13//38
f 41//38 13//38 39//38
f 39//38 13//38 15//38
f 39//38 15//38 37//38
f 37//38 15//38 17//38
f 37//38 17//38 35//38
f 35//38 17//38 19//38
f 35//38 19//38 33//38
f 33//38 19//38 21//38
f 33//38 21//38 31//38
f 31//38 21//38 23//38
f 31//38 23//38 29//38
f 29//38 23//38 25//38
f 29//38 25//38 27//38
f 49//39 50//39 51//39
f 51//39 50//39 52//39
f 51//39 52//39 53//39
f 50//39 49//39 54//39
f 54//39 49//39 55//39
f 54//39 55//39 56//39
f 56//39 55//39 57//39
f 56//39 57//39 58//39
f 58//39 57//39 59//39
f 58//39 59//39 60//39
f 60//39 59//39 61//39
f 60//39 61//39 62//39
f 62//39 61//39 63//39
f 62//39 63//39 64//39
f 64//39 63//39 65//39
f 64//39 65//39 66//39
f 53//39 67//39 51//39
f 51//39 67//39 68//39
f 68//39 67//39 69//39
f 68//39 69//39 70//39
f 70//39 71//39 68//39
f 68//39 71//39 72//39
f 68//39 72//39 73//39
f 73//39 72//39 74//39
f 73//39 74//39 75//39
f 73//39 75//39 76//39
f 76//39 75//39 77//39
f 76//39 77//39 78//39
f 76//39 78//39 79//39
f 79//39 78//39 80//39
f 79//39 80//39 81//39
f 81//39 80//39 82//39
f 81//39 82//39 83//39
f 83//39 82//39 84//39
f 83//39 84//39 85//39
f 85//39 86//39 83//39
f 83//39 86//39 87//39
f 87//39 86//39 88//39
f 87//39 88//39 89//39
f 87//39 89//39 90//39
f 90//39 89//39 91//39
f 90//39 91//39 92//39
f 92//39 93//39 90//39
f 90//39 93//39 94//39
f 94//39 93//39 95//39
f 94//39 95//39 96//39
f 96//39 95//39 97//39
f 96//39 97//39 98//39
f 98//39 97//39 99//39
f 98//39 99//39 100//39
f 100//39 99//39 101//39
f 100//39 101//39 102//39
f 102//39 101//39 103//39
f 102//39 103//39 104//39
f 104//39 103//39 105//39
f 104//39 105//39 106//39
f 106//39 105//39 107//39
f 106//39 107//39 108//39
f 66//39 109//39 110//39
f 110//39 109//39 111//39
f 110//39 111//39 112//39
f 112//39 111//39 113//39
f 112//39 113//39 114//39
f 111//39 109//39 115//39
f 115//39 109//39 116//39
f 115//39 116//39 117//39
f 117//39 116//39 118//39
f 117//39 118//39 119//39
f 119//39 118//39 120//39
f 119//39 120//39 121//39
f 111//39 108//39 113//39
f 114//39 122//39 112//39
f 112//39 122//39 123//39
f 123//39 122//39 124//39
f 125//40 126//40 64//40
f 64//40 126//40 62//40
f 62//41 126//41 127//41
f 62//42 127//42 60//42
f 60//43 127//43 128//43
f 60//43 128//43 58//43
f 58//44 128//44 129//44
f 58//44 129//44 56//44
f 56//45 129//45 130//45
f 56//45 130//45 54//45
f 54//46 130//46 131//46
f 54//46 131//46 50//46
f 50//47 131//47 132//47
f 50//47 132//47 52//47
f 52//48 132//48 133//48
f 52//48 133//48 53//48
f 53//49 133//49 134//49
f 53//49 134//49 67//49
f 67//50 134//50 135//50
f 67//51 135//51 69//51
f 69//52 135//52 136//52
f 69//52 136//52 70//52
f 70//53 136//53 137//53
f 70//53 137//53 71//53
f 71//54 137//54 138//54
f 71//54 138//54 72//54
f 72//55 138//55 139//55
f 72//56 139//56 74//56
f 74//57 139//57 140//57
f 74//57 140//57 75//57
f 75//58 140//58 141//58
f 75//58 141//58 77//58
f 77//59 141//59 142//59
f 77//59 142//59 78//59
f 78//60 142//60 143//60
f 78//60 143//60 80//60
f 80//61 143//61 144//61
f 80//61 144//61 82//61
f 82//62 144//62 145//62
f 82//63 145//63 84//63
f 84//64 145//64 146//64
f 84//64 146//64 85//64
f 85//65 146//65 147//65
f 85//65 147//65 86//65
f 86//66 147//66 148//66
f 86//66 148//66 88//66
f 88//67 148//67 149//67
f 88//67 149//67 89//67
f 89//68 149//68 150//68
f 89//68 150//68 91//68
f 91//69 150//69 151//69
f 91//69 151//69 92//69
f 92//70 151//70 152//70
f 92//70 152//70 93//70
f 93//71 152//71 153//71
f 93//71 153//71 95//71
f 95//72 153//72 154//72
f 95//72 154//72 97//72
f 97//73 154//73 155//73
f 97//73 155//73 99//73
f 99//74 155//74 156//74
f 99//74 156//74 101//74
f 101//75 156//75 157//75
f 101//75 157//75 103//75
f 103//76 157//76 158//76
f 103//76 158//76 105//76
f 105//28 158//28 159//28
f 105//28 159//28 107//28
f 160//77 125//77 66//77
f 66//77 125//77 64//77
f 161//78 162//78 108//78
f 108//78 162//78 113//78
f 113//79 162//79 163//79
f 113//79 163//79 114//79
f 114//80 163//80 164//80
f 114//80 164//80 122//80
f 122//81 164//81 165//81
f 122//81 165//81 124//81
f 124//82 165//82 166//82
f 124//82 166//82 123//82
f 123//83 166//83 167//83
f 123//83 167//83 112//83
f 112//84 167//84 168//84
f 112//84 168//84 110//84
f 110//85 168//85 160//85
f 110//85 160//85 66//85
f 159//86 161//86 107//86
f 107//86 161//86 108//86
f 6//38 4//38 142//38
f 142//38 4//38 2//38
f 142//38 2//38 143//38
f 143//38 2//38 48//38
f 143//38 48//38 46//38
f 143//38 46//38 144//38
f 144//38 46//38 44//38
f 144//38 44//38 145//38
f 145//38 44//38 42//38
f 145//38 42//38 146//38
f 146//38 42//38 40//38
f 146//38 40//38 147//38
f 147//38 40//38 148//38
f 148//38 40//38 38//38
f 148//38 38//38 149//38
f 149//38 38//38 150//38
f 150//38 38//38 36//38
f 150//38 36//38 151//38
f 151//38 36//38 152//38
f 152//38 36//38 34//38
f 152//38 34//38 153//38
f 153//38 34//38 154//38
f 154//38 34//38 32//38
f 154//38 32//38 155//38
f 155//38 32//38 30//38
f 155//38 30//38 156//38
f 156//38 30//38 162//38
f 156//38 162//38 157//38
f 157//38 162//38 161//38
f 157//38 161//38 158//38
f 158//38 161//38 159//38
f 28//38 164//38 30//38
f 30//38 164//38 163//38
f 30//38 163//38 162//38
f 26//38 166//38 28//38
f 28//38 166//38 165//38
f 28//38 165//38 164//38
f 24//38 127//38 26//38
f 26//38 127//38 168//38
f 26//38 168//38 167//38
f 22//38 129//38 24//38
f 24//38 129//38 128//38
f 24//38 128//38 127//38
f 20//38 131//38 22//38
f 22//38 131//38 130//38
f 22//38 130//38 129//38
f 18//38 133//38 20//38
f 20//38 133//38 132//38
f 20//38 132//38 131//38
f 16//38 136//38 18//38
f 18//38 136//38 135//38
f 18//38 135//38 134//38
f 14//38 138//38 16//38
f 16//38 138//38 137//38
f 16//38 137//38 136//38
f 12//38 140//38 14//38
f 14//38 140//38 139//38
f 14//38 139//38 138//38
f 140//38 12//38 141//38
f 141//38 12//38 10//38
f 141//38 10//38 8//38
f 141//38 8//38 142//38
f 142//38 8//38 6//38
f 134//38 133//38 18//38
f 168//38 127//38 160//38
f 160//38 127//38 126//38
f 160//38 126//38 125//38
f 167//38 166//38 26//38
f 51//87 68//87 169//87
f 169//87 68//87 170//87
f 170//88 68//88 73//88
f 170//88 73//88 171//88
f 171//89 73//89 76//89
f 171//89 76//89 172//89
f 172//90 76//90 79//90
f 172//90 79//90 173//90
f 173//91 79//91 81//91
f 173//91 81//91 174//91
f 174//92 81//92 83//92
f 174//92 83//92 175//92
f 175//93 83//93 87//93
f 175//93 87//93 176//93
f 176//94 87//94 90//94
f 176//94 90//94 177//94
f 66//95 65//95 178//95
f 178//95 65//95 179//95
f 179//96 65//96 63//96
f 179//96 63//96 180//96
f 180//97 63//97 61//97
f 180//97 61//97 181//97
f 181//98 61//98 59//98
f 181//98 59//98 182//98
f 182//99 59//99 57//99
f 182//99 57//99 183//99
f 183//100 57//100 55//100
f 183//100 55//100 184//100
f 184//101 55//101 49//101
f 184//101 49//101 185//101
f 185//102 49//102 51//102
f 185//102 51//102 169//102
f 108//103 111//103 186//103
f 186//103 111//103 187//103
f 187//104 111//104 115//104
f 187//104 115//104 188//104
f 188//105 115//105 117//105
f 188//105 117//105 189//105
f 189//106 117//106 119//106
f 189//106 119//106 190//106
f 190//107 119//107 121//107
f 190//107 121//107 191//107
f 191//108 121//108 120//108
f 191//108 120//108 192//108
f 192//109 120//109 118//109
f 192//109 118//109 193//109
f 193//110 118//110 116//110
f 193//110 116//110 194//110
f 194//111 116//111 109//111
f 194//111 109//111 195//111
f 195//112 109//112 66//112
f 195//112 66//112 178//112
f 90//113 94//113 177//113
f 177//113 94//113 196//113
f 196//114 94//114 96//114
f 196//114 96//114 197//114
f 197//115 96//115 98//115
f 197//116 98//116 198//116
f 198//117 98//117 100//117
f 198//117 100//117 199//117
f 199//118 100//118 102//118
f 199//118 102//118 200//118
f 200//119 102//119 104//119
f 200//119 104//119 201//119
f 201//120 104//120 106//120
f 201//120 106//120 202//120
f 202//121 106//121 108//121
f 202//121 108//121 186//121
f 177//39 196//39 176//39
f 176//39 196//39 197//39
f 176//39 197//39 175//39
f 175//39 197//39 198//39
f 175//39 198//39 174//39
f 174//39 198//39 199//39
f 174//39 199//39 190//39
f 190//39 199//39 200//39
f 190//39 200//39 189//39
f 189//39 200//39 201//39
f 189//39 201//39 188//39
f 188//39 201//39 202//39
f 188//39 202//39 187//39
f 187//39 202//39 186//39
f 174//39 190//39 173//39
f 173//39 190//39 191//39
f 173//39 191//39 192//39
f 173//39 192//39 172//39
f 172//39 192//39 193//39
f 172//39 193//39 182//39
f 182//39 193//39 181//39
f 181//39 193//39 194//39
f 181//39 194//39 180//39
f 180//39 194//39 179//39
f 179//39 194//39 195//39
f 179//39 195//39 178//39
f 182//39 183//39 172//39
f 172//39 183//39 171//39
f 171//39 183//39 184//39
f 171//39 184//39 170//39
f 170//39 184//39 185//39
f 170//39 185//39 169//39
