# Blender 5.1.1
# www.blender.org
mtllib osaka_portasx.mtl
o osaka_portasx
v 0.054999 0.106662 0.318088
v 0.054999 0.110913 0.339530
v 1.004987 0.106662 0.318088
v 1.004987 0.110913 0.339530
v 0.054999 0.118536 0.368128
v 1.004987 0.118536 0.368128
v 0.054999 0.129552 0.403845
v 1.004987 0.129552 0.403845
v 0.054999 0.143921 0.446388
v 1.004987 0.143921 0.446388
v 0.054999 0.161494 0.495044
v 1.004987 0.161494 0.495044
v 0.054999 0.182015 0.548730
v 1.004987 0.182015 0.548730
v 0.054999 0.205169 0.606145
v 1.004987 0.205169 0.606145
v 0.054999 0.230614 0.665907
v 1.004987 0.230614 0.665907
v 0.054999 0.287047 0.787359
v 1.004987 0.287047 0.787359
v 0.054999 0.349056 0.905271
v 1.004987 0.349056 0.905271
v 0.054999 0.415194 1.016036
v 1.004987 0.415194 1.016036
v 0.054999 0.484748 1.118717
v 1.004987 0.484748 1.118717
v 0.054999 0.099088 0.318088
v 1.004987 0.099088 0.318088
v 0.054999 0.477554 1.122397
v 0.054999 0.407741 1.018698
v 1.004987 0.477554 1.122397
v 1.004987 0.407741 1.018698
v 0.054999 0.341479 0.907189
v 1.004987 0.341479 0.907189
v 0.054999 0.279477 0.788808
v 1.004987 0.279477 0.788808
v 0.054999 0.223156 0.667125
v 1.004987 0.223156 0.667125
v 0.054999 0.197787 0.607309
v 1.004987 0.197787 0.607309
v 0.054999 0.174706 0.549854
v 1.004987 0.174706 0.549854
v 0.054999 0.154243 0.496118
v 1.004987 0.154243 0.496118
v 0.054999 0.136700 0.447383
v 1.004987 0.136700 0.447383
v 0.054999 0.122320 0.404708
v 1.004987 0.122320 0.404708
v 0.054999 0.111245 0.368787
v 1.004987 0.111245 0.368787
v 0.054999 0.103508 0.339903
v 1.004987 0.103508 0.339903
vn -0.0000 0.9809 -0.1945
vn -0.0000 0.9663 -0.2576
vn -0.0000 0.9556 -0.2947
vn -0.0000 0.9474 -0.3200
vn -0.0000 0.9405 -0.3397
vn -0.0000 0.9341 -0.3570
vn -0.0000 0.9274 -0.3740
vn -0.0000 0.9201 -0.3917
vn -0.0000 0.9069 -0.4214
vn -0.0000 0.8851 -0.4655
vn -0.0000 0.8586 -0.5127
vn -0.0000 0.8279 -0.5608
vn -0.0000 -0.0000 -1.0000
vn -0.0000 -0.8295 0.5585
vn -0.0000 -0.8597 0.5108
vn -0.0000 -0.8859 0.4640
vn -0.0000 -0.9075 0.4200
vn -0.0000 -0.9206 0.3904
vn -0.0000 -0.9279 0.3728
vn -0.0000 -0.9345 0.3559
vn -0.0000 -0.9409 0.3387
vn -0.0000 -0.9476 0.3193
vn -0.0000 -0.9556 0.2946
vn -0.0000 -0.9660 0.2587
vn -0.0000 -0.9801 0.1986
vn -0.0000 0.4553 0.8903
vn 1.0000 -0.0000 -0.0000
vn -1.0000 -0.0000 -0.0000
s 0
f 1//1 2//1 3//1
f 3//1 2//1 4//1
f 4//2 2//2 5//2
f 4//2 5//2 6//2
f 6//3 5//3 7//3
f 6//3 7//3 8//3
f 8//4 7//4 9//4
f 8//4 9//4 10//4
f 10//5 9//5 11//5
f 10//5 11//5 12//5
f 12//6 11//6 13//6
f 12//6 13//6 14//6
f 14//7 13//7 15//7
f 14//7 15//7 16//7
f 16//8 15//8 17//8
f 16//8 17//8 18//8
f 18//9 17//9 19//9
f 18//9 19//9 20//9
f 20//10 19//10 21//10
f 20//10 21//10 22//10
f 22//11 21//11 23//11
f 22//11 23//11 24//11
f 24//12 23//12 25//12
f 24//12 25//12 26//12
f 27//13 1//13 28//13
f 28//13 1//13 3//13
f 29//14 30//14 31//14
f 31//14 30//14 32//14
f 32//15 30//15 33//15
f 32//15 33//15 34//15
f 34//16 33//16 35//16
f 34//16 35//16 36//16
f 36//17 35//17 37//17
f 36//17 37//17 38//17
f 38//18 37//18 39//18
f 38//18 39//18 40//18
f 40//19 39//19 41//19
f 40//19 41//19 42//19
f 42//20 41//20 43//20
f 42//20 43//20 44//20
f 44//21 43//21 45//21
f 44//21 45//21 46//21
f 46//22 45//22 47//22
f 46//22 47//22 48//22
f 48//23 47//23 49//23
f 48//23 49//23 50//23
f 50//24 49//24 51//24
f 50//24 51//24 52//24
f 52//25 51//25 27//25
f 52//25 27//25 28//25
f 25//26 29//26 26//26
f 26//26 29//26 31//26
f 26//27 31//27 24//27
f 24//27 31//27 32//27
f 24//27 32//27 22//27
f 22//27 32//27 34//27
f 22//27 34//27 20//27
f 20//27 34//27 36//27
f 20//27 36//27 18//27
f 18//27 36//27 38//27
f 18//27 38//27 16//27
f 16//27 38//27 40//27
f 16//27 40//27 14//27
f 14//27 40//27 42//27
f 14//27 42//27 12//27
f 12//27 42//27 44//27
f 12//27 44//27 10//27
f 10//27 44//27 46//27
f 10//27 46//27 8//27
f 8//27 46//27 48//27
f 8//27 48//27 6//27
f 6//27 48//27 50//27
f 6//27 50//27 4//27
f 4//27 50//27 52//27
f 4//27 52//27 3//27
f 3//27 52//27 28//27
f 25//28 23//28 29//28
f 29//28 23//28 30//28
f 30//28 23//28 21//28
f 30//28 21//28 33//28
f 33//28 21//28 19//28
f 33//28 19//28 35//28
f 35//28 19//28 17//28
f 35//28 17//28 37//28
f 37//28 17//28 15//28
f 37//28 15//28 39//28
f 39//28 15//28 13//28
f 39//28 13//28 41//28
f 41//28 13//28 11//28
f 41//28 11//28 43//28
f 43//28 11//28 9//28
f 43//28 9//28 45//28
f 45//28 9//28 7//28
f 45//28 7//28 47//28
f 47//28 7//28 5//28
f 47//28 5//28 49//28
f 49//28 5//28 2//28
f 49//28 2//28 51//28
f 51//28 2//28 1//28
f 51//28 1//28 27//28
