# Blender 5.1.1
# www.blender.org
mtllib rail_ground.mtl
o rail_ground
v 1.503863 0.199535 0.135000
v 1.499999 0.198500 0.132596
v 1.503999 0.198500 0.135000
v 1.502827 0.201328 0.135000
v 1.503463 0.200500 0.135000
v 1.501034 0.202364 0.135000
v 1.501999 0.201964 0.135000
v 1.498964 0.202364 0.135000
v 1.499999 0.202500 0.135000
v 1.497170 0.201328 0.135000
v 1.497999 0.201964 0.135000
v 1.496135 0.199535 0.135000
v 1.496535 0.200500 0.135000
v 1.496135 0.197465 0.135000
v 1.495999 0.198500 0.135000
v 1.497170 0.195671 0.135000
v 1.496535 0.196500 0.135000
v 1.498964 0.194636 0.135000
v 1.497999 0.195036 0.135000
v 1.501034 0.194636 0.135000
v 1.499999 0.194500 0.135000
v 1.502827 0.195671 0.135000
v 1.501999 0.195036 0.135000
v 1.503863 0.197465 0.135000
v 1.503463 0.196500 0.135000
v 1.503863 0.199535 0.145000
v 1.503999 0.198500 0.145000
v 1.503863 0.197465 0.145000
v 1.503463 0.196500 0.145000
v 1.502827 0.195671 0.145000
v 1.501999 0.195036 0.145000
v 1.501034 0.194636 0.145000
v 1.499999 0.194500 0.145000
v 1.498964 0.194636 0.145000
v 1.497999 0.195036 0.145000
v 1.497170 0.195671 0.145000
v 1.496535 0.196500 0.145000
v 1.496135 0.197465 0.145000
v 1.495999 0.198500 0.145000
v 1.496135 0.199535 0.145000
v 1.496535 0.200500 0.145000
v 1.497170 0.201328 0.145000
v 1.497999 0.201964 0.145000
v 1.498964 0.202364 0.145000
v 1.499999 0.202500 0.145000
v 1.501034 0.202364 0.145000
v 1.501999 0.201964 0.145000
v 1.502827 0.201328 0.145000
v 1.503463 0.200500 0.145000
v 0.123864 0.199535 0.135000
v 0.120000 0.198500 0.132596
v 0.124000 0.198500 0.135000
v 0.122828 0.201328 0.135000
v 0.123464 0.200500 0.135000
v 0.121035 0.202364 0.135000
v 0.122000 0.201964 0.135000
v 0.118965 0.202364 0.135000
v 0.120000 0.202500 0.135000
v 0.117171 0.201328 0.135000
v 0.118000 0.201964 0.135000
v 0.116136 0.199535 0.135000
v 0.116536 0.200500 0.135000
v 0.116136 0.197465 0.135000
v 0.116000 0.198500 0.135000
v 0.117171 0.195671 0.135000
v 0.116536 0.196500 0.135000
v 0.118965 0.194636 0.135000
v 0.118000 0.195036 0.135000
v 0.121035 0.194636 0.135000
v 0.120000 0.194500 0.135000
v 0.122828 0.195671 0.135000
v 0.122000 0.195036 0.135000
v 0.123864 0.197465 0.135000
v 0.123464 0.196500 0.135000
v 0.123864 0.199535 0.145000
v 0.124000 0.198500 0.145000
v 0.123864 0.197465 0.145000
v 0.123464 0.196500 0.145000
v 0.122828 0.195671 0.145000
v 0.122000 0.195036 0.145000
v 0.121035 0.194636 0.145000
v 0.120000 0.194500 0.145000
v 0.118965 0.194636 0.145000
v 0.118000 0.195036 0.145000
v 0.117171 0.195671 0.145000
v 0.116536 0.196500 0.145000
v 0.116136 0.197465 0.145000
v 0.116000 0.198500 0.145000
v 0.116136 0.199535 0.145000
v 0.116536 0.200500 0.145000
v 0.117171 0.201328 0.145000
v 0.118000 0.201964 0.145000
v 0.118965 0.202364 0.145000
v 0.120000 0.202500 0.145000
v 0.121035 0.202364 0.145000
v 0.122000 0.201964 0.145000
v 0.122828 0.201328 0.145000
v 0.123464 0.200500 0.145000
v 2.883862 0.199535 0.135000
v 2.879998 0.198500 0.132596
v 2.883998 0.198500 0.135000
v 2.882826 0.201328 0.135000
v 2.883462 0.200500 0.135000
v 2.881033 0.202364 0.135000
v 2.881998 0.201964 0.135000
v 2.878963 0.202364 0.135000
v 2.879998 0.202500 0.135000
v 2.877169 0.201328 0.135000
v 2.877998 0.201964 0.135000
v 2.876134 0.199535 0.135000
v 2.876534 0.200500 0.135000
v 2.876134 0.197465 0.135000
v 2.875998 0.198500 0.135000
v 2.877169 0.195671 0.135000
v 2.876534 0.196500 0.135000
v 2.878963 0.194636 0.135000
v 2.877998 0.195036 0.135000
v 2.881033 0.194636 0.135000
v 2.879998 0.194500 0.135000
v 2.882826 0.195671 0.135000
v 2.881998 0.195036 0.135000
v 2.883862 0.197465 0.135000
v 2.883462 0.196500 0.135000
v 2.883862 0.199535 0.145000
v 2.883998 0.198500 0.145000
v 2.883862 0.197465 0.145000
v 2.883462 0.196500 0.145000
v 2.882826 0.195671 0.145000
v 2.881998 0.195036 0.145000
v 2.881033 0.194636 0.145000
v 2.879998 0.194500 0.145000
v 2.878963 0.194636 0.145000
v 2.877998 0.195036 0.145000
v 2.877169 0.195671 0.145000
v 2.876534 0.196500 0.145000
v 2.876134 0.197465 0.145000
v 2.875998 0.198500 0.145000
v 2.876134 0.199535 0.145000
v 2.876534 0.200500 0.145000
v 2.877169 0.201328 0.145000
v 2.877998 0.201964 0.145000
v 2.878963 0.202364 0.145000
v 2.879998 0.202500 0.145000
v 2.881033 0.202364 0.145000
v 2.881998 0.201964 0.145000
v 2.882826 0.201328 0.145000
v 2.883462 0.200500 0.145000
v 2.897998 0.185500 0.145000
v 0.102000 0.185500 0.145000
v 2.898388 0.185110 0.144961
v 0.101610 0.185110 0.144961
v 0.101235 0.184734 0.144848
v 2.898763 0.184734 0.144848
v 0.100889 0.184389 0.144663
v 2.899109 0.184389 0.144663
v 2.899412 0.184086 0.144414
v 0.100586 0.184086 0.144414
v 2.899661 0.183837 0.144111
v 0.100337 0.183837 0.144111
v 0.100152 0.183652 0.143765
v 2.899845 0.183652 0.143765
v 0.100038 0.183538 0.143390
v 2.899959 0.183538 0.143390
v 2.899988 0.183509 0.143196
v 0.100010 0.183509 0.143196
v 2.899998 0.183500 0.143000
v 0.100000 0.183500 0.143000
v 0.102000 0.211500 0.145000
v 0.101610 0.211890 0.144961
v 0.101235 0.212265 0.144848
v 0.100889 0.212611 0.144663
v 0.100586 0.212914 0.144414
v 0.100337 0.213163 0.144111
v 0.100152 0.213348 0.143765
v 0.100038 0.213461 0.143390
v 0.100010 0.213490 0.143196
v 0.100000 0.213500 0.143000
v 2.897998 0.211500 0.145000
v 2.898388 0.211890 0.144961
v 2.898763 0.212265 0.144848
v 2.899109 0.212611 0.144663
v 2.899412 0.212914 0.144414
v 2.899661 0.213163 0.144111
v 2.899845 0.213348 0.143765
v 2.899959 0.213461 0.143390
v 2.899988 0.213490 0.143196
v 2.899998 0.213500 0.143000
v 2.899998 0.213500 0.120000
v 2.899998 0.183500 0.120000
v 0.100000 0.183500 0.120000
v 0.100000 0.213500 0.120000
v 1.503863 0.059535 0.135000
v 1.499999 0.058500 0.132596
v 1.503999 0.058500 0.135000
v 1.502827 0.061328 0.135000
v 1.503463 0.060500 0.135000
v 1.501034 0.062364 0.135000
v 1.501999 0.061964 0.135000
v 1.498964 0.062364 0.135000
v 1.499999 0.062500 0.135000
v 1.497170 0.061328 0.135000
v 1.497999 0.061964 0.135000
v 1.496135 0.059535 0.135000
v 1.496535 0.060500 0.135000
v 1.496135 0.057465 0.135000
v 1.495999 0.058500 0.135000
v 1.497170 0.055671 0.135000
v 1.496535 0.056500 0.135000
v 1.498964 0.054636 0.135000
v 1.497999 0.055036 0.135000
v 1.501034 0.054636 0.135000
v 1.499999 0.054500 0.135000
v 1.502827 0.055671 0.135000
v 1.501999 0.055036 0.135000
v 1.503863 0.057465 0.135000
v 1.503463 0.056500 0.135000
v 1.503863 0.059535 0.145000
v 1.503999 0.058500 0.145000
v 1.503863 0.057465 0.145000
v 1.503463 0.056500 0.145000
v 1.502827 0.055671 0.145000
v 1.501999 0.055036 0.145000
v 1.501034 0.054636 0.145000
v 1.499999 0.054500 0.145000
v 1.498964 0.054636 0.145000
v 1.497999 0.055036 0.145000
v 1.497170 0.055671 0.145000
v 1.496535 0.056500 0.145000
v 1.496135 0.057465 0.145000
v 1.495999 0.058500 0.145000
v 1.496135 0.059535 0.145000
v 1.496535 0.060500 0.145000
v 1.497170 0.061328 0.145000
v 1.497999 0.061964 0.145000
v 1.498964 0.062364 0.145000
v 1.499999 0.062500 0.145000
v 1.501034 0.062364 0.145000
v 1.501999 0.061964 0.145000
v 1.502827 0.061328 0.145000
v 1.503463 0.060500 0.145000
v 0.123864 0.059535 0.135000
v 0.120000 0.058500 0.132596
v 0.124000 0.058500 0.135000
v 0.122828 0.061328 0.135000
v 0.123464 0.060500 0.135000
v 0.121035 0.062364 0.135000
v 0.122000 0.061964 0.135000
v 0.118965 0.062364 0.135000
v 0.120000 0.062500 0.135000
v 0.117171 0.061328 0.135000
v 0.118000 0.061964 0.135000
v 0.116136 0.059535 0.135000
v 0.116536 0.060500 0.135000
v 0.116136 0.057465 0.135000
v 0.116000 0.058500 0.135000
v 0.117171 0.055671 0.135000
v 0.116536 0.056500 0.135000
v 0.118965 0.054636 0.135000
v 0.118000 0.055036 0.135000
v 0.121035 0.054636 0.135000
v 0.120000 0.054500 0.135000
v 0.122828 0.055671 0.135000
v 0.122000 0.055036 0.135000
v 0.123864 0.057465 0.135000
v 0.123464 0.056500 0.135000
v 0.123864 0.059535 0.145000
v 0.124000 0.058500 0.145000
v 0.123864 0.057465 0.145000
v 0.123464 0.056500 0.145000
v 0.122828 0.055671 0.145000
v 0.122000 0.055036 0.145000
v 0.121035 0.054636 0.145000
v 0.120000 0.054500 0.145000
v 0.118965 0.054636 0.145000
v 0.118000 0.055036 0.145000
v 0.117171 0.055671 0.145000
v 0.116536 0.056500 0.145000
v 0.116136 0.057465 0.145000
v 0.116000 0.058500 0.145000
v 0.116136 0.059535 0.145000
v 0.116536 0.060500 0.145000
v 0.117171 0.061328 0.145000
v 0.118000 0.061964 0.145000
v 0.118965 0.062364 0.145000
v 0.120000 0.062500 0.145000
v 0.121035 0.062364 0.145000
v 0.122000 0.061964 0.145000
v 0.122828 0.061328 0.145000
v 0.123464 0.060500 0.145000
v 2.883862 0.059535 0.135000
v 2.879998 0.058500 0.132596
v 2.883998 0.058500 0.135000
v 2.882826 0.061328 0.135000
v 2.883462 0.060500 0.135000
v 2.881033 0.062364 0.135000
v 2.881998 0.061964 0.135000
v 2.878963 0.062364 0.135000
v 2.879998 0.062500 0.135000
v 2.877169 0.061328 0.135000
v 2.877998 0.061964 0.135000
v 2.876134 0.059535 0.135000
v 2.876534 0.060500 0.135000
v 2.876134 0.057465 0.135000
v 2.875998 0.058500 0.135000
v 2.877169 0.055671 0.135000
v 2.876534 0.056500 0.135000
v 2.878963 0.054636 0.135000
v 2.877998 0.055036 0.135000
v 2.881033 0.054636 0.135000
v 2.879998 0.054500 0.135000
v 2.882826 0.055671 0.135000
v 2.881998 0.055036 0.135000
v 2.883862 0.057465 0.135000
v 2.883462 0.056500 0.135000
v 2.883862 0.059535 0.145000
v 2.883998 0.058500 0.145000
v 2.883862 0.057465 0.145000
v 2.883462 0.056500 0.145000
v 2.882826 0.055671 0.145000
v 2.881998 0.055036 0.145000
v 2.881033 0.054636 0.145000
v 2.879998 0.054500 0.145000
v 2.878963 0.054636 0.145000
v 2.877998 0.055036 0.145000
v 2.877169 0.055671 0.145000
v 2.876534 0.056500 0.145000
v 2.876134 0.057465 0.145000
v 2.875998 0.058500 0.145000
v 2.876134 0.059535 0.145000
v 2.876534 0.060500 0.145000
v 2.877169 0.061328 0.145000
v 2.877998 0.061964 0.145000
v 2.878963 0.062364 0.145000
v 2.879998 0.062500 0.145000
v 2.881033 0.062364 0.145000
v 2.881998 0.061964 0.145000
v 2.882826 0.061328 0.145000
v 2.883462 0.060500 0.145000
v 2.897998 0.045500 0.145000
v 0.102000 0.045500 0.145000
v 2.898388 0.045110 0.144961
v 0.101610 0.045110 0.144961
v 0.101235 0.044735 0.144848
v 2.898763 0.044735 0.144848
v 0.100889 0.044389 0.144663
v 2.899109 0.044389 0.144663
v 2.899412 0.044086 0.144414
v 0.100586 0.044086 0.144414
v 2.899661 0.043837 0.144111
v 0.100337 0.043837 0.144111
v 0.100152 0.043652 0.143765
v 2.899845 0.043652 0.143765
v 0.100038 0.043538 0.143390
v 2.899959 0.043538 0.143390
v 2.899988 0.043510 0.143196
v 0.100010 0.043510 0.143196
v 2.899998 0.043500 0.143000
v 0.100000 0.043500 0.143000
v 0.102000 0.071500 0.145000
v 0.101610 0.071890 0.144961
v 0.101235 0.072265 0.144848
v 0.100889 0.072611 0.144663
v 0.100586 0.072914 0.144414
v 0.100337 0.073163 0.144111
v 0.100152 0.073348 0.143765
v 0.100038 0.073461 0.143390
v 0.100010 0.073490 0.143196
v 0.100000 0.073500 0.143000
v 2.897998 0.071500 0.145000
v 2.898388 0.071890 0.144961
v 2.898763 0.072265 0.144848
v 2.899109 0.072611 0.144663
v 2.899412 0.072914 0.144414
v 2.899661 0.073163 0.144111
v 2.899845 0.073348 0.143765
v 2.899959 0.073461 0.143390
v 2.899988 0.073490 0.143196
v 2.899998 0.073500 0.143000
v 2.899998 0.073500 0.120000
v 2.899998 0.043500 0.120000
v 0.100000 0.043500 0.120000
v 0.100000 0.073500 0.120000
v 2.994998 0.373500 0.120000
v 2.994998 -0.116500 0.120000
v 2.995973 0.374475 0.119904
v 2.995973 -0.117475 0.119904
v 2.996911 -0.118413 0.119619
v 2.996911 0.375413 0.119619
v 2.997776 -0.119278 0.119157
v 2.997776 0.376278 0.119157
v 2.998533 0.377035 0.118535
v 2.998533 -0.120035 0.118535
v 2.999155 0.377657 0.117778
v 2.999155 -0.120657 0.117778
v 2.999617 -0.121119 0.116913
v 2.999617 0.378119 0.116913
v 2.999902 -0.121404 0.115975
v 2.999902 0.378404 0.115975
v 2.999974 0.378476 0.115490
v 2.999974 -0.121476 0.115490
v 2.999998 0.378500 0.115000
v 2.999998 -0.121500 0.115000
v 0.005000 -0.116500 0.120000
v 0.004025 -0.117475 0.119904
v 0.003087 -0.118413 0.119619
v 0.002222 -0.119278 0.119157
v 0.001464 -0.120035 0.118535
v 0.000843 -0.120657 0.117778
v 0.000381 -0.121119 0.116913
v 0.000096 -0.121404 0.115975
v 0.000024 -0.121476 0.115490
v 0.000000 -0.121500 0.115000
v 0.005000 0.373500 0.120000
v 0.004025 0.374475 0.119904
v 0.003087 0.375413 0.119619
v 0.002222 0.376278 0.119157
v 0.001464 0.377035 0.118535
v 0.000843 0.377657 0.117778
v 0.000381 0.378119 0.116913
v 0.000096 0.378404 0.115975
v 0.000024 0.378476 0.115490
v 0.000000 0.378500 0.115000
v 0.000000 0.378500 0.000000
v 2.999998 0.378500 0.000000
v 2.999998 -0.121500 0.000000
v 0.000000 -0.121500 0.000000
vn -0.5139 -0.0677 0.8552
vn -0.4112 -0.3155 0.8552
vn -0.1983 -0.4789 0.8552
vn 0.0676 -0.5138 0.8552
vn 0.3155 -0.4112 0.8552
vn 0.4789 -0.1984 0.8552
vn 0.5139 0.0677 0.8552
vn 0.4112 0.3155 0.8552
vn 0.1984 0.4789 0.8552
vn -0.0676 0.5138 0.8552
vn -0.3155 0.4112 0.8552
vn -0.4789 0.1984 0.8552
vn 0.5139 -0.0677 0.8552
vn -0.3155 -0.4112 0.8552
vn -0.1983 0.4789 0.8552
vn 0.4112 -0.3155 0.8552
vn 0.1983 -0.4789 0.8552
vn -0.0676 -0.5138 0.8552
vn -0.4789 -0.1984 0.8552
vn -0.5139 0.0677 0.8552
vn -0.4112 0.3155 0.8552
vn 0.0676 0.5138 0.8552
vn 0.3155 0.4112 0.8552
vn 0.4789 0.1984 0.8552
vn -0.9914 -0.1306 -0.0000
vn -0.9914 0.1306 -0.0000
vn -0.9239 0.3827 -0.0000
vn -0.7934 0.6087 -0.0000
vn -0.7932 0.6089 -0.0000
vn -0.6088 0.7933 -0.0000
vn -0.3827 0.9239 -0.0000
vn -0.1305 0.9914 -0.0000
vn 0.1305 0.9914 -0.0000
vn 0.3827 0.9239 -0.0000
vn 0.6088 0.7933 -0.0000
vn 0.7932 0.6089 -0.0000
vn 0.7934 0.6087 -0.0000
vn 0.9239 0.3827 -0.0000
vn 0.9914 0.1306 -0.0000
vn 0.9914 -0.1306 -0.0000
vn 0.9239 -0.3827 -0.0000
vn 0.7934 -0.6087 -0.0000
vn 0.7932 -0.6089 -0.0000
vn 0.6088 -0.7933 -0.0000
vn 0.3826 -0.9239 -0.0000
vn 0.3827 -0.9239 -0.0000
vn 0.1305 -0.9914 -0.0000
vn -0.1305 -0.9914 -0.0000
vn -0.3827 -0.9239 -0.0000
vn -0.3826 -0.9239 -0.0000
vn -0.6088 -0.7933 -0.0000
vn -0.7932 -0.6089 -0.0000
vn -0.7934 -0.6087 -0.0000
vn -0.9239 -0.3827 -0.0000
vn -0.5139 -0.0676 0.8552
vn -0.1983 -0.4788 0.8552
vn 0.0676 -0.5139 0.8552
vn 0.4788 -0.1983 0.8552
vn 0.5139 0.0676 0.8552
vn 0.1984 0.4788 0.8552
vn -0.0676 0.5139 0.8552
vn -0.4788 0.1983 0.8552
vn 0.5139 -0.0676 0.8552
vn -0.1983 0.4788 0.8552
vn 0.1983 -0.4788 0.8552
vn -0.0676 -0.5139 0.8552
vn -0.4788 -0.1983 0.8552
vn -0.5139 0.0676 0.8552
vn 0.0676 0.5139 0.8552
vn 0.4788 0.1983 0.8552
vn -0.9914 -0.1305 -0.0000
vn -0.9914 0.1305 -0.0000
vn -0.7934 0.6088 -0.0000
vn -0.6087 0.7934 -0.0000
vn -0.6088 0.7934 -0.0000
vn 0.6088 0.7934 -0.0000
vn 0.7934 0.6088 -0.0000
vn 0.7933 0.6088 -0.0000
vn 0.9914 0.1305 -0.0000
vn 0.9914 -0.1305 -0.0000
vn 0.7933 -0.6088 -0.0000
vn 0.7934 -0.6088 -0.0000
vn -0.6088 -0.7934 -0.0000
vn -0.7934 -0.6088 -0.0000
vn -0.4112 -0.3156 0.8552
vn -0.1984 -0.4788 0.8552
vn 0.3156 -0.4111 0.8553
vn 0.4788 -0.1984 0.8552
vn 0.4112 0.3156 0.8552
vn -0.3155 0.4111 0.8553
vn -0.4788 0.1984 0.8552
vn -0.3156 -0.4111 0.8553
vn -0.1984 0.4788 0.8552
vn 0.4112 -0.3156 0.8552
vn -0.4788 -0.1984 0.8552
vn -0.4112 0.3156 0.8552
vn 0.3155 0.4111 0.8553
vn 0.4788 0.1984 0.8552
vn -0.9240 0.3824 -0.0000
vn -0.9237 0.3830 -0.0000
vn -0.6089 0.7933 -0.0000
vn -0.3828 0.9238 -0.0000
vn 0.6089 0.7933 -0.0000
vn 0.6087 0.7934 -0.0000
vn 0.9237 0.3830 -0.0000
vn 0.9240 0.3824 -0.0000
vn 0.9240 -0.3824 -0.0000
vn 0.9237 -0.3830 -0.0000
vn 0.6087 -0.7934 -0.0000
vn 0.6089 -0.7932 -0.0000
vn -0.1305 -0.9915 -0.0000
vn -0.3828 -0.9238 -0.0000
vn -0.6089 -0.7932 -0.0000
vn -0.6087 -0.7934 -0.0000
vn -0.9237 -0.3830 -0.0000
vn -0.9240 -0.3824 -0.0000
vn -0.0000 -0.0980 0.9952
vn -0.0000 -0.2903 0.9569
vn -0.0000 -0.2902 0.9570
vn -0.0000 -0.4714 0.8819
vn -0.0000 -0.6344 0.7730
vn -0.0000 -0.6345 0.7730
vn -0.0000 -0.7730 0.6344
vn -0.0000 -0.7729 0.6345
vn -0.0000 -0.8819 0.4714
vn -0.0000 -0.9570 0.2902
vn -0.0000 -0.9569 0.2904
vn -0.0000 -0.9892 0.1465
vn -0.0000 -0.9892 0.1468
vn -0.0000 -0.9988 0.0489
vn -0.0000 -0.9988 0.0494
vn -0.0980 -0.0000 0.9952
vn -0.2903 -0.0000 0.9569
vn -0.2902 -0.0000 0.9570
vn -0.4715 -0.0000 0.8819
vn -0.4714 -0.0000 0.8819
vn -0.6344 -0.0000 0.7730
vn -0.6343 -0.0000 0.7731
vn -0.7730 -0.0000 0.6344
vn -0.8819 -0.0000 0.4714
vn -0.8820 -0.0000 0.4713
vn -0.9569 -0.0000 0.2903
vn -0.9892 -0.0000 0.1467
vn -0.9988 -0.0000 0.0491
vn -0.0000 0.0980 0.9952
vn -0.0000 0.2903 0.9569
vn -0.0000 0.2902 0.9570
vn -0.0000 0.4714 0.8819
vn -0.0000 0.6343 0.7731
vn -0.0000 0.6344 0.7730
vn -0.0000 0.7731 0.6343
vn -0.0000 0.7730 0.6344
vn -0.0000 0.8820 0.4713
vn -0.0000 0.8819 0.4714
vn -0.0000 0.9569 0.2903
vn -0.0000 0.9569 0.2905
vn -0.0000 0.9892 0.1465
vn -0.0000 0.9892 0.1468
vn -0.0000 0.9988 0.0489
vn -0.0000 0.9988 0.0491
vn 0.9988 -0.0000 0.0485
vn 0.9892 -0.0000 0.1468
vn 0.9568 -0.0000 0.2908
vn 0.8820 -0.0000 0.4713
vn 0.8819 -0.0000 0.4714
vn 0.7733 -0.0000 0.6341
vn 0.7732 -0.0000 0.6341
vn 0.6341 -0.0000 0.7732
vn 0.6342 -0.0000 0.7732
vn 0.4714 -0.0000 0.8819
vn 0.4716 -0.0000 0.8818
vn 0.2902 -0.0000 0.9570
vn 0.2903 -0.0000 0.9569
vn 0.0980 -0.0000 0.9952
vn 1.0000 -0.0000 -0.0000
vn -0.0000 -1.0000 -0.0000
vn -0.0000 -0.0000 1.0000
vn -1.0000 -0.0000 -0.0000
vn -0.0000 1.0000 -0.0000
vn 0.1983 0.4789 0.8552
vn -0.0677 0.5138 0.8552
vn 0.0677 0.5138 0.8552
vn -0.3826 0.9239 -0.0000
vn -0.1306 0.9914 -0.0000
vn 0.1306 0.9914 -0.0000
vn 0.3826 0.9239 -0.0000
vn 0.1983 0.4788 0.8552
vn -0.0677 0.5139 0.8552
vn 0.0677 0.5139 0.8552
vn 0.1983 0.4788 0.8553
vn 0.1983 -0.4788 0.8553
vn 0.3156 0.4111 0.8553
vn -0.6089 0.7932 -0.0000
vn 0.6089 0.7932 -0.0000
vn -0.0000 -0.9569 0.2903
vn -0.0000 -0.9892 0.1467
vn -0.0000 -0.9988 0.0492
vn -0.9892 -0.0000 0.1468
vn -0.0000 0.7730 0.6343
vn -0.0000 0.9570 0.2902
vn -0.0000 0.9892 0.1467
vn -0.0000 0.9988 0.0492
vn 0.6343 -0.0000 0.7731
vn 0.7730 -0.0000 0.6344
vn 0.9570 -0.0000 0.2902
vn 0.9988 -0.0000 0.0493
vn -0.0000 -0.9988 0.0491
vn -0.0000 0.8819 0.4715
vn -0.0000 -0.0000 -1.0000
s 0
f 1//1 2//1 3//1
f 4//2 2//2 5//2
f 6//3 2//3 7//3
f 8//4 2//4 9//4
f 10//5 2//5 11//5
f 12//6 2//6 13//6
f 14//7 2//7 15//7
f 16//8 2//8 17//8
f 18//9 2//9 19//9
f 20//10 2//10 21//10
f 22//11 2//11 23//11
f 24//12 2//12 25//12
f 15//13 2//13 12//13
f 7//14 2//14 4//14
f 23//15 2//15 20//15
f 13//16 2//16 10//16
f 11//17 2//17 8//17
f 9//18 2//18 6//18
f 5//19 2//19 1//19
f 3//20 2//20 24//20
f 25//21 2//21 22//21
f 21//22 2//22 18//22
f 19//23 2//23 16//23
f 17//24 2//24 14//24
f 26//25 1//25 27//25
f 27//25 1//25 3//25
f 27//26 3//26 28//26
f 28//26 3//26 24//26
f 28//27 24//27 29//27
f 29//27 24//27 25//27
f 29//28 25//28 30//28
f 30//29 25//29 22//29
f 30//30 22//30 31//30
f 31//30 22//30 23//30
f 31//31 23//31 32//31
f 32//31 23//31 20//31
f 32//32 20//32 33//32
f 33//32 20//32 21//32
f 33//33 21//33 34//33
f 34//33 21//33 18//33
f 34//34 18//34 35//34
f 35//34 18//34 19//34
f 35//35 19//35 36//35
f 36//35 19//35 16//35
f 36//36 16//36 37//36
f 37//37 16//37 17//37
f 37//38 17//38 38//38
f 38//38 17//38 14//38
f 38//39 14//39 39//39
f 39//39 14//39 15//39
f 39//40 15//40 40//40
f 40//40 15//40 12//40
f 40//41 12//41 41//41
f 41//41 12//41 13//41
f 41//42 13//42 42//42
f 42//43 13//43 10//43
f 42//44 10//44 43//44
f 43//44 10//44 11//44
f 43//45 11//45 44//45
f 44//46 11//46 8//46
f 44//47 8//47 45//47
f 45//47 8//47 9//47
f 45//48 9//48 46//48
f 46//48 9//48 6//48
f 46//49 6//49 47//49
f 47//50 6//50 7//50
f 47//51 7//51 48//51
f 48//51 7//51 4//51
f 48//52 4//52 49//52
f 49//53 4//53 5//53
f 49//54 5//54 26//54
f 26//54 5//54 1//54
f 50//55 51//55 52//55
f 53//2 51//2 54//2
f 55//56 51//56 56//56
f 57//57 51//57 58//57
f 59//5 51//5 60//5
f 61//58 51//58 62//58
f 63//59 51//59 64//59
f 65//8 51//8 66//8
f 67//60 51//60 68//60
f 69//61 51//61 70//61
f 71//11 51//11 72//11
f 73//62 51//62 74//62
f 64//63 51//63 61//63
f 56//14 51//14 53//14
f 72//64 51//64 69//64
f 62//16 51//16 59//16
f 60//65 51//65 57//65
f 58//66 51//66 55//66
f 54//67 51//67 50//67
f 52//68 51//68 73//68
f 74//21 51//21 71//21
f 70//69 51//69 67//69
f 68//23 51//23 65//23
f 66//70 51//70 63//70
f 75//71 50//71 76//71
f 76//71 50//71 52//71
f 76//72 52//72 77//72
f 77//72 52//72 73//72
f 77//27 73//27 78//27
f 78//27 73//27 74//27
f 78//73 74//73 79//73
f 79//73 74//73 71//73
f 79//74 71//74 80//74
f 80//75 71//75 72//75
f 80//31 72//31 81//31
f 81//31 72//31 69//31
f 81//32 69//32 82//32
f 82//32 69//32 70//32
f 82//33 70//33 83//33
f 83//33 70//33 67//33
f 83//34 67//34 84//34
f 84//34 67//34 68//34
f 84//76 68//76 85//76
f 85//76 68//76 65//76
f 85//77 65//77 86//77
f 86//78 65//78 66//78
f 86//38 66//38 87//38
f 87//38 66//38 63//38
f 87//39 63//39 88//39
f 88//79 63//79 64//79
f 88//80 64//80 89//80
f 89//40 64//40 61//40
f 89//41 61//41 90//41
f 90//41 61//41 62//41
f 90//81 62//81 91//81
f 91//82 62//82 59//82
f 91//44 59//44 92//44
f 92//44 59//44 60//44
f 92//46 60//46 93//46
f 93//46 60//46 57//46
f 93//47 57//47 94//47
f 94//47 57//47 58//47
f 94//48 58//48 95//48
f 95//48 58//48 55//48
f 95//49 55//49 96//49
f 96//49 55//49 56//49
f 96//51 56//51 97//51
f 97//83 56//83 53//83
f 97//84 53//84 98//84
f 98//84 53//84 54//84
f 98//54 54//54 75//54
f 75//54 54//54 50//54
f 99//55 100//55 101//55
f 102//85 100//85 103//85
f 104//86 100//86 105//86
f 106//57 100//57 107//57
f 108//87 100//87 109//87
f 110//88 100//88 111//88
f 112//59 100//59 113//59
f 114//89 100//89 115//89
f 116//60 100//60 117//60
f 118//10 100//10 119//10
f 120//90 100//90 121//90
f 122//91 100//91 123//91
f 113//63 100//63 110//63
f 105//92 100//92 102//92
f 121//93 100//93 118//93
f 111//94 100//94 108//94
f 109//65 100//65 106//65
f 107//18 100//18 104//18
f 103//95 100//95 99//95
f 101//68 100//68 122//68
f 123//96 100//96 120//96
f 119//69 100//69 116//69
f 117//97 100//97 114//97
f 115//98 100//98 112//98
f 124//25 99//25 125//25
f 125//25 99//25 101//25
f 125//26 101//26 126//26
f 126//26 101//26 122//26
f 126//99 122//99 127//99
f 127//100 122//100 123//100
f 127//28 123//28 128//28
f 128//29 123//29 120//29
f 128//74 120//74 129//74
f 129//101 120//101 121//101
f 129//31 121//31 130//31
f 130//102 121//102 118//102
f 130//32 118//32 131//32
f 131//32 118//32 119//32
f 131//33 119//33 132//33
f 132//33 119//33 116//33
f 132//34 116//34 133//34
f 133//34 116//34 117//34
f 133//103 117//103 134//103
f 134//104 117//104 114//104
f 134//36 114//36 135//36
f 135//37 114//37 115//37
f 135//105 115//105 136//105
f 136//106 115//106 112//106
f 136//39 112//39 137//39
f 137//39 112//39 113//39
f 137//40 113//40 138//40
f 138//40 113//40 110//40
f 138//107 110//107 139//107
f 139//108 110//108 111//108
f 139//42 111//42 140//42
f 140//43 111//43 108//43
f 140//109 108//109 141//109
f 141//110 108//110 109//110
f 141//45 109//45 142//45
f 142//45 109//45 106//45
f 142//47 106//47 143//47
f 143//47 106//47 107//47
f 143//48 107//48 144//48
f 144//111 107//111 104//111
f 144//112 104//112 145//112
f 145//50 104//50 105//50
f 145//113 105//113 146//113
f 146//114 105//114 102//114
f 146//52 102//52 147//52
f 147//53 102//53 103//53
f 147//115 103//115 124//115
f 124//116 103//116 99//116
f 148//117 149//117 150//117
f 150//117 149//117 151//117
f 150//118 151//118 152//118
f 150//119 152//119 153//119
f 153//120 152//120 154//120
f 153//120 154//120 155//120
f 155//121 154//121 156//121
f 156//122 154//122 157//122
f 156//123 157//123 158//123
f 158//124 157//124 159//124
f 158//125 159//125 160//125
f 158//125 160//125 161//125
f 161//126 160//126 162//126
f 161//127 162//127 163//127
f 163//128 162//128 164//128
f 164//129 162//129 165//129
f 164//130 165//130 166//130
f 166//131 165//131 167//131
f 149//132 168//132 151//132
f 151//132 168//132 169//132
f 151//133 169//133 170//133
f 151//134 170//134 152//134
f 152//135 170//135 171//135
f 152//136 171//136 154//136
f 154//137 171//137 157//137
f 157//138 171//138 172//138
f 157//139 172//139 159//139
f 159//139 172//139 173//139
f 159//140 173//140 174//140
f 159//141 174//141 160//141
f 160//142 174//142 175//142
f 160//142 175//142 162//142
f 162//143 175//143 165//143
f 165//143 175//143 176//143
f 165//144 176//144 167//144
f 167//144 176//144 177//144
f 168//145 178//145 169//145
f 169//145 178//145 179//145
f 169//146 179//146 180//146
f 169//147 180//147 170//147
f 170//148 180//148 181//148
f 170//148 181//148 171//148
f 171//149 181//149 172//149
f 172//150 181//150 182//150
f 172//151 182//151 173//151
f 173//152 182//152 183//152
f 173//153 183//153 184//153
f 173//154 184//154 174//154
f 174//155 184//155 185//155
f 174//156 185//156 175//156
f 175//157 185//157 176//157
f 176//158 185//158 186//158
f 176//159 186//159 177//159
f 177//160 186//160 187//160
f 166//161 187//161 164//161
f 164//161 187//161 186//161
f 164//162 186//162 163//162
f 163//162 186//162 185//162
f 163//163 185//163 184//163
f 163//163 184//163 161//163
f 161//164 184//164 183//164
f 161//165 183//165 158//165
f 158//166 183//166 156//166
f 156//167 183//167 182//167
f 156//168 182//168 155//168
f 155//169 182//169 181//169
f 155//170 181//170 180//170
f 155//171 180//171 153//171
f 153//172 180//172 179//172
f 153//173 179//173 150//173
f 150//174 179//174 148//174
f 148//174 179//174 178//174
f 187//175 166//175 188//175
f 188//175 166//175 189//175
f 166//176 167//176 189//176
f 189//176 167//176 190//176
f 28//177 136//177 27//177
f 27//177 136//177 137//177
f 27//177 137//177 26//177
f 26//177 137//177 138//177
f 26//177 138//177 49//177
f 49//177 138//177 139//177
f 49//177 139//177 48//177
f 48//177 139//177 140//177
f 48//177 140//177 47//177
f 47//177 140//177 141//177
f 47//177 141//177 46//177
f 46//177 141//177 142//177
f 46//177 142//177 45//177
f 45//177 142//177 143//177
f 45//177 143//177 178//177
f 178//177 143//177 144//177
f 178//177 144//177 145//177
f 136//177 28//177 135//177
f 135//177 28//177 29//177
f 135//177 29//177 134//177
f 134//177 29//177 30//177
f 134//177 30//177 133//177
f 133//177 30//177 31//177
f 133//177 31//177 132//177
f 132//177 31//177 32//177
f 132//177 32//177 131//177
f 131//177 32//177 33//177
f 131//177 33//177 148//177
f 148//177 33//177 149//177
f 149//177 33//177 82//177
f 149//177 82//177 83//177
f 82//177 33//177 81//177
f 81//177 33//177 34//177
f 81//177 34//177 80//177
f 80//177 34//177 35//177
f 80//177 35//177 79//177
f 79//177 35//177 36//177
f 79//177 36//177 78//177
f 78//177 36//177 37//177
f 78//177 37//177 77//177
f 77//177 37//177 38//177
f 77//177 38//177 76//177
f 76//177 38//177 39//177
f 76//177 39//177 75//177
f 75//177 39//177 40//177
f 75//177 40//177 98//177
f 98//177 40//177 41//177
f 98//177 41//177 97//177
f 97//177 41//177 42//177
f 97//177 42//177 96//177
f 96//177 42//177 43//177
f 96//177 43//177 95//177
f 95//177 43//177 44//177
f 95//177 44//177 94//177
f 94//177 44//177 45//177
f 94//177 45//177 168//177
f 168//177 45//177 178//177
f 83//177 84//177 149//177
f 149//177 84//177 85//177
f 149//177 85//177 86//177
f 86//177 87//177 149//177
f 149//177 87//177 88//177
f 149//177 88//177 168//177
f 168//177 88//177 89//177
f 168//177 89//177 90//177
f 90//177 91//177 168//177
f 168//177 91//177 92//177
f 168//177 92//177 93//177
f 93//177 94//177 168//177
f 126//177 148//177 125//177
f 125//177 148//177 178//177
f 125//177 178//177 124//177
f 124//177 178//177 147//177
f 147//177 178//177 146//177
f 146//177 178//177 145//177
f 126//177 127//177 148//177
f 148//177 127//177 128//177
f 148//177 128//177 129//177
f 129//177 130//177 148//177
f 148//177 130//177 131//177
f 167//178 177//178 190//178
f 190//178 177//178 191//178
f 177//179 187//179 191//179
f 191//179 187//179 188//179
f 192//1 193//1 194//1
f 195//2 193//2 196//2
f 197//3 193//3 198//3
f 199//4 193//4 200//4
f 201//5 193//5 202//5
f 203//6 193//6 204//6
f 205//7 193//7 206//7
f 207//8 193//8 208//8
f 209//180 193//180 210//180
f 211//181 193//181 212//181
f 213//11 193//11 214//11
f 215//12 193//12 216//12
f 206//13 193//13 203//13
f 198//14 193//14 195//14
f 214//15 193//15 211//15
f 204//16 193//16 201//16
f 202//17 193//17 199//17
f 200//18 193//18 197//18
f 196//19 193//19 192//19
f 194//20 193//20 215//20
f 216//21 193//21 213//21
f 212//182 193//182 209//182
f 210//23 193//23 207//23
f 208//24 193//24 205//24
f 217//25 192//25 218//25
f 218//25 192//25 194//25
f 218//26 194//26 219//26
f 219//26 194//26 215//26
f 219//27 215//27 220//27
f 220//27 215//27 216//27
f 220//28 216//28 221//28
f 221//29 216//29 213//29
f 221//30 213//30 222//30
f 222//30 213//30 214//30
f 222//183 214//183 223//183
f 223//31 214//31 211//31
f 223//32 211//32 224//32
f 224//184 211//184 212//184
f 224//185 212//185 225//185
f 225//33 212//33 209//33
f 225//34 209//34 226//34
f 226//186 209//186 210//186
f 226//35 210//35 227//35
f 227//35 210//35 207//35
f 227//36 207//36 228//36
f 228//37 207//37 208//37
f 228//38 208//38 229//38
f 229//38 208//38 205//38
f 229//39 205//39 230//39
f 230//39 205//39 206//39
f 230//40 206//40 231//40
f 231//40 206//40 203//40
f 231//41 203//41 232//41
f 232//41 203//41 204//41
f 232//42 204//42 233//42
f 233//43 204//43 201//43
f 233//44 201//44 234//44
f 234//44 201//44 202//44
f 234//45 202//45 235//45
f 235//46 202//46 199//46
f 235//47 199//47 236//47
f 236//47 199//47 200//47
f 236//48 200//48 237//48
f 237//48 200//48 197//48
f 237//49 197//49 238//49
f 238//50 197//50 198//50
f 238//51 198//51 239//51
f 239//51 198//51 195//51
f 239//52 195//52 240//52
f 240//53 195//53 196//53
f 240//54 196//54 217//54
f 217//54 196//54 192//54
f 241//55 242//55 243//55
f 244//2 242//2 245//2
f 246//56 242//56 247//56
f 248//57 242//57 249//57
f 250//5 242//5 251//5
f 252//58 242//58 253//58
f 254//59 242//59 255//59
f 256//8 242//8 257//8
f 258//187 242//187 259//187
f 260//188 242//188 261//188
f 262//11 242//11 263//11
f 264//62 242//62 265//62
f 255//63 242//63 252//63
f 247//14 242//14 244//14
f 263//64 242//64 260//64
f 253//16 242//16 250//16
f 251//65 242//65 248//65
f 249//66 242//66 246//66
f 245//67 242//67 241//67
f 243//68 242//68 264//68
f 265//21 242//21 262//21
f 261//189 242//189 258//189
f 259//23 242//23 256//23
f 257//70 242//70 254//70
f 266//71 241//71 267//71
f 267//71 241//71 243//71
f 267//72 243//72 268//72
f 268//72 243//72 264//72
f 268//27 264//27 269//27
f 269//27 264//27 265//27
f 269//73 265//73 270//73
f 270//73 265//73 262//73
f 270//74 262//74 271//74
f 271//75 262//75 263//75
f 271//31 263//31 272//31
f 272//31 263//31 260//31
f 272//32 260//32 273//32
f 273//32 260//32 261//32
f 273//33 261//33 274//33
f 274//33 261//33 258//33
f 274//34 258//34 275//34
f 275//34 258//34 259//34
f 275//76 259//76 276//76
f 276//76 259//76 256//76
f 276//77 256//77 277//77
f 277//78 256//78 257//78
f 277//38 257//38 278//38
f 278//38 257//38 254//38
f 278//39 254//39 279//39
f 279//79 254//79 255//79
f 279//80 255//80 280//80
f 280//40 255//40 252//40
f 280//41 252//41 281//41
f 281//41 252//41 253//41
f 281//81 253//81 282//81
f 282//82 253//82 250//82
f 282//44 250//44 283//44
f 283//44 250//44 251//44
f 283//46 251//46 284//46
f 284//46 251//46 248//46
f 284//47 248//47 285//47
f 285//47 248//47 249//47
f 285//48 249//48 286//48
f 286//48 249//48 246//48
f 286//49 246//49 287//49
f 287//49 246//49 247//49
f 287//51 247//51 288//51
f 288//83 247//83 244//83
f 288//84 244//84 289//84
f 289//84 244//84 245//84
f 289//54 245//54 266//54
f 266//54 245//54 241//54
f 290//55 291//55 292//55
f 293//85 291//85 294//85
f 295//86 291//86 296//86
f 297//57 291//57 298//57
f 299//87 291//87 300//87
f 301//88 291//88 302//88
f 303//59 291//59 304//59
f 305//89 291//89 306//89
f 307//190 291//190 308//190
f 309//181 291//181 310//181
f 311//90 291//90 312//90
f 313//91 291//91 314//91
f 304//63 291//63 301//63
f 296//92 291//92 293//92
f 312//64 291//64 309//64
f 302//94 291//94 299//94
f 300//191 291//191 297//191
f 298//18 291//18 295//18
f 294//95 291//95 290//95
f 292//68 291//68 313//68
f 314//96 291//96 311//96
f 310//189 291//189 307//189
f 308//192 291//192 305//192
f 306//98 291//98 303//98
f 315//25 290//25 316//25
f 316//25 290//25 292//25
f 316//26 292//26 317//26
f 317//26 292//26 313//26
f 317//99 313//99 318//99
f 318//100 313//100 314//100
f 318//28 314//28 319//28
f 319//29 314//29 311//29
f 319//74 311//74 320//74
f 320//193 311//193 312//193
f 320//183 312//183 321//183
f 321//102 312//102 309//102
f 321//32 309//32 322//32
f 322//184 309//184 310//184
f 322//185 310//185 323//185
f 323//185 310//185 307//185
f 323//186 307//186 324//186
f 324//186 307//186 308//186
f 324//194 308//194 325//194
f 325//104 308//104 305//104
f 325//36 305//36 326//36
f 326//37 305//37 306//37
f 326//105 306//105 327//105
f 327//106 306//106 303//106
f 327//39 303//39 328//39
f 328//39 303//39 304//39
f 328//40 304//40 329//40
f 329//40 304//40 301//40
f 329//107 301//107 330//107
f 330//108 301//108 302//108
f 330//42 302//42 331//42
f 331//43 302//43 299//43
f 331//109 299//109 332//109
f 332//110 299//110 300//110
f 332//45 300//45 333//45
f 333//45 300//45 297//45
f 333//47 297//47 334//47
f 334//47 297//47 298//47
f 334//48 298//48 335//48
f 335//111 298//111 295//111
f 335//112 295//112 336//112
f 336//50 295//50 296//50
f 336//113 296//113 337//113
f 337//114 296//114 293//114
f 337//52 293//52 338//52
f 338//53 293//53 294//53
f 338//115 294//115 315//115
f 315//116 294//116 290//116
f 339//117 340//117 341//117
f 341//117 340//117 342//117
f 341//118 342//118 343//118
f 341//118 343//118 344//118
f 344//120 343//120 345//120
f 344//120 345//120 346//120
f 346//121 345//121 347//121
f 347//121 345//121 348//121
f 347//123 348//123 349//123
f 349//123 348//123 350//123
f 349//125 350//125 351//125
f 349//125 351//125 352//125
f 352//126 351//126 353//126
f 352//195 353//195 354//195
f 354//196 353//196 355//196
f 355//129 353//129 356//129
f 355//130 356//130 357//130
f 357//197 356//197 358//197
f 340//132 359//132 342//132
f 342//132 359//132 360//132
f 342//133 360//133 361//133
f 342//134 361//134 343//134
f 343//135 361//135 362//135
f 343//136 362//136 345//136
f 345//137 362//137 348//137
f 348//138 362//138 363//138
f 348//139 363//139 350//139
f 350//139 363//139 364//139
f 350//140 364//140 365//140
f 350//140 365//140 351//140
f 351//142 365//142 366//142
f 351//142 366//142 353//142
f 353//198 366//198 356//198
f 356//143 366//143 367//143
f 356//144 367//144 358//144
f 358//144 367//144 368//144
f 359//145 369//145 360//145
f 360//145 369//145 370//145
f 360//146 370//146 371//146
f 360//146 371//146 361//146
f 361//148 371//148 372//148
f 361//148 372//148 362//148
f 362//150 372//150 363//150
f 363//150 372//150 373//150
f 363//152 373//152 364//152
f 364//199 373//199 374//199
f 364//154 374//154 375//154
f 364//154 375//154 365//154
f 365//200 375//200 376//200
f 365//156 376//156 366//156
f 366//201 376//201 367//201
f 367//157 376//157 377//157
f 367//159 377//159 368//159
f 368//202 377//202 378//202
f 357//161 378//161 355//161
f 355//161 378//161 377//161
f 355//162 377//162 354//162
f 354//162 377//162 376//162
f 354//163 376//163 375//163
f 354//163 375//163 352//163
f 352//165 375//165 374//165
f 352//165 374//165 349//165
f 349//166 374//166 347//166
f 347//167 374//167 373//167
f 347//168 373//168 346//168
f 346//169 373//169 372//169
f 346//170 372//170 371//170
f 346//171 371//171 344//171
f 344//172 371//172 370//172
f 344//173 370//173 341//173
f 341//174 370//174 339//174
f 339//174 370//174 369//174
f 378//175 357//175 379//175
f 379//175 357//175 380//175
f 357//176 358//176 380//176
f 380//176 358//176 381//176
f 219//177 327//177 218//177
f 218//177 327//177 328//177
f 218//177 328//177 217//177
f 217//177 328//177 329//177
f 217//177 329//177 240//177
f 240//177 329//177 330//177
f 240//177 330//177 239//177
f 239//177 330//177 331//177
f 239//177 331//177 238//177
f 238//177 331//177 332//177
f 238//177 332//177 237//177
f 237//177 332//177 333//177
f 237//177 333//177 236//177
f 236//177 333//177 334//177
f 236//177 334//177 369//177
f 369//177 334//177 335//177
f 369//177 335//177 336//177
f 327//177 219//177 326//177
f 326//177 219//177 220//177
f 326//177 220//177 325//177
f 325//177 220//177 221//177
f 325//177 221//177 324//177
f 324//177 221//177 222//177
f 324//177 222//177 323//177
f 323//177 222//177 223//177
f 323//177 223//177 322//177
f 322//177 223//177 224//177
f 322//177 224//177 339//177
f 339//177 224//177 340//177
f 340//177 224//177 273//177
f 340//177 273//177 274//177
f 273//177 224//177 272//177
f 272//177 224//177 225//177
f 272//177 225//177 271//177
f 271//177 225//177 226//177
f 271//177 226//177 270//177
f 270//177 226//177 227//177
f 270//177 227//177 269//177
f 269//177 227//177 228//177
f 269//177 228//177 268//177
f 268//177 228//177 229//177
f 268//177 229//177 267//177
f 267//177 229//177 230//177
f 267//177 230//177 266//177
f 266//177 230//177 231//177
f 266//177 231//177 289//177
f 289//177 231//177 232//177
f 289//177 232//177 288//177
f 288//177 232//177 233//177
f 288//177 233//177 287//177
f 287//177 233//177 234//177
f 287//177 234//177 286//177
f 286//177 234//177 235//177
f 286//177 235//177 285//177
f 285//177 235//177 236//177
f 285//177 236//177 359//177
f 359//177 236//177 369//177
f 274//177 275//177 340//177
f 340//177 275//177 276//177
f 340//177 276//177 277//177
f 277//177 278//177 340//177
f 340//177 278//177 279//177
f 340//177 279//177 359//177
f 359//177 279//177 280//177
f 359//177 280//177 281//177
f 281//177 282//177 359//177
f 359//177 282//177 283//177
f 359//177 283//177 284//177
f 284//177 285//177 359//177
f 317//177 339//177 316//177
f 316//177 339//177 369//177
f 316//177 369//177 315//177
f 315//177 369//177 338//177
f 338//177 369//177 337//177
f 337//177 369//177 336//177
f 317//177 318//177 339//177
f 339//177 318//177 319//177
f 339//177 319//177 320//177
f 320//177 321//177 339//177
f 339//177 321//177 322//177
f 368//179 378//179 382//179
f 382//179 378//179 379//179
f 358//178 368//178 381//178
f 381//178 368//178 382//178
f 383//174 384//174 385//174
f 385//174 384//174 386//174
f 385//173 386//173 387//173
f 385//173 387//173 388//173
f 388//170 387//170 389//170
f 388//170 389//170 390//170
f 390//203 389//203 391//203
f 391//203 389//203 392//203
f 391//204 392//204 393//204
f 393//204 392//204 394//204
f 393//164 394//164 395//164
f 393//164 395//164 396//164
f 396//205 395//205 397//205
f 396//205 397//205 398//205
f 398//162 397//162 399//162
f 399//162 397//162 400//162
f 399//206 400//206 401//206
f 401//206 400//206 402//206
f 384//117 403//117 386//117
f 386//117 403//117 404//117
f 386//118 404//118 405//118
f 386//118 405//118 387//118
f 387//120 405//120 406//120
f 387//120 406//120 389//120
f 389//121 406//121 392//121
f 392//121 406//121 407//121
f 392//123 407//123 394//123
f 394//123 407//123 408//123
f 394//125 408//125 409//125
f 394//125 409//125 395//125
f 395//195 409//195 410//195
f 395//195 410//195 397//195
f 397//196 410//196 400//196
f 400//196 410//196 411//196
f 400//207 411//207 402//207
f 402//207 411//207 412//207
f 403//132 413//132 404//132
f 404//132 413//132 414//132
f 404//133 414//133 415//133
f 404//133 415//133 405//133
f 405//136 415//136 416//136
f 405//136 416//136 406//136
f 406//137 416//137 407//137
f 407//137 416//137 417//137
f 407//139 417//139 408//139
f 408//139 417//139 418//139
f 408//140 418//140 419//140
f 408//140 419//140 409//140
f 409//142 419//142 420//142
f 409//142 420//142 410//142
f 410//143 420//143 411//143
f 411//143 420//143 421//143
f 411//144 421//144 412//144
f 412//144 421//144 422//144
f 401//159 422//159 399//159
f 399//202 422//202 421//202
f 399//201 421//201 398//201
f 398//158 421//158 420//158
f 398//155 420//155 419//155
f 398//200 419//200 396//200
f 396//208 419//208 418//208
f 396//154 418//154 393//154
f 393//152 418//152 391//152
f 391//151 418//151 417//151
f 391//150 417//150 390//150
f 390//150 417//150 416//150
f 390//148 416//148 415//148
f 390//148 415//148 388//148
f 388//146 415//146 414//146
f 388//146 414//146 385//146
f 385//145 414//145 383//145
f 383//145 414//145 413//145
f 422//179 401//179 423//179
f 423//179 401//179 424//179
f 401//175 402//175 424//175
f 424//175 402//175 425//175
f 189//177 383//177 188//177
f 188//177 383//177 413//177
f 188//177 413//177 191//177
f 191//177 413//177 190//177
f 190//177 413//177 403//177
f 190//177 403//177 382//177
f 382//177 403//177 381//177
f 381//177 403//177 384//177
f 381//177 384//177 380//177
f 380//177 384//177 379//177
f 379//177 384//177 189//177
f 379//177 189//177 190//177
f 382//177 379//177 190//177
f 384//177 383//177 189//177
f 402//176 412//176 425//176
f 425//176 412//176 426//176
f 412//178 422//178 426//178
f 426//178 422//178 423//178
f 423//209 424//209 426//209
f 426//209 424//209 425//209
