# Blender 5.1.1
# www.blender.org
mtllib rail_move.mtl
o rail_move
v 0.694999 -0.143500 0.210000
v 0.350000 -0.038500 0.210000
v 0.005000 -0.143500 0.210000
v 0.318847 -0.034990 0.210000
v 0.289256 -0.024636 0.210000
v 0.694999 0.396500 0.210000
v 0.490000 0.101500 0.210000
v 0.486490 0.070347 0.210000
v 0.476135 0.040756 0.210000
v 0.005000 0.396500 0.210000
v 0.350000 0.241500 0.210000
v 0.381153 0.237990 0.210000
v 0.410743 0.227635 0.210000
v 0.210000 0.101500 0.210000
v 0.213510 0.132653 0.210000
v 0.223864 0.162244 0.210000
v 0.459456 0.014211 0.210000
v 0.437288 -0.007956 0.210000
v 0.410743 -0.024636 0.210000
v 0.381153 -0.034990 0.210000
v 0.262711 -0.007956 0.210000
v 0.240543 0.014211 0.210000
v 0.223864 0.040756 0.210000
v 0.213510 0.070347 0.210000
v 0.240543 0.188788 0.210000
v 0.262711 0.210956 0.210000
v 0.289256 0.227635 0.210000
v 0.318847 0.237990 0.210000
v 0.437288 0.210956 0.210000
v 0.459456 0.188788 0.210000
v 0.476135 0.162244 0.210000
v 0.486490 0.132653 0.210000
v 0.178530 0.231425 0.180000
v 0.000000 0.401500 0.180000
v 0.298529 0.231425 0.180000
v 0.699999 0.401500 0.180000
v 0.428529 0.231425 0.180000
v 0.548529 0.231425 0.180000
v 0.548529 0.161425 0.180000
v 0.699999 -0.148500 0.180000
v 0.548529 0.091426 0.180000
v 0.548529 0.021426 0.180000
v 0.428529 0.021426 0.180000
v 0.298529 0.021426 0.180000
v 0.428529 0.091426 0.180000
v 0.298529 0.091426 0.180000
v 0.428529 0.161425 0.180000
v 0.298529 0.161425 0.180000
v 0.178530 0.161425 0.180000
v 0.000000 -0.148500 0.180000
v 0.178530 0.091426 0.180000
v 0.178530 0.021426 0.180000
v 0.695975 -0.144475 0.209904
v 0.004025 -0.144475 0.209904
v 0.003087 -0.145413 0.209619
v 0.696913 -0.145413 0.209619
v 0.002222 -0.146278 0.209157
v 0.697777 -0.146278 0.209157
v 0.698535 -0.147035 0.208535
v 0.001464 -0.147035 0.208535
v 0.699157 -0.147657 0.207778
v 0.000843 -0.147657 0.207778
v 0.000381 -0.148119 0.206913
v 0.699619 -0.148119 0.206913
v 0.000096 -0.148404 0.205975
v 0.699903 -0.148404 0.205975
v 0.699975 -0.148476 0.205490
v 0.000024 -0.148476 0.205490
v 0.699999 -0.148500 0.205000
v 0.000000 -0.148500 0.205000
v 0.004025 0.397475 0.209904
v 0.003087 0.398413 0.209619
v 0.002222 0.399278 0.209157
v 0.001464 0.400035 0.208535
v 0.000843 0.400657 0.207778
v 0.000381 0.401119 0.206913
v 0.000096 0.401404 0.205975
v 0.000024 0.401476 0.205490
v 0.000000 0.401500 0.205000
v 0.695975 0.397475 0.209904
v 0.696913 0.398413 0.209619
v 0.697777 0.399278 0.209157
v 0.698535 0.400035 0.208535
v 0.699157 0.400657 0.207778
v 0.699619 0.401119 0.206913
v 0.699903 0.401404 0.205975
v 0.699975 0.401476 0.205490
v 0.699999 0.401500 0.205000
v 0.548529 0.231425 0.145000
v 0.428529 0.231425 0.145000
v 0.548529 0.161425 0.145000
v 0.428529 0.161425 0.145000
v 0.548529 0.091426 0.145000
v 0.428529 0.091426 0.145000
v 0.548529 0.021426 0.145000
v 0.428529 0.021426 0.145000
v 0.424666 0.187781 0.220000
v 0.419837 0.186487 0.216996
v 0.424837 0.186487 0.220000
v 0.423372 0.190022 0.220000
v 0.424167 0.188987 0.220000
v 0.421131 0.191316 0.220000
v 0.422337 0.190817 0.220000
v 0.418543 0.191316 0.220000
v 0.419837 0.191487 0.220000
v 0.416301 0.190022 0.220000
v 0.417337 0.190817 0.220000
v 0.415007 0.187781 0.220000
v 0.415507 0.188987 0.220000
v 0.415007 0.185193 0.220000
v 0.414837 0.186487 0.220000
v 0.416301 0.182951 0.220000
v 0.415507 0.183987 0.220000
v 0.418543 0.181657 0.220000
v 0.417337 0.182157 0.220000
v 0.421131 0.181657 0.220000
v 0.419837 0.181487 0.220000
v 0.423372 0.182951 0.220000
v 0.422337 0.182157 0.220000
v 0.424666 0.185193 0.220000
v 0.424167 0.183987 0.220000
v 0.424666 0.187781 0.235000
v 0.424837 0.186487 0.235000
v 0.424666 0.185193 0.235000
v 0.424167 0.183987 0.235000
v 0.423372 0.182951 0.235000
v 0.422337 0.182157 0.235000
v 0.421131 0.181657 0.235000
v 0.419837 0.181487 0.235000
v 0.418543 0.181657 0.235000
v 0.417337 0.182157 0.235000
v 0.416301 0.182951 0.235000
v 0.415507 0.183987 0.235000
v 0.415007 0.185193 0.235000
v 0.414837 0.186487 0.235000
v 0.415007 0.187781 0.235000
v 0.415507 0.188987 0.235000
v 0.416301 0.190022 0.235000
v 0.417337 0.190817 0.235000
v 0.418543 0.191316 0.235000
v 0.419837 0.191487 0.235000
v 0.421131 0.191316 0.235000
v 0.422337 0.190817 0.235000
v 0.423372 0.190022 0.235000
v 0.424167 0.188987 0.235000
v 0.424666 0.017807 0.220000
v 0.419837 0.016513 0.216996
v 0.424837 0.016513 0.220000
v 0.423372 0.020049 0.220000
v 0.424167 0.019013 0.220000
v 0.421131 0.021343 0.220000
v 0.422337 0.020843 0.220000
v 0.418543 0.021343 0.220000
v 0.419837 0.021513 0.220000
v 0.416301 0.020049 0.220000
v 0.417337 0.020843 0.220000
v 0.415007 0.017807 0.220000
v 0.415507 0.019013 0.220000
v 0.415007 0.015219 0.220000
v 0.414837 0.016513 0.220000
v 0.416301 0.012977 0.220000
v 0.415507 0.014013 0.220000
v 0.418543 0.011683 0.220000
v 0.417337 0.012183 0.220000
v 0.421131 0.011683 0.220000
v 0.419837 0.011513 0.220000
v 0.423372 0.012977 0.220000
v 0.422337 0.012183 0.220000
v 0.424666 0.015219 0.220000
v 0.424167 0.014013 0.220000
v 0.424666 0.017807 0.235000
v 0.424837 0.016513 0.235000
v 0.424666 0.015219 0.235000
v 0.424167 0.014013 0.235000
v 0.423372 0.012977 0.235000
v 0.422337 0.012183 0.235000
v 0.421131 0.011683 0.235000
v 0.419837 0.011513 0.235000
v 0.418543 0.011683 0.235000
v 0.417337 0.012183 0.235000
v 0.416301 0.012977 0.235000
v 0.415507 0.014013 0.235000
v 0.415007 0.015219 0.235000
v 0.414837 0.016513 0.235000
v 0.415007 0.017807 0.235000
v 0.415507 0.019013 0.235000
v 0.416301 0.020049 0.235000
v 0.417337 0.020843 0.235000
v 0.418543 0.021343 0.235000
v 0.419837 0.021513 0.235000
v 0.421131 0.021343 0.235000
v 0.422337 0.020843 0.235000
v 0.423372 0.020049 0.235000
v 0.424167 0.019013 0.235000
v 0.244829 0.102794 0.220000
v 0.240000 0.101500 0.216996
v 0.245000 0.101500 0.220000
v 0.243535 0.105035 0.220000
v 0.244330 0.104000 0.220000
v 0.241294 0.106330 0.220000
v 0.242500 0.105830 0.220000
v 0.238706 0.106330 0.220000
v 0.240000 0.106500 0.220000
v 0.236464 0.105035 0.220000
v 0.237500 0.105830 0.220000
v 0.235170 0.102794 0.220000
v 0.235670 0.104000 0.220000
v 0.235170 0.100206 0.220000
v 0.235000 0.101500 0.220000
v 0.236464 0.097964 0.220000
v 0.235670 0.099000 0.220000
v 0.238706 0.096670 0.220000
v 0.237500 0.097170 0.220000
v 0.241294 0.096670 0.220000
v 0.240000 0.096500 0.220000
v 0.243535 0.097964 0.220000
v 0.242500 0.097170 0.220000
v 0.244829 0.100206 0.220000
v 0.244330 0.099000 0.220000
v 0.244829 0.102794 0.235000
v 0.245000 0.101500 0.235000
v 0.244829 0.100206 0.235000
v 0.244330 0.099000 0.235000
v 0.243535 0.097964 0.235000
v 0.242500 0.097170 0.235000
v 0.241294 0.096670 0.235000
v 0.240000 0.096500 0.235000
v 0.238706 0.096670 0.235000
v 0.237500 0.097170 0.235000
v 0.236464 0.097964 0.235000
v 0.235670 0.099000 0.235000
v 0.235170 0.100206 0.235000
v 0.235000 0.101500 0.235000
v 0.235170 0.102794 0.235000
v 0.235670 0.104000 0.235000
v 0.236464 0.105035 0.235000
v 0.237500 0.105830 0.235000
v 0.238706 0.106330 0.235000
v 0.240000 0.106500 0.235000
v 0.241294 0.106330 0.235000
v 0.242500 0.105830 0.235000
v 0.243535 0.105035 0.235000
v 0.244330 0.104000 0.235000
v 0.284992 0.017807 0.220000
v 0.280163 0.016513 0.216996
v 0.285163 0.016513 0.220000
v 0.283698 0.020049 0.220000
v 0.284493 0.019013 0.220000
v 0.281457 0.021343 0.220000
v 0.282663 0.020843 0.220000
v 0.278869 0.021343 0.220000
v 0.280163 0.021513 0.220000
v 0.276627 0.020049 0.220000
v 0.277663 0.020843 0.220000
v 0.275333 0.017807 0.220000
v 0.275833 0.019013 0.220000
v 0.275333 0.015219 0.220000
v 0.275163 0.016513 0.220000
v 0.276627 0.012977 0.220000
v 0.275833 0.014013 0.220000
v 0.278869 0.011683 0.220000
v 0.277663 0.012183 0.220000
v 0.281457 0.011683 0.220000
v 0.280163 0.011513 0.220000
v 0.283698 0.012977 0.220000
v 0.282663 0.012183 0.220000
v 0.284992 0.015219 0.220000
v 0.284493 0.014013 0.220000
v 0.284992 0.017807 0.235000
v 0.285163 0.016513 0.235000
v 0.284992 0.015219 0.235000
v 0.284493 0.014013 0.235000
v 0.283698 0.012977 0.235000
v 0.282663 0.012183 0.235000
v 0.281457 0.011683 0.235000
v 0.280163 0.011513 0.235000
v 0.278869 0.011683 0.235000
v 0.277663 0.012183 0.235000
v 0.276627 0.012977 0.235000
v 0.275833 0.014013 0.235000
v 0.275333 0.015219 0.235000
v 0.275163 0.016513 0.235000
v 0.275333 0.017807 0.235000
v 0.275833 0.019013 0.235000
v 0.276627 0.020049 0.235000
v 0.277663 0.020843 0.235000
v 0.278869 0.021343 0.235000
v 0.280163 0.021513 0.235000
v 0.281457 0.021343 0.235000
v 0.282663 0.020843 0.235000
v 0.283698 0.020049 0.235000
v 0.284493 0.019013 0.235000
v 0.464829 0.102794 0.220000
v 0.460000 0.101500 0.216996
v 0.465000 0.101500 0.220000
v 0.463535 0.105035 0.220000
v 0.464330 0.104000 0.220000
v 0.461294 0.106330 0.220000
v 0.462500 0.105830 0.220000
v 0.458706 0.106330 0.220000
v 0.460000 0.106500 0.220000
v 0.456464 0.105035 0.220000
v 0.457500 0.105830 0.220000
v 0.455170 0.102794 0.220000
v 0.455670 0.104000 0.220000
v 0.455170 0.100206 0.220000
v 0.455000 0.101500 0.220000
v 0.456464 0.097964 0.220000
v 0.455670 0.099000 0.220000
v 0.458706 0.096670 0.220000
v 0.457500 0.097170 0.220000
v 0.461294 0.096670 0.220000
v 0.460000 0.096500 0.220000
v 0.463535 0.097964 0.220000
v 0.462500 0.097170 0.220000
v 0.464829 0.100206 0.220000
v 0.464330 0.099000 0.220000
v 0.464829 0.102794 0.235000
v 0.465000 0.101500 0.235000
v 0.464829 0.100206 0.235000
v 0.464330 0.099000 0.235000
v 0.463535 0.097964 0.235000
v 0.462500 0.097170 0.235000
v 0.461294 0.096670 0.235000
v 0.460000 0.096500 0.235000
v 0.458706 0.096670 0.235000
v 0.457500 0.097170 0.235000
v 0.456464 0.097964 0.235000
v 0.455670 0.099000 0.235000
v 0.455170 0.100206 0.235000
v 0.455000 0.101500 0.235000
v 0.455170 0.102794 0.235000
v 0.455670 0.104000 0.235000
v 0.456464 0.105035 0.235000
v 0.457500 0.105830 0.235000
v 0.458706 0.106330 0.235000
v 0.460000 0.106500 0.235000
v 0.461294 0.106330 0.235000
v 0.462500 0.105830 0.235000
v 0.463535 0.105035 0.235000
v 0.464330 0.104000 0.235000
v 0.284992 0.187781 0.220000
v 0.280163 0.186487 0.216996
v 0.285163 0.186487 0.220000
v 0.283698 0.190022 0.220000
v 0.284493 0.188987 0.220000
v 0.281457 0.191316 0.220000
v 0.282663 0.190817 0.220000
v 0.278869 0.191316 0.220000
v 0.280163 0.191487 0.220000
v 0.276627 0.190022 0.220000
v 0.277663 0.190817 0.220000
v 0.275333 0.187781 0.220000
v 0.275833 0.188987 0.220000
v 0.275333 0.185193 0.220000
v 0.275163 0.186487 0.220000
v 0.276627 0.182951 0.220000
v 0.275833 0.183987 0.220000
v 0.278869 0.181657 0.220000
v 0.277663 0.182157 0.220000
v 0.281457 0.181657 0.220000
v 0.280163 0.181487 0.220000
v 0.283698 0.182951 0.220000
v 0.282663 0.182157 0.220000
v 0.284992 0.185193 0.220000
v 0.284493 0.183987 0.220000
v 0.284992 0.187781 0.235000
v 0.285163 0.186487 0.235000
v 0.284992 0.185193 0.235000
v 0.284493 0.183987 0.235000
v 0.283698 0.182951 0.235000
v 0.282663 0.182157 0.235000
v 0.281457 0.181657 0.235000
v 0.280163 0.181487 0.235000
v 0.278869 0.181657 0.235000
v 0.277663 0.182157 0.235000
v 0.276627 0.182951 0.235000
v 0.275833 0.183987 0.235000
v 0.275333 0.185193 0.235000
v 0.275163 0.186487 0.235000
v 0.275333 0.187781 0.235000
v 0.275833 0.188987 0.235000
v 0.276627 0.190022 0.235000
v 0.277663 0.190817 0.235000
v 0.278869 0.191316 0.235000
v 0.280163 0.191487 0.235000
v 0.281457 0.191316 0.235000
v 0.282663 0.190817 0.235000
v 0.283698 0.190022 0.235000
v 0.284493 0.188987 0.235000
v 0.486490 0.070347 0.235000
v 0.490000 0.101500 0.235000
v 0.486490 0.132653 0.235000
v 0.476135 0.162244 0.235000
v 0.459456 0.188788 0.235000
v 0.437288 0.210956 0.235000
v 0.410743 0.227635 0.235000
v 0.381153 0.237990 0.235000
v 0.350000 0.241500 0.235000
v 0.318847 0.237990 0.235000
v 0.289256 0.227635 0.235000
v 0.262711 0.210956 0.235000
v 0.240543 0.188788 0.235000
v 0.223864 0.162244 0.235000
v 0.213510 0.132653 0.235000
v 0.210000 0.101500 0.235000
v 0.213510 0.070347 0.235000
v 0.223864 0.040756 0.235000
v 0.240543 0.014211 0.235000
v 0.262711 -0.007956 0.235000
v 0.289256 -0.024636 0.235000
v 0.318847 -0.034990 0.235000
v 0.350000 -0.038500 0.235000
v 0.381153 -0.034990 0.235000
v 0.410743 -0.024636 0.235000
v 0.437288 -0.007956 0.235000
v 0.459456 0.014211 0.235000
v 0.476135 0.040756 0.235000
v 0.298529 0.091426 0.145000
v 0.178530 0.091426 0.145000
v 0.298529 0.021426 0.145000
v 0.178530 0.021426 0.145000
v 0.298529 0.231425 0.145000
v 0.178530 0.231425 0.145000
v 0.298529 0.161425 0.145000
v 0.178530 0.161425 0.145000
vn -0.0000 -0.0000 1.0000
vn -0.0000 -0.0000 -1.0000
vn -0.0000 -0.0980 0.9952
vn -0.0000 -0.2903 0.9569
vn -0.0000 -0.4714 0.8819
vn -0.0000 -0.6344 0.7730
vn -0.0000 -0.7730 0.6344
vn -0.0000 -0.8819 0.4714
vn -0.0000 -0.9569 0.2903
vn -0.0000 -0.9892 0.1467
vn -0.0000 -0.9988 0.0491
vn -0.0980 -0.0000 0.9952
vn -0.2903 -0.0000 0.9569
vn -0.4714 -0.0000 0.8819
vn -0.6344 -0.0000 0.7730
vn -0.7730 -0.0000 0.6344
vn -0.8819 -0.0000 0.4714
vn -0.9569 -0.0000 0.2903
vn -0.9892 -0.0000 0.1467
vn -0.9988 -0.0000 0.0491
vn -0.0000 0.0980 0.9952
vn -0.0000 0.2903 0.9569
vn -0.0000 0.4714 0.8819
vn -0.0000 0.6344 0.7730
vn -0.0000 0.7730 0.6344
vn -0.0000 0.8819 0.4714
vn -0.0000 0.9569 0.2903
vn -0.0000 0.9892 0.1469
vn -0.0000 0.9892 0.1468
vn -0.0000 0.9988 0.0488
vn -0.0000 0.9988 0.0491
vn 0.9988 -0.0000 0.0490
vn 0.9892 -0.0000 0.1468
vn 0.9569 -0.0000 0.2903
vn 0.8819 -0.0000 0.4714
vn 0.7730 -0.0000 0.6344
vn 0.6344 -0.0000 0.7730
vn 0.4714 -0.0000 0.8819
vn 0.2903 -0.0000 0.9569
vn 0.2904 -0.0000 0.9569
vn 0.0980 -0.0000 0.9952
vn 1.0000 -0.0000 -0.0000
vn -0.0000 -1.0000 -0.0000
vn -1.0000 -0.0000 -0.0000
vn -0.0000 1.0000 -0.0000
vn -0.5139 -0.0676 0.8552
vn -0.4112 -0.3155 0.8552
vn -0.1983 -0.4788 0.8552
vn 0.0677 -0.5139 0.8552
vn 0.3155 -0.4112 0.8552
vn 0.4788 -0.1983 0.8552
vn 0.5139 0.0677 0.8552
vn 0.4112 0.3155 0.8552
vn 0.1983 0.4788 0.8552
vn -0.0677 0.5138 0.8552
vn -0.3155 0.4112 0.8552
vn -0.4788 0.1984 0.8552
vn 0.5139 -0.0677 0.8552
vn -0.3155 -0.4112 0.8552
vn -0.1983 0.4789 0.8552
vn 0.4112 -0.3155 0.8552
vn 0.1983 -0.4788 0.8552
vn -0.0677 -0.5138 0.8552
vn -0.4788 -0.1983 0.8552
vn -0.5139 0.0676 0.8552
vn -0.4112 0.3155 0.8552
vn 0.0677 0.5139 0.8552
vn 0.3155 0.4112 0.8552
vn 0.4788 0.1983 0.8552
vn -0.9914 -0.1305 -0.0000
vn -0.9914 0.1305 -0.0000
vn -0.9239 0.3827 -0.0000
vn -0.7934 0.6088 -0.0000
vn -0.6087 0.7934 -0.0000
vn -0.6088 0.7933 -0.0000
vn -0.3826 0.9239 -0.0000
vn -0.3827 0.9239 -0.0000
vn -0.1305 0.9914 -0.0000
vn 0.1305 0.9914 -0.0000
vn 0.3827 0.9239 -0.0000
vn 0.6088 0.7934 -0.0000
vn 0.7934 0.6087 -0.0000
vn 0.7934 0.6088 -0.0000
vn 0.9239 0.3827 -0.0000
vn 0.9914 0.1305 -0.0000
vn 0.9914 -0.1305 -0.0000
vn 0.9239 -0.3827 -0.0000
vn 0.7933 -0.6088 -0.0000
vn 0.7934 -0.6087 -0.0000
vn 0.6088 -0.7934 -0.0000
vn 0.3827 -0.9239 -0.0000
vn 0.1305 -0.9914 -0.0000
vn -0.1305 -0.9914 -0.0000
vn -0.3827 -0.9239 -0.0000
vn -0.6088 -0.7933 -0.0000
vn -0.6087 -0.7934 -0.0000
vn -0.7933 -0.6088 -0.0000
vn -0.9239 -0.3827 -0.0000
vn -0.1983 -0.4789 0.8552
vn 0.0676 -0.5139 0.8552
vn -0.4788 0.1983 0.8552
vn 0.1984 -0.4788 0.8552
vn -0.4788 -0.1984 0.8552
vn -0.7933 0.6088 -0.0000
vn 0.7933 0.6088 -0.0000
vn 0.7934 -0.6088 -0.0000
vn -0.7934 -0.6088 -0.0000
vn 0.4788 -0.1984 0.8552
vn 0.5139 0.0676 0.8552
vn -0.0676 0.5139 0.8552
vn 0.5139 -0.0676 0.8552
vn -0.1984 0.4788 0.8552
vn -0.0677 -0.5139 0.8552
vn -0.6088 0.7934 -0.0000
vn -0.6088 -0.7934 -0.0000
vn -0.5139 -0.0677 0.8552
vn 0.0676 -0.5138 0.8552
vn 0.1983 0.4789 0.8552
vn -0.0677 0.5139 0.8552
vn 0.1983 -0.4789 0.8552
vn -0.5139 0.0677 0.8552
vn 0.0677 0.5138 0.8552
vn -0.7934 0.6087 -0.0000
vn 0.6088 0.7933 -0.0000
vn 0.6087 0.7934 -0.0000
vn 0.9915 0.1305 -0.0000
vn 0.9914 0.1306 -0.0000
vn 0.9914 -0.1306 -0.0000
vn 0.9915 -0.1305 -0.0000
vn 0.6087 -0.7934 -0.0000
vn 0.6088 -0.7933 -0.0000
vn -0.7934 -0.6087 -0.0000
vn -0.5138 -0.0677 0.8552
vn 0.5138 0.0677 0.8552
vn -0.0676 0.5138 0.8552
vn 0.5138 -0.0677 0.8552
vn -0.5138 0.0677 0.8552
vn -0.9915 -0.1305 -0.0000
vn -0.9914 -0.1306 -0.0000
vn -0.9914 0.1306 -0.0000
vn -0.9915 0.1305 -0.0000
vn 0.0677 -0.5138 0.8552
vn 0.3826 0.9239 -0.0000
vn 0.9937 -0.1120 -0.0000
vn 0.9937 0.1120 -0.0000
vn 0.9439 0.3303 -0.0000
vn 0.8467 0.5320 -0.0000
vn 0.7071 0.7071 -0.0000
vn 0.5320 0.8467 -0.0000
vn 0.3303 0.9439 -0.0000
vn 0.1120 0.9937 -0.0000
vn -0.1120 0.9937 -0.0000
vn -0.3303 0.9439 -0.0000
vn -0.5320 0.8467 -0.0000
vn -0.7071 0.7071 -0.0000
vn -0.8467 0.5320 -0.0000
vn -0.9439 0.3303 -0.0000
vn -0.9937 0.1120 -0.0000
vn -0.9937 -0.1120 -0.0000
vn -0.9439 -0.3303 -0.0000
vn -0.8467 -0.5320 -0.0000
vn -0.7071 -0.7071 -0.0000
vn -0.5320 -0.8467 -0.0000
vn -0.3303 -0.9439 -0.0000
vn -0.1120 -0.9937 -0.0000
vn 0.1120 -0.9937 -0.0000
vn 0.3303 -0.9439 -0.0000
vn 0.5320 -0.8467 -0.0000
vn 0.7071 -0.7071 -0.0000
vn 0.8467 -0.5320 -0.0000
vn 0.9439 -0.3303 -0.0000
vn 0.0001 -0.0000 1.0000
s 0
f 1//1 2//1 3//1
f 3//1 2//1 4//1
f 3//1 4//1 5//1
f 6//1 7//1 1//1
f 1//1 7//1 8//1
f 1//1 8//1 9//1
f 10//1 11//1 6//1
f 6//1 11//1 12//1
f 6//1 12//1 13//1
f 3//1 14//1 10//1
f 10//1 14//1 15//1
f 10//1 15//1 16//1
f 9//1 17//1 1//1
f 1//1 17//1 18//1
f 1//1 18//1 19//1
f 19//1 20//1 1//1
f 1//1 20//1 2//1
f 5//1 21//1 3//1
f 3//1 21//1 22//1
f 3//1 22//1 23//1
f 23//1 24//1 3//1
f 3//1 24//1 14//1
f 16//1 25//1 10//1
f 10//1 25//1 26//1
f 10//1 26//1 27//1
f 27//1 28//1 10//1
f 10//1 28//1 11//1
f 13//1 29//1 6//1
f 6//1 29//1 30//1
f 6//1 30//1 31//1
f 31//1 32//1 6//1
f 6//1 32//1 7//1
f 33//2 34//2 35//2
f 35//2 34//2 36//2
f 35//2 36//2 37//2
f 37//2 36//2 38//2
f 38//2 36//2 39//2
f 39//2 36//2 40//2
f 39//2 40//2 41//2
f 41//2 40//2 42//2
f 42//2 40//2 43//2
f 43//2 40//2 44//2
f 43//2 44//2 45//2
f 45//2 44//2 46//2
f 45//2 46//2 47//2
f 47//2 46//2 48//2
f 47//2 48//2 37//2
f 37//2 48//2 35//2
f 33//2 49//2 34//2
f 34//2 49//2 50//2
f 50//2 49//2 51//2
f 50//2 51//2 52//2
f 49//2 48//2 51//2
f 51//2 48//2 46//2
f 52//2 44//2 50//2
f 50//2 44//2 40//2
f 41//2 45//2 39//2
f 39//2 45//2 47//2
f 1//3 3//3 53//3
f 53//3 3//3 54//3
f 53//4 54//4 55//4
f 53//4 55//4 56//4
f 56//5 55//5 57//5
f 56//5 57//5 58//5
f 58//6 57//6 59//6
f 59//6 57//6 60//6
f 59//7 60//7 61//7
f 61//7 60//7 62//7
f 61//8 62//8 63//8
f 61//8 63//8 64//8
f 64//9 63//9 65//9
f 64//9 65//9 66//9
f 66//10 65//10 67//10
f 67//10 65//10 68//10
f 67//11 68//11 69//11
f 69//11 68//11 70//11
f 3//12 10//12 54//12
f 54//12 10//12 71//12
f 54//13 71//13 72//13
f 54//13 72//13 55//13
f 55//14 72//14 73//14
f 55//14 73//14 57//14
f 57//15 73//15 60//15
f 60//15 73//15 74//15
f 60//16 74//16 62//16
f 62//16 74//16 75//16
f 62//17 75//17 76//17
f 62//17 76//17 63//17
f 63//18 76//18 77//18
f 63//18 77//18 65//18
f 65//19 77//19 68//19
f 68//19 77//19 78//19
f 68//20 78//20 70//20
f 70//20 78//20 79//20
f 10//21 6//21 71//21
f 71//21 6//21 80//21
f 71//22 80//22 81//22
f 71//22 81//22 72//22
f 72//23 81//23 82//23
f 72//23 82//23 73//23
f 73//24 82//24 74//24
f 74//24 82//24 83//24
f 74//25 83//25 75//25
f 75//25 83//25 84//25
f 75//26 84//26 85//26
f 75//26 85//26 76//26
f 76//27 85//27 86//27
f 76//27 86//27 77//27
f 77//28 86//28 78//28
f 78//29 86//29 87//29
f 78//30 87//30 79//30
f 79//31 87//31 88//31
f 69//32 88//32 67//32
f 67//32 88//32 87//32
f 67//33 87//33 66//33
f 66//33 87//33 86//33
f 66//34 86//34 85//34
f 66//34 85//34 64//34
f 64//35 85//35 84//35
f 64//35 84//35 61//35
f 61//36 84//36 59//36
f 59//36 84//36 83//36
f 59//37 83//37 58//37
f 58//37 83//37 82//37
f 58//38 82//38 81//38
f 58//38 81//38 56//38
f 56//39 81//39 80//39
f 56//40 80//40 53//40
f 53//41 80//41 1//41
f 1//41 80//41 6//41
f 88//42 69//42 36//42
f 36//42 69//42 40//42
f 69//43 70//43 40//43
f 40//43 70//43 50//43
f 70//44 79//44 50//44
f 50//44 79//44 34//44
f 79//45 88//45 34//45
f 34//45 88//45 36//45
f 89//45 90//45 38//45
f 38//45 90//45 37//45
f 91//42 89//42 39//42
f 39//42 89//42 38//42
f 92//43 91//43 47//43
f 47//43 91//43 39//43
f 90//44 92//44 37//44
f 37//44 92//44 47//44
f 90//2 89//2 92//2
f 92//2 89//2 91//2
f 93//45 94//45 41//45
f 41//45 94//45 45//45
f 95//42 93//42 42//42
f 42//42 93//42 41//42
f 96//43 95//43 43//43
f 43//43 95//43 42//43
f 94//44 96//44 45//44
f 45//44 96//44 43//44
f 94//2 93//2 96//2
f 96//2 93//2 95//2
f 97//46 98//46 99//46
f 100//47 98//47 101//47
f 102//48 98//48 103//48
f 104//49 98//49 105//49
f 106//50 98//50 107//50
f 108//51 98//51 109//51
f 110//52 98//52 111//52
f 112//53 98//53 113//53
f 114//54 98//54 115//54
f 116//55 98//55 117//55
f 118//56 98//56 119//56
f 120//57 98//57 121//57
f 111//58 98//58 108//58
f 103//59 98//59 100//59
f 119//60 98//60 116//60
f 109//61 98//61 106//61
f 107//62 98//62 104//62
f 105//63 98//63 102//63
f 101//64 98//64 97//64
f 99//65 98//65 120//65
f 121//66 98//66 118//66
f 117//67 98//67 114//67
f 115//68 98//68 112//68
f 113//69 98//69 110//69
f 122//70 97//70 123//70
f 123//70 97//70 99//70
f 123//71 99//71 124//71
f 124//71 99//71 120//71
f 124//72 120//72 125//72
f 125//72 120//72 121//72
f 125//73 121//73 126//73
f 126//73 121//73 118//73
f 126//74 118//74 127//74
f 127//75 118//75 119//75
f 127//76 119//76 128//76
f 128//77 119//77 116//77
f 128//78 116//78 129//78
f 129//78 116//78 117//78
f 129//79 117//79 130//79
f 130//79 117//79 114//79
f 130//80 114//80 131//80
f 131//80 114//80 115//80
f 131//81 115//81 132//81
f 132//81 115//81 112//81
f 132//82 112//82 133//82
f 133//83 112//83 113//83
f 133//84 113//84 134//84
f 134//84 113//84 110//84
f 134//85 110//85 135//85
f 135//85 110//85 111//85
f 135//86 111//86 136//86
f 136//86 111//86 108//86
f 136//87 108//87 137//87
f 137//87 108//87 109//87
f 137//88 109//88 138//88
f 138//89 109//89 106//89
f 138//90 106//90 139//90
f 139//90 106//90 107//90
f 139//91 107//91 140//91
f 140//91 107//91 104//91
f 140//92 104//92 141//92
f 141//92 104//92 105//92
f 141//93 105//93 142//93
f 142//93 105//93 102//93
f 142//94 102//94 143//94
f 143//94 102//94 103//94
f 143//95 103//95 144//95
f 144//96 103//96 100//96
f 144//97 100//97 145//97
f 145//97 100//97 101//97
f 145//98 101//98 122//98
f 122//98 101//98 97//98
f 146//46 147//46 148//46
f 149//47 147//47 150//47
f 151//99 147//99 152//99
f 153//100 147//100 154//100
f 155//50 147//50 156//50
f 157//51 147//51 158//51
f 159//52 147//52 160//52
f 161//53 147//53 162//53
f 163//54 147//54 164//54
f 165//55 147//55 166//55
f 167//56 147//56 168//56
f 169//101 147//101 170//101
f 160//58 147//58 157//58
f 152//59 147//59 149//59
f 168//60 147//60 165//60
f 158//61 147//61 155//61
f 156//102 147//102 153//102
f 154//63 147//63 151//63
f 150//103 147//103 146//103
f 148//65 147//65 169//65
f 170//66 147//66 167//66
f 166//67 147//67 163//67
f 164//68 147//68 161//68
f 162//69 147//69 159//69
f 171//70 146//70 172//70
f 172//70 146//70 148//70
f 172//71 148//71 173//71
f 173//71 148//71 169//71
f 173//72 169//72 174//72
f 174//72 169//72 170//72
f 174//104 170//104 175//104
f 175//104 170//104 167//104
f 175//74 167//74 176//74
f 176//75 167//75 168//75
f 176//77 168//77 177//77
f 177//77 168//77 165//77
f 177//78 165//78 178//78
f 178//78 165//78 166//78
f 178//79 166//79 179//79
f 179//79 166//79 163//79
f 179//80 163//80 180//80
f 180//80 163//80 164//80
f 180//81 164//81 181//81
f 181//81 164//81 161//81
f 181//82 161//82 182//82
f 182//105 161//105 162//105
f 182//84 162//84 183//84
f 183//84 162//84 159//84
f 183//85 159//85 184//85
f 184//85 159//85 160//85
f 184//86 160//86 185//86
f 185//86 160//86 157//86
f 185//87 157//87 186//87
f 186//87 157//87 158//87
f 186//106 158//106 187//106
f 187//89 158//89 155//89
f 187//90 155//90 188//90
f 188//90 155//90 156//90
f 188//91 156//91 189//91
f 189//91 156//91 153//91
f 189//92 153//92 190//92
f 190//92 153//92 154//92
f 190//93 154//93 191//93
f 191//93 154//93 151//93
f 191//94 151//94 192//94
f 192//94 151//94 152//94
f 192//95 152//95 193//95
f 193//96 152//96 149//96
f 193//107 149//107 194//107
f 194//107 149//107 150//107
f 194//98 150//98 171//98
f 171//98 150//98 146//98
f 195//46 196//46 197//46
f 198//47 196//47 199//47
f 200//48 196//48 201//48
f 202//100 196//100 203//100
f 204//50 196//50 205//50
f 206//108 196//108 207//108
f 208//109 196//109 209//109
f 210//53 196//53 211//53
f 212//54 196//54 213//54
f 214//110 196//110 215//110
f 216//56 196//56 217//56
f 218//101 196//101 219//101
f 209//111 196//111 206//111
f 201//59 196//59 198//59
f 217//112 196//112 214//112
f 207//61 196//61 204//61
f 205//102 196//102 202//102
f 203//113 196//113 200//113
f 199//103 196//103 195//103
f 197//65 196//65 218//65
f 219//66 196//66 216//66
f 215//67 196//67 212//67
f 213//68 196//68 210//68
f 211//69 196//69 208//69
f 220//70 195//70 221//70
f 221//70 195//70 197//70
f 221//71 197//71 222//71
f 222//71 197//71 218//71
f 222//72 218//72 223//72
f 223//72 218//72 219//72
f 223//73 219//73 224//73
f 224//73 219//73 216//73
f 224//114 216//114 225//114
f 225//114 216//114 217//114
f 225//77 217//77 226//77
f 226//77 217//77 214//77
f 226//78 214//78 227//78
f 227//78 214//78 215//78
f 227//79 215//79 228//79
f 228//79 215//79 212//79
f 228//80 212//80 229//80
f 229//80 212//80 213//80
f 229//81 213//81 230//81
f 230//81 213//81 210//81
f 230//83 210//83 231//83
f 231//83 210//83 211//83
f 231//84 211//84 232//84
f 232//84 211//84 208//84
f 232//85 208//85 233//85
f 233//85 208//85 209//85
f 233//86 209//86 234//86
f 234//86 209//86 206//86
f 234//87 206//87 235//87
f 235//87 206//87 207//87
f 235//106 207//106 236//106
f 236//106 207//106 204//106
f 236//90 204//90 237//90
f 237//90 204//90 205//90
f 237//91 205//91 238//91
f 238//91 205//91 202//91
f 238//92 202//92 239//92
f 239//92 202//92 203//92
f 239//93 203//93 240//93
f 240//93 203//93 200//93
f 240//94 200//94 241//94
f 241//94 200//94 201//94
f 241//115 201//115 242//115
f 242//115 201//115 198//115
f 242//107 198//107 243//107
f 243//107 198//107 199//107
f 243//98 199//98 220//98
f 220//98 199//98 195//98
f 244//116 245//116 246//116
f 247//47 245//47 248//47
f 249//99 245//99 250//99
f 251//117 245//117 252//117
f 253//50 245//50 254//50
f 255//51 245//51 256//51
f 257//52 245//52 258//52
f 259//53 245//53 260//53
f 261//118 245//118 262//118
f 263//119 245//119 264//119
f 265//56 245//56 266//56
f 267//57 245//57 268//57
f 258//58 245//58 255//58
f 250//59 245//59 247//59
f 266//60 245//60 263//60
f 256//61 245//61 253//61
f 254//120 245//120 251//120
f 252//113 245//113 249//113
f 248//103 245//103 244//103
f 246//121 245//121 267//121
f 268//66 245//66 265//66
f 264//122 245//122 261//122
f 262//68 245//68 259//68
f 260//69 245//69 257//69
f 269//70 244//70 270//70
f 270//70 244//70 246//70
f 270//71 246//71 271//71
f 271//71 246//71 267//71
f 271//72 267//72 272//72
f 272//72 267//72 268//72
f 272//104 268//104 273//104
f 273//123 268//123 265//123
f 273//114 265//114 274//114
f 274//114 265//114 266//114
f 274//77 266//77 275//77
f 275//77 266//77 263//77
f 275//78 263//78 276//78
f 276//78 263//78 264//78
f 276//79 264//79 277//79
f 277//79 264//79 261//79
f 277//80 261//80 278//80
f 278//80 261//80 262//80
f 278//124 262//124 279//124
f 279//125 262//125 259//125
f 279//105 259//105 280//105
f 280//105 259//105 260//105
f 280//84 260//84 281//84
f 281//84 260//84 257//84
f 281//126 257//126 282//126
f 282//127 257//127 258//127
f 282//128 258//128 283//128
f 283//129 258//129 255//129
f 283//87 255//87 284//87
f 284//87 255//87 256//87
f 284//106 256//106 285//106
f 285//106 256//106 253//106
f 285//130 253//130 286//130
f 286//131 253//131 254//131
f 286//91 254//91 287//91
f 287//91 254//91 251//91
f 287//92 251//92 288//92
f 288//92 251//92 252//92
f 288//93 252//93 289//93
f 289//93 252//93 249//93
f 289//94 249//94 290//94
f 290//94 249//94 250//94
f 290//115 250//115 291//115
f 291//115 250//115 247//115
f 291//132 247//132 292//132
f 292//107 247//107 248//107
f 292//98 248//98 269//98
f 269//98 248//98 244//98
f 293//133 294//133 295//133
f 296//47 294//47 297//47
f 298//48 294//48 299//48
f 300//117 294//117 301//117
f 302//50 294//50 303//50
f 304//51 294//51 305//51
f 306//134 294//134 307//134
f 308//53 294//53 309//53
f 310//54 294//54 311//54
f 312//135 294//135 313//135
f 314//56 294//56 315//56
f 316//101 294//101 317//101
f 307//136 294//136 304//136
f 299//59 294//59 296//59
f 315//60 294//60 312//60
f 305//61 294//61 302//61
f 303//120 294//120 300//120
f 301//63 294//63 298//63
f 297//64 294//64 293//64
f 295//137 294//137 316//137
f 317//66 294//66 314//66
f 313//122 294//122 310//122
f 311//68 294//68 308//68
f 309//69 294//69 306//69
f 318//138 293//138 319//138
f 319//139 293//139 295//139
f 319//140 295//140 320//140
f 320//141 295//141 316//141
f 320//72 316//72 321//72
f 321//72 316//72 317//72
f 321//73 317//73 322//73
f 322//104 317//104 314//104
f 322//75 314//75 323//75
f 323//114 314//114 315//114
f 323//77 315//77 324//77
f 324//77 315//77 312//77
f 324//78 312//78 325//78
f 325//78 312//78 313//78
f 325//79 313//79 326//79
f 326//79 313//79 310//79
f 326//80 310//80 327//80
f 327//80 310//80 311//80
f 327//81 311//81 328//81
f 328//124 311//124 308//124
f 328//105 308//105 329//105
f 329//83 308//83 309//83
f 329//84 309//84 330//84
f 330//84 309//84 306//84
f 330//126 306//126 331//126
f 331//127 306//127 307//127
f 331//128 307//128 332//128
f 332//129 307//129 304//129
f 332//87 304//87 333//87
f 333//87 304//87 305//87
f 333//106 305//106 334//106
f 334//88 305//88 302//88
f 334//131 302//131 335//131
f 335//90 302//90 303//90
f 335//91 303//91 336//91
f 336//91 303//91 300//91
f 336//92 300//92 337//92
f 337//92 300//92 301//92
f 337//93 301//93 338//93
f 338//93 301//93 298//93
f 338//94 298//94 339//94
f 339//94 298//94 299//94
f 339//115 299//115 340//115
f 340//95 299//95 296//95
f 340//97 296//97 341//97
f 341//107 296//107 297//107
f 341//98 297//98 318//98
f 318//98 297//98 293//98
f 342//116 343//116 344//116
f 345//47 343//47 346//47
f 347//48 343//48 348//48
f 349//142 343//142 350//142
f 351//50 343//50 352//50
f 353//51 343//51 354//51
f 355//52 343//52 356//52
f 357//53 343//53 358//53
f 359//118 343//118 360//118
f 361//119 343//119 362//119
f 363//56 343//56 364//56
f 365//101 343//101 366//101
f 356//58 343//58 353//58
f 348//59 343//59 345//59
f 364//60 343//60 361//60
f 354//61 343//61 351//61
f 352//120 343//120 349//120
f 350//113 343//113 347//113
f 346//64 343//64 342//64
f 344//121 343//121 365//121
f 366//66 343//66 363//66
f 362//122 343//122 359//122
f 360//68 343//68 357//68
f 358//69 343//69 355//69
f 367//70 342//70 368//70
f 368//70 342//70 344//70
f 368//71 344//71 369//71
f 369//71 344//71 365//71
f 369//72 365//72 370//72
f 370//72 365//72 366//72
f 370//73 366//73 371//73
f 371//123 366//123 363//123
f 371//114 363//114 372//114
f 372//114 363//114 364//114
f 372//77 364//77 373//77
f 373//77 364//77 361//77
f 373//78 361//78 374//78
f 374//78 361//78 362//78
f 374//79 362//79 375//79
f 375//79 362//79 359//79
f 375//80 359//80 376//80
f 376//143 359//143 360//143
f 376//124 360//124 377//124
f 377//125 360//125 357//125
f 377//83 357//83 378//83
f 378//83 357//83 358//83
f 378//84 358//84 379//84
f 379//84 358//84 355//84
f 379//126 355//126 380//126
f 380//127 355//127 356//127
f 380//128 356//128 381//128
f 381//129 356//129 353//129
f 381//87 353//87 382//87
f 382//87 353//87 354//87
f 382//88 354//88 383//88
f 383//88 354//88 351//88
f 383//130 351//130 384//130
f 384//131 351//131 352//131
f 384//91 352//91 385//91
f 385//91 352//91 349//91
f 385//92 349//92 386//92
f 386//92 349//92 350//92
f 386//93 350//93 387//93
f 387//93 350//93 347//93
f 387//94 347//94 388//94
f 388//94 347//94 348//94
f 388//115 348//115 389//115
f 389//115 348//115 345//115
f 389//132 345//132 390//132
f 390//97 345//97 346//97
f 390//98 346//98 367//98
f 367//98 346//98 342//98
f 391//144 8//144 392//144
f 392//144 8//144 7//144
f 392//145 7//145 393//145
f 393//145 7//145 32//145
f 393//146 32//146 394//146
f 394//146 32//146 31//146
f 394//147 31//147 395//147
f 395//147 31//147 30//147
f 395//148 30//148 396//148
f 396//148 30//148 29//148
f 396//149 29//149 397//149
f 397//149 29//149 13//149
f 397//150 13//150 398//150
f 398//150 13//150 12//150
f 398//151 12//151 399//151
f 399//151 12//151 11//151
f 399//152 11//152 400//152
f 400//152 11//152 28//152
f 400//153 28//153 401//153
f 401//153 28//153 27//153
f 401//154 27//154 402//154
f 402//154 27//154 26//154
f 402//155 26//155 403//155
f 403//155 26//155 25//155
f 403//156 25//156 404//156
f 404//156 25//156 16//156
f 404//157 16//157 405//157
f 405//157 16//157 15//157
f 405//158 15//158 406//158
f 406//158 15//158 14//158
f 406//159 14//159 407//159
f 407//159 14//159 24//159
f 407//160 24//160 408//160
f 408//160 24//160 23//160
f 408//161 23//161 409//161
f 409//161 23//161 22//161
f 409//162 22//162 410//162
f 410//162 22//162 21//162
f 410//163 21//163 411//163
f 411//163 21//163 5//163
f 411//164 5//164 412//164
f 412//164 5//164 4//164
f 412//165 4//165 413//165
f 413//165 4//165 2//165
f 413//166 2//166 414//166
f 414//166 2//166 20//166
f 414//167 20//167 415//167
f 415//167 20//167 19//167
f 415//168 19//168 416//168
f 416//168 19//168 18//168
f 416//169 18//169 417//169
f 417//169 18//169 17//169
f 417//170 17//170 418//170
f 418//170 17//170 9//170
f 418//171 9//171 391//171
f 391//171 9//171 8//171
f 393//1 340//1 392//1
f 392//1 340//1 341//1
f 392//1 341//1 318//1
f 394//1 336//1 393//1
f 393//1 336//1 337//1
f 393//1 337//1 338//1
f 395//1 126//1 394//1
f 394//1 126//1 127//1
f 394//1 127//1 335//1
f 335//1 127//1 128//1
f 335//1 128//1 334//1
f 334//1 128//1 129//1
f 334//1 129//1 333//1
f 333//1 129//1 130//1
f 333//1 130//1 332//1
f 332//1 130//1 131//1
f 332//1 131//1 331//1
f 331//1 131//1 132//1
f 331//1 132//1 371//1
f 371//1 132//1 370//1
f 370//1 132//1 133//1
f 370//1 133//1 369//1
f 369//1 133//1 134//1
f 369//1 134//1 399//1
f 399//1 134//1 135//1
f 399//1 135//1 398//1
f 398//1 135//1 136//1
f 398//1 136//1 137//1
f 396//1 122//1 395//1
f 395//1 122//1 123//1
f 395//1 123//1 124//1
f 397//1 141//1 396//1
f 396//1 141//1 142//1
f 396//1 142//1 143//1
f 398//1 137//1 397//1
f 397//1 137//1 138//1
f 397//1 138//1 139//1
f 369//1 399//1 368//1
f 368//1 399//1 400//1
f 368//1 400//1 367//1
f 367//1 400//1 390//1
f 390//1 400//1 401//1
f 390//1 401//1 389//1
f 389//1 401//1 388//1
f 388//1 401//1 387//1
f 387//1 401//1 386//1
f 386//1 401//1 402//1
f 386//1 402//1 385//1
f 385//1 402//1 384//1
f 384//1 402//1 383//1
f 383//1 402//1 382//1
f 382//1 402//1 381//1
f 381//1 402//1 403//1
f 381//1 403//1 380//1
f 380//1 403//1 379//1
f 379//1 403//1 378//1
f 378//1 403//1 377//1
f 377//1 403//1 404//1
f 377//1 404//1 376//1
f 376//1 404//1 241//1
f 376//1 241//1 375//1
f 375//1 241//1 242//1
f 375//1 242//1 374//1
f 374//1 242//1 243//1
f 374//1 243//1 373//1
f 373//1 243//1 220//1
f 373//172 220//172 372//172
f 372//1 220//1 221//1
f 372//1 221//1 371//1
f 371//1 221//1 331//1
f 241//1 404//1 240//1
f 240//1 404//1 405//1
f 240//1 405//1 239//1
f 239//1 405//1 238//1
f 238//1 405//1 237//1
f 237//1 405//1 236//1
f 236//1 405//1 406//1
f 236//1 406//1 235//1
f 235//1 406//1 234//1
f 234//1 406//1 233//1
f 233//1 406//1 232//1
f 232//1 406//1 231//1
f 231//1 406//1 230//1
f 230//1 406//1 407//1
f 230//1 407//1 229//1
f 229//1 407//1 228//1
f 228//1 407//1 227//1
f 227//1 407//1 226//1
f 226//1 407//1 408//1
f 226//1 408//1 225//1
f 225//1 408//1 286//1
f 225//1 286//1 287//1
f 286//1 408//1 285//1
f 285//1 408//1 409//1
f 285//1 409//1 284//1
f 284//1 409//1 283//1
f 283//1 409//1 282//1
f 282//1 409//1 281//1
f 281//1 409//1 410//1
f 281//1 410//1 280//1
f 280//1 410//1 279//1
f 279//1 410//1 278//1
f 278//1 410//1 277//1
f 277//1 410//1 276//1
f 276//1 410//1 411//1
f 276//1 411//1 275//1
f 275//1 411//1 274//1
f 274//1 411//1 273//1
f 273//1 411//1 272//1
f 272//1 411//1 412//1
f 272//1 412//1 271//1
f 271//1 412//1 270//1
f 270//1 412//1 413//1
f 270//1 413//1 269//1
f 269//1 413//1 185//1
f 269//1 185//1 292//1
f 292//1 185//1 186//1
f 292//1 186//1 291//1
f 291//1 186//1 187//1
f 291//1 187//1 221//1
f 221//1 187//1 331//1
f 185//1 413//1 184//1
f 184//1 413//1 414//1
f 184//1 414//1 183//1
f 183//1 414//1 182//1
f 182//1 414//1 415//1
f 182//1 415//1 181//1
f 181//1 415//1 180//1
f 180//1 415//1 179//1
f 179//1 415//1 178//1
f 178//1 415//1 416//1
f 178//1 416//1 177//1
f 177//1 416//1 176//1
f 176//1 416//1 175//1
f 175//1 416//1 174//1
f 174//1 416//1 173//1
f 173//1 416//1 417//1
f 173//1 417//1 172//1
f 172//1 417//1 171//1
f 171//1 417//1 194//1
f 194//1 417//1 193//1
f 193//1 417//1 418//1
f 193//1 418//1 192//1
f 192//1 418//1 327//1
f 192//1 327//1 191//1
f 191//1 327//1 328//1
f 191//1 328//1 190//1
f 190//1 328//1 329//1
f 190//1 329//1 189//1
f 189//1 329//1 330//1
f 189//1 330//1 188//1
f 188//1 330//1 331//1
f 188//172 331//172 187//172
f 327//1 418//1 326//1
f 326//1 418//1 391//1
f 326//1 391//1 325//1
f 325//1 391//1 324//1
f 324//1 391//1 323//1
f 323//1 391//1 322//1
f 322//1 391//1 392//1
f 322//1 392//1 321//1
f 321//1 392//1 320//1
f 320//1 392//1 319//1
f 319//1 392//1 318//1
f 335//1 336//1 394//1
f 338//1 339//1 393//1
f 393//1 339//1 340//1
f 225//1 287//1 224//1
f 224//1 287//1 288//1
f 224//1 288//1 223//1
f 223//1 288//1 289//1
f 223//1 289//1 222//1
f 222//1 289//1 290//1
f 222//1 290//1 221//1
f 221//1 290//1 291//1
f 124//1 125//1 395//1
f 395//1 125//1 126//1
f 139//1 140//1 397//1
f 397//1 140//1 141//1
f 143//1 144//1 396//1
f 396//1 144//1 145//1
f 396//1 145//1 122//1
f 419//45 420//45 46//45
f 46//45 420//45 51//45
f 421//42 419//42 44//42
f 44//42 419//42 46//42
f 422//43 421//43 52//43
f 52//43 421//43 44//43
f 420//44 422//44 51//44
f 51//44 422//44 52//44
f 420//2 419//2 422//2
f 422//2 419//2 421//2
f 423//45 424//45 35//45
f 35//45 424//45 33//45
f 425//42 423//42 48//42
f 48//42 423//42 35//42
f 426//43 425//43 49//43
f 49//43 425//43 48//43
f 424//44 426//44 33//44
f 33//44 426//44 49//44
f 424//2 423//2 426//2
f 426//2 423//2 425//2
