# Blender 5.1.1
# www.blender.org
mtllib osaka_corpo.mtl
o osaka_corpo
v 1.924975 0.455560 1.148839
v 1.924975 0.389669 1.061963
v 1.979975 0.455560 1.148839
v 1.979975 0.389669 1.061963
v 1.924975 0.327957 0.970459
v 1.979975 0.327957 0.970459
v 1.924975 0.270780 0.873932
v 1.979975 0.270780 0.873932
v 1.924975 0.218525 0.771956
v 1.979975 0.218525 0.771956
v 1.924975 0.171305 0.664405
v 1.979975 0.171305 0.664405
v 1.924975 0.128815 0.551615
v 1.979975 0.128815 0.551615
v 1.924975 0.090590 0.434102
v 1.979975 0.090590 0.434102
v 1.924975 0.056260 0.312276
v 1.979975 0.056260 0.312276
v 1.979975 0.511304 1.121872
v 1.979975 0.518145 1.118344
v 1.924975 0.511304 1.121872
v 1.924975 0.518145 1.118344
v 1.979975 0.056340 0.282276
v 1.924975 0.056340 0.282276
v 1.924975 0.511304 1.105606
v 1.924975 0.522995 1.098753
v 1.924975 0.502481 0.761498
v 1.924975 0.502481 0.736701
v 1.924975 0.307294 0.523721
v 1.924975 0.307294 0.493704
v 1.924975 0.123020 0.315584
v 1.924975 0.060546 0.315584
v 1.924975 0.570892 1.086385
v 1.924975 0.807322 0.959520
v 1.924975 0.807322 0.761498
v 1.924975 0.807322 0.523721
v 1.924975 0.647347 0.736701
v 1.924975 0.763501 0.694938
v 1.924975 0.807322 0.694938
v 1.924975 0.123020 0.298284
v 1.924975 0.463994 0.493704
v 1.924975 0.807322 0.298284
v 1.924975 0.752421 0.427143
v 1.924975 0.807322 0.427143
v 1.924975 0.060546 0.286751
v 1.924975 0.455560 1.138284
v 1.979975 0.511304 1.145973
v 0.000000 0.511304 1.145973
v 0.054999 0.511304 1.121872
v 0.000000 0.511304 1.121872
v 0.054999 0.511304 1.105606
v 0.054999 0.455560 1.138284
v 0.054999 0.455560 1.148839
v 0.000000 0.455560 1.153661
v 0.000000 0.455560 1.148839
v 1.979975 0.455560 1.153661
v 0.054999 0.522995 1.098753
v 0.054999 0.518145 1.118344
v 0.000000 0.518145 1.118344
v 1.979975 0.015378 0.238696
v 0.000000 0.015378 0.238696
v 0.054999 0.056340 0.282276
v 0.000000 0.056340 0.282276
v 0.054999 0.060546 0.286751
v 0.054999 0.060546 0.315584
v 0.054999 0.123020 0.315584
v 0.054999 0.123020 0.298284
v 0.054999 0.807322 0.298284
v 0.054999 0.807322 0.427143
v 0.054999 0.752421 0.427143
v 0.054999 0.463994 0.493704
v 0.000000 0.874462 0.019566
v 0.000000 0.899587 0.019566
v 1.979975 0.874462 0.019566
v 1.979975 0.899587 0.019566
v 0.000000 0.874462 0.000000
v 1.979975 0.874462 0.000000
v 0.000000 0.856190 0.000000
v 1.979975 0.856190 0.000000
v 0.000000 0.856190 0.019566
v 1.979975 0.856190 0.019566
v 0.000000 0.778489 0.019566
v 1.979975 0.778489 0.019566
v 0.000000 0.778489 0.067621
v 1.979975 0.778489 0.067621
v 0.000000 0.207597 0.067621
v 1.979975 0.207597 0.067621
v 0.000000 0.207597 0.019566
v 1.979975 0.207597 0.019566
v 0.000000 0.130554 0.019566
v 1.979975 0.130554 0.019566
v 0.000000 0.130554 0.000000
v 1.979975 0.130554 0.000000
v 0.000000 0.112283 0.000000
v 1.979975 0.112283 0.000000
v 0.000000 0.112283 0.019566
v 1.979975 0.112283 0.019566
v 0.000000 0.094188 0.019566
v 1.979975 0.094188 0.019566
v 0.000000 0.094188 0.067621
v 1.979975 0.094188 0.067621
v 0.000000 0.094188 0.079995
v 1.979975 0.094188 0.079995
v 0.000000 0.037962 0.079995
v 1.979975 0.037962 0.079995
v 0.000000 0.000000 0.115676
v 1.979975 0.000000 0.115676
v 0.000000 0.000000 0.163731
v 1.979975 0.000000 0.163731
v 0.000000 0.015378 0.163731
v 1.979975 0.015378 0.163731
v 0.054999 0.307294 0.493704
v 0.054999 0.307294 0.523721
v 0.054999 0.807322 0.523721
v 0.054999 0.807322 0.694938
v 0.054999 0.763501 0.694938
v 0.054999 0.647347 0.736701
v 0.054999 0.502481 0.736701
v 0.054999 0.502481 0.761498
v 0.054999 0.807322 0.761498
v 0.054999 0.807322 0.959520
v 0.054999 0.570892 1.086385
v 0.000000 0.524759 1.197872
v 1.979975 0.524759 1.197872
v 0.000000 0.899587 1.197872
v 1.979975 0.899587 1.197872
v 0.054999 0.056260 0.312276
v 0.054999 0.090590 0.434102
v 0.054999 0.128815 0.551615
v 0.054999 0.171305 0.664405
v 0.054999 0.218525 0.771956
v 0.054999 0.270780 0.873932
v 0.054999 0.327957 0.970459
v 0.054999 0.389669 1.061963
v 0.000000 0.056260 0.312276
v 0.000000 0.389669 1.061963
v 0.000000 0.327957 0.970459
v 0.000000 0.270780 0.873932
v 0.000000 0.218525 0.771956
v 0.000000 0.171305 0.664405
v 0.000000 0.128815 0.551615
v 0.000000 0.090590 0.434102
vn -0.0000 -0.7968 0.6043
vn -0.0000 -0.8291 0.5591
vn -0.0000 -0.8604 0.5096
vn -0.0000 -0.8900 0.4560
vn -0.0000 -0.9156 0.4020
vn -0.0000 -0.9358 0.3525
vn -0.0000 -0.9510 0.3093
vn -0.0000 -0.9625 0.2712
vn -0.0000 0.4584 0.8888
vn -0.0000 0.4583 0.8888
vn -0.0000 -1.0000 -0.0026
vn -1.0000 -0.0000 -0.0000
vn -1.0000 0.0001 -0.0000
vn -0.0000 1.0000 -0.0000
vn -0.0000 -0.5057 -0.8627
vn -0.0000 -1.0000 -0.0000
vn -0.0000 -0.9707 -0.2403
vn -0.0000 -0.7287 0.6849
vn -0.0000 -0.0000 1.0000
vn -0.0000 -0.0000 -1.0000
vn -0.0000 -0.2249 -0.9744
vn -0.0000 -0.6849 -0.7287
vn -0.0000 -0.3383 -0.9410
vn -0.0000 -0.4728 -0.8812
vn -0.0000 -0.2500 -0.9682
vn -0.0000 -0.5384 0.8427
vn 1.0000 -0.0000 -0.0000
s 0
f 1//1 2//1 3//1
f 3//1 2//1 4//1
f 4//2 2//2 5//2
f 4//2 5//2 6//2
f 6//3 5//3 7//3
f 6//3 7//3 8//3
f 8//4 7//4 9//4
f 8//4 9//4 10//4
f 10//5 9//5 11//5
f 10//5 11//5 12//5
f 12//6 11//6 13//6
f 12//6 13//6 14//6
f 14//7 13//7 15//7
f 14//7 15//7 16//7
f 16//8 15//8 17//8
f 16//8 17//8 18//8
f 19//9 20//9 21//9
f 21//10 20//10 22//10
f 23//11 18//11 24//11
f 24//11 18//11 17//11
f 21//12 22//12 25//12
f 25//12 22//12 26//12
f 25//12 26//12 2//12
f 2//12 26//12 27//12
f 2//12 27//12 5//12
f 5//12 27//12 7//12
f 7//12 27//12 28//12
f 7//12 28//12 9//12
f 9//12 28//12 29//12
f 9//12 29//12 11//12
f 11//12 29//12 13//12
f 13//12 29//12 30//12
f 13//12 30//12 15//12
f 15//12 30//12 31//12
f 15//12 31//12 32//12
f 26//12 33//12 27//12
f 27//12 33//12 34//12
f 27//12 34//12 35//12
f 29//12 28//12 36//12
f 36//12 28//12 37//12
f 36//12 37//12 38//12
f 38//12 39//12 36//12
f 31//12 30//12 40//12
f 40//12 30//12 41//12
f 40//12 41//12 42//12
f 42//12 41//12 43//12
f 42//12 43//12 44//12
f 15//12 32//12 17//12
f 17//13 32//13 45//13
f 17//12 45//12 24//12
f 1//12 46//12 2//12
f 2//12 46//12 25//12
f 19//14 21//14 47//14
f 47//14 21//14 48//14
f 48//14 21//14 49//14
f 48//14 49//14 50//14
f 21//14 25//14 49//14
f 49//14 25//14 51//14
f 25//15 46//15 51//15
f 51//15 46//15 52//15
f 46//16 1//16 52//16
f 52//16 1//16 53//16
f 53//16 1//16 54//16
f 53//16 54//16 55//16
f 3//16 56//16 1//16
f 1//16 56//16 54//16
f 26//17 22//17 57//17
f 57//17 22//17 58//17
f 58//17 22//17 48//17
f 58//17 48//17 59//17
f 20//17 47//17 22//17
f 22//17 47//17 48//17
f 23//18 24//18 60//18
f 60//18 24//18 61//18
f 61//18 24//18 62//18
f 61//18 62//18 63//18
f 24//18 45//18 62//18
f 62//18 45//18 64//18
f 45//16 32//16 64//16
f 64//16 32//16 65//16
f 32//19 31//19 65//19
f 65//19 31//19 66//19
f 31//14 40//14 66//14
f 66//14 40//14 67//14
f 40//19 42//19 67//19
f 67//19 42//19 68//19
f 42//16 44//16 68//16
f 68//16 44//16 69//16
f 44//20 43//20 69//20
f 69//20 43//20 70//20
f 43//21 41//21 70//21
f 70//21 41//21 71//21
f 72//20 73//20 74//20
f 74//20 73//20 75//20
f 76//14 72//14 77//14
f 77//14 72//14 74//14
f 78//20 76//20 79//20
f 79//20 76//20 77//20
f 80//16 78//16 81//16
f 81//16 78//16 79//16
f 82//20 80//20 83//20
f 83//20 80//20 81//20
f 84//16 82//16 85//16
f 85//16 82//16 83//16
f 86//20 84//20 87//20
f 87//20 84//20 85//20
f 88//14 86//14 89//14
f 89//14 86//14 87//14
f 90//20 88//20 91//20
f 91//20 88//20 89//20
f 92//14 90//14 93//14
f 93//14 90//14 91//14
f 94//20 92//20 95//20
f 95//20 92//20 93//20
f 96//16 94//16 97//16
f 97//16 94//16 95//16
f 98//20 96//20 99//20
f 99//20 96//20 97//20
f 100//16 98//16 101//16
f 101//16 98//16 99//16
f 102//16 100//16 103//16
f 103//16 100//16 101//16
f 104//20 102//20 105//20
f 105//20 102//20 103//20
f 106//22 104//22 107//22
f 107//22 104//22 105//22
f 108//16 106//16 109//16
f 109//16 106//16 107//16
f 110//19 108//19 111//19
f 111//19 108//19 109//19
f 61//16 110//16 60//16
f 60//16 110//16 111//16
f 41//20 30//20 71//20
f 71//20 30//20 112//20
f 30//16 29//16 112//16
f 112//16 29//16 113//16
f 29//19 36//19 113//19
f 113//19 36//19 114//19
f 36//16 39//16 114//16
f 114//16 39//16 115//16
f 39//20 38//20 115//20
f 115//20 38//20 116//20
f 38//23 37//23 116//23
f 116//23 37//23 117//23
f 37//20 28//20 117//20
f 117//20 28//20 118//20
f 28//16 27//16 118//16
f 118//16 27//16 119//16
f 27//19 35//19 119//19
f 119//19 35//19 120//19
f 35//16 34//16 120//16
f 120//16 34//16 121//16
f 34//24 33//24 121//24
f 121//24 33//24 122//24
f 33//25 26//25 122//25
f 122//25 26//25 57//25
f 123//26 54//26 124//26
f 124//26 54//26 56//26
f 125//19 123//19 126//19
f 126//19 123//19 124//19
f 73//14 125//14 75//14
f 75//14 125//14 126//14
f 47//27 3//27 19//27
f 19//27 3//27 4//27
f 19//27 4//27 20//27
f 20//27 4//27 6//27
f 20//27 6//27 85//27
f 85//27 6//27 8//27
f 85//27 8//27 10//27
f 20//27 124//27 47//27
f 47//27 124//27 56//27
f 47//27 56//27 3//27
f 10//27 12//27 85//27
f 85//27 12//27 87//27
f 87//27 12//27 14//27
f 87//27 14//27 16//27
f 18//27 23//27 16//27
f 16//27 23//27 87//27
f 60//27 111//27 23//27
f 23//27 111//27 103//27
f 23//27 103//27 87//27
f 87//27 103//27 91//27
f 87//27 91//27 89//27
f 109//27 107//27 111//27
f 111//27 107//27 105//27
f 111//27 105//27 103//27
f 103//27 101//27 91//27
f 91//27 101//27 97//27
f 91//27 97//27 93//27
f 93//27 97//27 95//27
f 101//27 99//27 97//27
f 83//27 81//27 85//27
f 85//27 81//27 74//27
f 85//27 74//27 75//27
f 81//27 79//27 74//27
f 74//27 79//27 77//27
f 75//27 126//27 85//27
f 85//27 126//27 20//27
f 126//27 124//27 20//27
f 62//27 64//27 127//27
f 127//27 64//27 65//27
f 127//27 65//27 128//27
f 128//27 65//27 66//27
f 128//27 66//27 112//27
f 112//27 66//27 67//27
f 112//27 67//27 71//27
f 71//27 67//27 68//27
f 71//27 68//27 70//27
f 70//27 68//27 69//27
f 128//27 112//27 129//27
f 129//27 112//27 113//27
f 129//27 113//27 130//27
f 130//27 113//27 131//27
f 131//27 113//27 118//27
f 131//27 118//27 132//27
f 132//27 118//27 119//27
f 132//27 119//27 133//27
f 133//27 119//27 134//27
f 134//27 119//27 57//27
f 134//27 57//27 51//27
f 51//27 57//27 58//27
f 51//27 58//27 49//27
f 113//27 114//27 118//27
f 118//27 114//27 117//27
f 117//27 114//27 116//27
f 116//27 114//27 115//27
f 120//27 121//27 119//27
f 119//27 121//27 122//27
f 119//27 122//27 57//27
f 51//27 52//27 134//27
f 134//27 52//27 53//27
f 59//9 50//9 58//9
f 58//9 50//9 49//9
f 62//11 127//11 63//11
f 63//11 127//11 135//11
f 55//1 136//1 53//1
f 53//1 136//1 134//1
f 134//2 136//2 137//2
f 134//2 137//2 133//2
f 133//3 137//3 138//3
f 133//3 138//3 132//3
f 132//4 138//4 139//4
f 132//4 139//4 131//4
f 131//5 139//5 140//5
f 131//5 140//5 130//5
f 130//6 140//6 141//6
f 130//6 141//6 129//6
f 129//7 141//7 142//7
f 129//7 142//7 128//7
f 128//8 142//8 135//8
f 128//8 135//8 127//8
f 135//12 142//12 63//12
f 63//12 142//12 86//12
f 63//12 86//12 102//12
f 102//12 86//12 90//12
f 102//12 90//12 100//12
f 100//12 90//12 96//12
f 100//12 96//12 98//12
f 142//12 141//12 86//12
f 86//12 141//12 140//12
f 86//12 140//12 84//12
f 84//12 140//12 139//12
f 84//12 139//12 138//12
f 138//12 137//12 84//12
f 84//12 137//12 59//12
f 84//12 59//12 125//12
f 125//12 59//12 123//12
f 123//12 59//12 48//12
f 123//12 48//12 54//12
f 54//12 48//12 55//12
f 55//12 48//12 50//12
f 55//12 50//12 136//12
f 136//12 50//12 59//12
f 136//12 59//12 137//12
f 125//12 73//12 84//12
f 84//12 73//12 72//12
f 84//12 72//12 80//12
f 80//12 72//12 78//12
f 78//12 72//12 76//12
f 80//12 82//12 84//12
f 86//12 88//12 90//12
f 92//12 94//12 90//12
f 90//12 94//12 96//12
f 63//12 102//12 110//12
f 110//12 102//12 104//12
f 110//12 104//12 106//12
f 106//12 108//12 110//12
f 110//12 61//12 63//12
