# Blender 5.1.1
# www.blender.org
mtllib efficold_porta.mtl
o efficold_porta
v 0.000000 0.487314 0.804566
v 0.000000 0.482648 0.868139
v 0.582992 0.487314 0.804566
v 0.582992 0.482648 0.868139
v 0.000000 0.008264 0.741395
v 0.582992 0.008264 0.741395
v 0.000000 0.000000 0.809990
v 0.582992 0.000000 0.809990
vn -0.0000 0.9973 0.0732
vn -0.0000 0.1307 -0.9914
vn -0.0000 -0.9928 -0.1196
vn -0.0000 -0.1196 0.9928
vn 1.0000 -0.0000 -0.0000
vn -1.0000 -0.0000 -0.0000
s 0
f 1//1 2//1 3//1
f 3//1 2//1 4//1
f 5//2 1//2 6//2
f 6//2 1//2 3//2
f 7//3 5//3 8//3
f 8//3 5//3 6//3
f 2//4 7//4 4//4
f 4//4 7//4 8//4
f 4//5 8//5 3//5
f 3//5 8//5 6//5
f 2//6 1//6 7//6
f 7//6 1//6 5//6
