# Blender 5.1.1
# www.blender.org
mtllib athen_xl_corpo.mtl
o athen_xl_corpo
v 2.499998 0.060365 0.910177
v 2.499998 1.434673 1.003499
v 2.489998 0.060365 0.910177
v 2.489998 1.434673 1.003499
v 2.489998 1.434901 0.981723
v 2.489998 1.407908 0.981723
v 2.489998 1.434901 1.000154
v 2.489998 1.407908 0.963958
v 2.489998 1.372726 0.963958
v 2.489998 0.078396 0.874810
v 2.489998 0.062701 0.866808
v 2.489998 1.372726 0.924120
v 2.489998 0.069477 0.842242
v 2.489998 0.069477 0.835623
v 2.489998 0.064369 0.842242
v 2.499998 1.372726 0.924120
v 2.499998 0.069477 0.835623
v 2.499998 1.434901 1.000154
v 2.499998 0.062701 0.866808
v 2.499998 0.064369 0.842242
v 0.010000 1.434901 0.981723
v 0.010000 1.434901 1.000154
v 2.499998 1.434901 1.003823
v 0.000000 1.434901 1.003823
v 0.000000 1.434901 1.000154
v 0.010000 0.078396 0.874810
v 0.010000 0.062701 0.866808
v 2.499998 0.050172 0.860420
v 0.000000 0.050172 0.860420
v 0.000000 0.062701 0.866808
v 0.010000 0.069477 0.842242
v 0.010000 0.069477 0.835623
v 2.499998 0.069477 0.812619
v 0.000000 0.069477 0.812619
v 0.000000 0.069477 0.835623
v 2.499998 1.372726 0.448716
v 2.499998 1.455709 1.003823
v 2.499998 0.087316 0.414594
v 2.499998 0.247055 0.050022
v 2.499998 1.211107 0.050022
v 2.499998 1.283625 0.050022
v 2.499998 1.283625 0.000000
v 2.499998 1.211107 0.000000
v 2.499998 0.087316 0.812619
v 2.499998 0.002555 0.841300
v 2.499998 0.000000 0.050022
v 2.499998 0.050172 0.842242
v 2.499998 0.002555 0.869980
v 2.499998 0.059824 0.911238
v 2.499998 0.033296 0.050022
v 2.499998 0.107718 0.050022
v 2.499998 0.171114 0.050022
v 2.499998 0.033296 0.000000
v 2.499998 0.107718 0.000000
v 2.499998 0.171114 0.000000
v 2.499998 0.247055 0.000000
v 2.499998 1.349832 0.050022
v 2.499998 1.427029 0.050022
v 2.499998 1.455709 0.050022
v 2.499998 1.349832 0.000000
v 2.499998 1.427029 0.000000
v 0.010000 1.434673 1.003499
v 0.000000 1.434673 1.003499
v 0.010000 0.064369 0.842242
v 0.000000 0.064369 0.842242
v 0.010000 1.372726 0.963958
v 0.010000 1.372726 0.924120
v 0.010000 1.407908 0.963958
v 0.010000 1.407908 0.981723
v 0.010000 0.060365 0.910177
v 0.000000 0.060365 0.910177
v 0.000000 1.372726 0.924120
v 0.000000 1.372726 0.448716
v 0.000000 0.059824 0.911238
v 0.000000 1.455709 1.003823
v 0.000000 0.050172 0.842242
v 0.000000 0.002555 0.841300
v 0.000000 0.087316 0.414594
v 0.000000 0.000000 0.050022
v 0.000000 0.033296 0.050022
v 0.000000 0.107718 0.050022
v 0.000000 0.033296 0.000000
v 0.000000 0.107718 0.000000
v 0.000000 1.455709 0.050022
v 0.000000 1.427029 0.050022
v 0.000000 1.349832 0.050022
v 0.000000 1.427029 0.000000
v 0.000000 1.349832 0.000000
v 0.000000 1.283625 0.050022
v 0.000000 1.211107 0.050022
v 0.000000 0.247055 0.050022
v 0.000000 1.283625 0.000000
v 0.000000 1.211107 0.000000
v 0.000000 0.247055 0.000000
v 0.000000 0.171114 0.050022
v 0.000000 0.171114 0.000000
v 0.000000 0.002555 0.869980
v 0.000000 0.087316 0.812619
vn -0.0000 -0.0677 0.9977
vn -1.0000 -0.0000 -0.0000
vn -0.0000 0.0677 -0.9977
vn -0.0000 0.9977 0.0678
vn -0.0000 0.9977 0.0677
vn -0.0000 -0.9977 -0.0678
vn -0.0000 -0.9977 -0.0677
vn -0.0000 -1.0000 -0.0000
vn -0.0000 0.4542 -0.8909
vn -0.0000 1.0000 -0.0000
vn 1.0000 -0.0000 -0.0000
vn 1.0000 -0.0001 -0.0000
vn 1.0000 0.0001 -0.0000
vn -0.0000 0.8909 0.4542
vn -0.0000 -0.0000 -1.0000
vn -0.0000 -0.0000 1.0000
vn -0.0000 -0.0265 0.9996
vn -0.0000 -0.5845 0.8114
vn -0.0000 -1.0000 0.0032
s 0
f 1//1 2//1 3//1
f 3//1 2//1 4//1
f 5//2 6//2 7//2
f 7//2 6//2 3//2
f 7//2 3//2 4//2
f 8//2 9//2 6//2
f 6//2 9//2 10//2
f 6//2 10//2 3//2
f 10//2 9//2 11//2
f 11//2 9//2 12//2
f 11//2 12//2 13//2
f 13//2 12//2 14//2
f 13//2 15//2 11//2
f 16//3 17//3 12//3
f 12//3 17//3 14//3
f 18//4 7//4 2//4
f 2//5 7//5 4//5
f 19//6 11//6 20//6
f 20//7 11//7 15//7
f 5//8 7//8 21//8
f 21//8 7//8 22//8
f 22//8 7//8 23//8
f 22//8 23//8 24//8
f 7//8 18//8 23//8
f 24//8 25//8 22//8
f 10//9 11//9 26//9
f 26//9 11//9 27//9
f 27//9 11//9 28//9
f 27//9 28//9 29//9
f 11//9 19//9 28//9
f 29//9 30//9 27//9
f 13//10 14//10 31//10
f 31//10 14//10 32//10
f 32//10 14//10 33//10
f 32//10 33//10 34//10
f 14//10 17//10 33//10
f 34//10 35//10 32//10
f 36//11 37//11 16//11
f 16//11 37//11 18//11
f 16//12 18//12 2//12
f 38//11 39//11 36//11
f 36//11 39//11 40//11
f 36//11 40//11 41//11
f 41//11 40//11 42//11
f 42//11 40//11 43//11
f 44//11 33//11 38//11
f 38//11 33//11 45//11
f 38//11 45//11 46//11
f 45//11 33//11 47//11
f 47//11 33//11 17//11
f 47//11 17//11 20//11
f 20//11 17//11 19//11
f 19//11 17//11 1//11
f 19//11 1//11 48//11
f 48//13 1//13 49//13
f 17//11 16//11 1//11
f 1//11 16//11 2//11
f 19//11 48//11 28//11
f 28//11 48//11 45//11
f 28//11 45//11 47//11
f 46//11 50//11 38//11
f 38//11 50//11 51//11
f 38//11 51//11 52//11
f 53//11 54//11 50//11
f 50//11 54//11 51//11
f 55//11 56//11 52//11
f 52//11 56//11 39//11
f 52//11 39//11 38//11
f 41//11 57//11 36//11
f 36//11 57//11 58//11
f 36//11 58//11 59//11
f 60//11 61//11 57//11
f 57//11 61//11 58//11
f 59//11 37//11 36//11
f 37//11 23//11 18//11
f 22//4 25//4 62//4
f 62//4 25//4 63//4
f 27//7 30//7 64//7
f 64//7 30//7 65//7
f 66//11 27//11 67//11
f 67//11 27//11 31//11
f 67//11 31//11 32//11
f 68//11 69//11 66//11
f 66//11 69//11 26//11
f 66//11 26//11 27//11
f 21//11 22//11 69//11
f 69//11 22//11 70//11
f 69//11 70//11 26//11
f 22//11 62//11 70//11
f 27//11 64//11 31//11
f 70//1 62//1 71//1
f 71//1 62//1 63//1
f 67//3 32//3 72//3
f 72//3 32//3 35//3
f 9//8 67//8 12//8
f 12//8 67//8 36//8
f 12//8 36//8 16//8
f 9//8 66//8 67//8
f 72//8 73//8 67//8
f 67//8 73//8 36//8
f 10//14 70//14 3//14
f 3//14 70//14 49//14
f 3//14 49//14 1//14
f 10//14 26//14 70//14
f 71//14 74//14 70//14
f 70//14 74//14 49//14
f 24//2 75//2 25//2
f 25//2 75//2 72//2
f 25//2 72//2 63//2
f 63//2 72//2 71//2
f 71//2 72//2 35//2
f 71//2 35//2 30//2
f 30//2 35//2 65//2
f 65//2 35//2 76//2
f 76//2 35//2 34//2
f 76//2 34//2 77//2
f 77//2 34//2 78//2
f 77//2 78//2 79//2
f 79//2 78//2 80//2
f 80//2 78//2 81//2
f 80//2 81//2 82//2
f 82//2 81//2 83//2
f 72//2 75//2 73//2
f 73//2 75//2 84//2
f 73//2 84//2 85//2
f 73//2 85//2 86//2
f 86//2 85//2 87//2
f 86//2 87//2 88//2
f 86//2 89//2 73//2
f 73//2 89//2 90//2
f 73//2 90//2 91//2
f 89//2 92//2 90//2
f 90//2 92//2 93//2
f 94//2 95//2 91//2
f 91//2 95//2 78//2
f 91//2 78//2 73//2
f 94//2 96//2 95//2
f 95//2 81//2 78//2
f 76//2 77//2 29//2
f 29//2 77//2 97//2
f 29//2 97//2 30//2
f 30//2 97//2 71//2
f 97//2 74//2 71//2
f 34//2 98//2 78//2
f 40//15 39//15 90//15
f 90//15 39//15 91//15
f 43//8 40//8 93//8
f 93//8 40//8 90//8
f 42//15 43//15 92//15
f 92//15 43//15 93//15
f 41//10 42//10 89//10
f 89//10 42//10 92//10
f 57//15 41//15 86//15
f 86//15 41//15 89//15
f 60//8 57//8 88//8
f 88//8 57//8 86//8
f 61//15 60//15 87//15
f 87//15 60//15 88//15
f 58//10 61//10 85//10
f 85//10 61//10 87//10
f 59//15 58//15 84//15
f 84//15 58//15 85//15
f 37//10 59//10 75//10
f 75//10 59//10 84//10
f 23//16 37//16 24//16
f 24//16 37//16 75//16
f 6//16 5//16 69//16
f 69//16 5//16 21//16
f 8//8 6//8 68//8
f 68//8 6//8 69//8
f 9//16 8//16 66//16
f 66//16 8//16 68//16
f 38//17 36//17 78//17
f 78//17 36//17 73//17
f 44//10 38//10 98//10
f 98//10 38//10 78//10
f 33//16 44//16 34//16
f 34//16 44//16 98//16
f 13//16 64//16 15//16
f 15//16 64//16 47//16
f 15//16 47//16 20//16
f 13//16 31//16 64//16
f 65//16 76//16 64//16
f 64//16 76//16 47//16
f 28//10 47//10 29//10
f 29//10 47//10 76//10
f 48//18 49//18 97//18
f 97//18 49//18 74//18
f 45//8 48//8 77//8
f 77//8 48//8 97//8
f 46//19 45//19 79//19
f 79//19 45//19 77//19
f 50//15 46//15 80//15
f 80//15 46//15 79//15
f 53//8 50//8 82//8
f 82//8 50//8 80//8
f 54//15 53//15 83//15
f 83//15 53//15 82//15
f 51//10 54//10 81//10
f 81//10 54//10 83//10
f 52//15 51//15 95//15
f 95//15 51//15 81//15
f 55//8 52//8 96//8
f 96//8 52//8 95//8
f 56//15 55//15 94//15
f 94//15 55//15 96//15
f 39//10 56//10 91//10
f 91//10 56//10 94//10
