# Blender 5.1.1
# www.blender.org
mtllib astana_P_portadx.mtl
o astana_P_portadx
v 1.566980 0.155978 1.893977
v 1.567064 0.112979 1.893977
v 1.566980 0.155978 0.343997
v 1.567064 0.112979 0.343997
v 0.806991 0.154490 1.893977
v 0.806991 0.154490 0.343997
v 0.807076 0.111490 1.893977
v 0.807076 0.111490 0.343997
vn 1.0000 0.0020 -0.0000
vn -0.0020 1.0000 -0.0000
vn -1.0000 -0.0020 -0.0000
vn 0.0020 -1.0000 -0.0000
vn -0.0000 -0.0000 -1.0000
vn -0.0000 -0.0000 1.0000
s 0
f 1//1 2//1 3//1
f 3//1 2//1 4//1
f 5//2 1//2 6//2
f 6//2 1//2 3//2
f 7//3 5//3 8//3
f 8//3 5//3 6//3
f 2//4 7//4 4//4
f 4//4 7//4 8//4
f 8//5 6//5 4//5
f 4//5 6//5 3//5
f 7//6 2//6 5//6
f 5//6 2//6 1//6
