# Blender 5.1.1
# www.blender.org
mtllib astana_P_corpo.mtl
o astana_P_corpo
v 1.566980 0.135978 0.313997
v 1.566980 0.155978 0.313997
v 1.566980 0.135978 0.343997
v 1.566980 0.155978 0.343997
v 1.556980 0.135978 0.313997
v 1.556980 0.135978 0.343997
v 1.556980 0.155978 0.313997
v 1.556980 0.155978 0.343997
v 0.037000 0.135978 0.313997
v 0.037000 0.155978 0.313997
v 0.037000 0.135978 0.343997
v 0.037000 0.155978 0.343997
v 0.027000 0.135978 0.313997
v 0.027000 0.135978 0.343997
v 0.027000 0.155978 0.313997
v 0.027000 0.155978 0.343997
v 1.556980 0.155978 1.908977
v 1.566980 0.155978 1.908977
v 1.556980 0.155978 1.878977
v 1.566980 0.155978 1.878977
v 1.566980 0.135978 1.908977
v 1.566980 0.135978 1.878977
v 1.556980 0.135978 1.908977
v 1.556980 0.135978 1.878977
v 0.027000 0.155978 1.908977
v 0.037000 0.155978 1.908977
v 0.027000 0.155978 1.878977
v 0.037000 0.155978 1.878977
v 0.037000 0.135978 1.908977
v 0.037000 0.135978 1.878977
v 0.027000 0.135978 1.908977
v 0.027000 0.135978 1.878977
v 1.596980 0.092617 0.291689
v 1.596980 0.114925 0.291689
v -0.003000 0.092617 0.291689
v -0.003000 0.114925 0.291689
v 1.596980 0.092617 0.135538
v -0.003000 0.092617 0.135538
v 1.596980 0.237615 0.135538
v -0.003000 0.237615 0.135538
v 1.596980 0.237615 0.012847
v -0.003000 0.237615 0.012847
v 1.596980 0.259923 0.012847
v -0.003000 0.259923 0.012847
v 1.596980 0.259923 -0.005506
v -0.003000 0.259923 -0.005506
v 1.596980 0.271077 -0.005506
v -0.003000 0.271077 -0.005506
v 1.596980 0.271077 0.012847
v -0.003000 0.271077 0.012847
v 1.596980 0.293384 0.012847
v -0.003000 0.293384 0.012847
v 1.596980 0.293384 0.102076
v -0.003000 0.293384 0.102076
v 1.596980 0.951452 0.102076
v -0.003000 0.951452 0.102076
v 1.596980 0.951452 0.012847
v -0.003000 0.951452 0.012847
v 1.596980 0.990490 0.012847
v -0.003000 0.990490 0.012847
v 1.596980 0.990490 0.102076
v -0.003000 0.990490 0.102076
v 1.596980 0.996067 0.102076
v -0.003000 0.996067 0.102076
v 1.596980 0.996067 1.975899
v -0.003000 0.996067 1.975899
v 1.596980 0.170693 1.975899
v -0.003000 0.170693 1.975899
v 1.596980 0.170693 2.009796
v -0.003000 0.170693 2.009796
v 1.596980 0.106980 2.009796
v -0.003000 0.106980 2.009796
v 1.596980 0.106980 1.908977
v -0.003000 0.106980 1.908977
v 1.596980 0.181847 1.908977
v -0.003000 0.181847 1.908977
v 1.596980 0.187930 1.885450
v -0.003000 0.187930 1.885450
v 1.596980 0.237615 1.885450
v -0.003000 0.237615 1.885450
v 1.596980 0.271077 1.853208
v -0.003000 0.271077 1.853208
v 1.596980 0.309535 1.843443
v -0.003000 0.309535 1.843443
v 1.596980 0.290306 1.856704
v -0.003000 0.290306 1.856704
v 1.596980 0.315691 1.875516
v -0.003000 0.315691 1.875516
v 1.596980 0.337854 1.860232
v -0.003000 0.337854 1.860232
v 1.596980 0.873377 1.860232
v -0.003000 0.873377 1.860232
v 1.596980 0.873377 1.719364
v -0.003000 0.873377 1.719364
v 1.596980 0.293384 1.719364
v -0.003000 0.293384 1.719364
v 1.596980 0.293384 1.708210
v -0.003000 0.293384 1.708210
v 1.596980 0.326845 1.708210
v -0.003000 0.326845 1.708210
v 1.596980 0.326845 1.685903
v -0.003000 0.326845 1.685903
v 1.596980 0.393767 1.674749
v -0.003000 0.393767 1.674749
v 1.596980 0.739532 1.674749
v -0.003000 0.739532 1.674749
v 1.596980 0.855845 1.555812
v -0.003000 0.855845 1.555812
v 1.596980 0.873377 1.555812
v -0.003000 0.873377 1.555812
v 1.596980 0.873377 1.367568
v -0.003000 0.873377 1.367568
v 1.596980 0.293384 1.367568
v -0.003000 0.293384 1.367568
v 1.596980 0.293384 1.356868
v -0.003000 0.293384 1.356868
v 1.596980 0.325680 1.356868
v -0.003000 0.325680 1.356868
v 1.596980 0.325680 1.340138
v -0.003000 0.325680 1.340138
v 1.596980 0.377578 1.324235
v -0.003000 0.377578 1.324235
v 1.596980 0.750686 1.324235
v -0.003000 0.750686 1.324235
v 1.596980 0.851069 1.206293
v -0.003000 0.851069 1.206293
v 1.596980 0.873377 1.206293
v -0.003000 0.873377 1.206293
v 1.596980 0.873377 1.016680
v -0.003000 0.873377 1.016680
v 1.596980 0.293384 1.016680
v -0.003000 0.293384 1.016680
v 1.596980 0.293384 1.005527
v -0.003000 0.293384 1.005527
v 1.596980 0.326845 1.005527
v -0.003000 0.326845 1.005527
v 1.596980 0.326845 0.994373
v -0.003000 0.326845 0.994373
v 1.596980 0.382614 0.972066
v -0.003000 0.382614 0.972066
v 1.596980 0.739532 0.972066
v -0.003000 0.739532 0.972066
v 1.596980 0.851069 0.849375
v -0.003000 0.851069 0.849375
v 1.596980 0.873377 0.849375
v -0.003000 0.873377 0.849375
v 1.596980 0.873377 0.670915
v -0.003000 0.873377 0.670915
v 1.596980 0.293384 0.670915
v -0.003000 0.293384 0.670915
v 1.596980 0.293384 0.648608
v -0.003000 0.293384 0.648608
v 1.596980 0.326845 0.648608
v -0.003000 0.326845 0.648608
v 1.596980 0.326845 0.637454
v -0.003000 0.326845 0.637454
v 1.596980 0.393767 0.615147
v -0.003000 0.393767 0.615147
v 1.596980 0.750686 0.615147
v -0.003000 0.750686 0.615147
v 1.596980 0.851069 0.503610
v -0.003000 0.851069 0.503610
v 1.596980 0.873377 0.503610
v -0.003000 0.873377 0.503610
v 1.596980 0.873377 0.386496
v -0.003000 0.873377 0.386496
v 1.596980 0.339158 0.386496
v -0.003000 0.339158 0.386496
v 1.596980 0.326845 0.414380
v -0.003000 0.326845 0.414380
v 1.596980 0.293384 0.414380
v -0.003000 0.293384 0.414380
v 1.596980 0.248769 0.358612
v -0.003000 0.248769 0.358612
v 1.596980 0.181847 0.358612
v -0.003000 0.181847 0.358612
v 1.596980 0.181847 0.313997
v -0.003000 0.181847 0.313997
v 1.596980 0.114925 0.313997
v -0.003000 0.114925 0.313997
vn 1.0000 -0.0000 -0.0000
vn -0.0000 -1.0000 -0.0000
vn -1.0000 -0.0000 -0.0000
vn -0.0000 1.0000 -0.0000
vn -0.0000 -0.0000 1.0000
vn -0.0000 -0.0000 -1.0000
vn -0.0000 -0.9682 -0.2503
vn -0.0000 -0.6939 -0.7201
vn -0.0000 -0.2461 -0.9692
vn -0.0000 0.5677 0.8232
vn -0.0000 0.5954 -0.8034
vn -0.0000 -0.5677 -0.8232
vn -0.0000 -0.1644 -0.9864
vn -0.0000 -0.7149 -0.6992
vn -0.0000 -0.2930 -0.9561
vn -0.0000 -0.7615 -0.6481
vn -0.0000 -0.3714 -0.9285
vn -0.0000 -0.7399 -0.6727
vn -0.0000 -0.3162 -0.9487
vn -0.0000 -0.7433 -0.6690
vn -0.0000 0.9148 0.4040
vn -0.0000 -0.7809 0.6247
s 0
f 1//1 2//1 3//1
f 3//1 2//1 4//1
f 5//2 1//2 6//2
f 6//2 1//2 3//2
f 7//3 5//3 8//3
f 8//3 5//3 6//3
f 2//4 7//4 4//4
f 4//4 7//4 8//4
f 8//5 6//5 4//5
f 4//5 6//5 3//5
f 9//1 10//1 11//1
f 11//1 10//1 12//1
f 13//2 9//2 14//2
f 14//2 9//2 11//2
f 15//3 13//3 16//3
f 16//3 13//3 14//3
f 10//4 15//4 12//4
f 12//4 15//4 16//4
f 16//5 14//5 12//5
f 12//5 14//5 11//5
f 17//4 18//4 19//4
f 19//4 18//4 20//4
f 18//1 21//1 20//1
f 20//1 21//1 22//1
f 21//2 23//2 22//2
f 22//2 23//2 24//2
f 23//3 17//3 24//3
f 24//3 17//3 19//3
f 20//6 22//6 19//6
f 19//6 22//6 24//6
f 25//4 26//4 27//4
f 27//4 26//4 28//4
f 26//1 29//1 28//1
f 28//1 29//1 30//1
f 29//2 31//2 30//2
f 30//2 31//2 32//2
f 31//3 25//3 32//3
f 32//3 25//3 27//3
f 28//6 30//6 27//6
f 27//6 30//6 32//6
f 33//5 34//5 35//5
f 35//5 34//5 36//5
f 37//2 33//2 38//2
f 38//2 33//2 35//2
f 39//6 37//6 40//6
f 40//6 37//6 38//6
f 41//2 39//2 42//2
f 42//2 39//2 40//2
f 43//6 41//6 44//6
f 44//6 41//6 42//6
f 45//2 43//2 46//2
f 46//2 43//2 44//2
f 47//6 45//6 48//6
f 48//6 45//6 46//6
f 49//4 47//4 50//4
f 50//4 47//4 48//4
f 51//6 49//6 52//6
f 52//6 49//6 50//6
f 53//4 51//4 54//4
f 54//4 51//4 52//4
f 55//6 53//6 56//6
f 56//6 53//6 54//6
f 57//2 55//2 58//2
f 58//2 55//2 56//2
f 59//6 57//6 60//6
f 60//6 57//6 58//6
f 61//4 59//4 62//4
f 62//4 59//4 60//4
f 63//6 61//6 64//6
f 64//6 61//6 62//6
f 65//4 63//4 66//4
f 66//4 63//4 64//4
f 67//5 65//5 68//5
f 68//5 65//5 66//5
f 69//4 67//4 70//4
f 70//4 67//4 68//4
f 71//5 69//5 72//5
f 72//5 69//5 70//5
f 73//2 71//2 74//2
f 74//2 71//2 72//2
f 18//6 75//6 21//6
f 21//6 75//6 73//6
f 21//6 73//6 23//6
f 23//6 73//6 74//6
f 23//6 74//6 29//6
f 29//6 74//6 31//6
f 31//6 74//6 76//6
f 31//6 76//6 25//6
f 25//6 76//6 26//6
f 26//6 76//6 17//6
f 26//6 17//6 23//6
f 18//6 17//6 75//6
f 75//6 17//6 76//6
f 29//6 26//6 23//6
f 77//7 75//7 78//7
f 78//7 75//7 76//7
f 79//6 77//6 80//6
f 80//6 77//6 78//6
f 81//8 79//8 82//8
f 82//8 79//8 80//8
f 83//9 81//9 84//9
f 84//9 81//9 82//9
f 85//10 83//10 86//10
f 86//10 83//10 84//10
f 87//11 85//11 88//11
f 88//11 85//11 86//11
f 89//12 87//12 90//12
f 90//12 87//12 88//12
f 91//6 89//6 92//6
f 92//6 89//6 90//6
f 93//2 91//2 94//2
f 94//2 91//2 92//2
f 95//5 93//5 96//5
f 96//5 93//5 94//5
f 97//2 95//2 98//2
f 98//2 95//2 96//2
f 99//6 97//6 100//6
f 100//6 97//6 98//6
f 101//2 99//2 102//2
f 102//2 99//2 100//2
f 103//13 101//13 104//13
f 104//13 101//13 102//13
f 105//6 103//6 106//6
f 106//6 103//6 104//6
f 107//14 105//14 108//14
f 108//14 105//14 106//14
f 109//6 107//6 110//6
f 110//6 107//6 108//6
f 111//2 109//2 112//2
f 112//2 109//2 110//2
f 113//5 111//5 114//5
f 114//5 111//5 112//5
f 115//2 113//2 116//2
f 116//2 113//2 114//2
f 117//6 115//6 118//6
f 118//6 115//6 116//6
f 119//2 117//2 120//2
f 120//2 117//2 118//2
f 121//15 119//15 122//15
f 122//15 119//15 120//15
f 123//6 121//6 124//6
f 124//6 121//6 122//6
f 125//16 123//16 126//16
f 126//16 123//16 124//16
f 127//6 125//6 128//6
f 128//6 125//6 126//6
f 129//2 127//2 130//2
f 130//2 127//2 128//2
f 131//5 129//5 132//5
f 132//5 129//5 130//5
f 133//2 131//2 134//2
f 134//2 131//2 132//2
f 135//6 133//6 136//6
f 136//6 133//6 134//6
f 137//2 135//2 138//2
f 138//2 135//2 136//2
f 139//17 137//17 140//17
f 140//17 137//17 138//17
f 141//6 139//6 142//6
f 142//6 139//6 140//6
f 143//18 141//18 144//18
f 144//18 141//18 142//18
f 145//6 143//6 146//6
f 146//6 143//6 144//6
f 147//2 145//2 148//2
f 148//2 145//2 146//2
f 149//5 147//5 150//5
f 150//5 147//5 148//5
f 151//2 149//2 152//2
f 152//2 149//2 150//2
f 153//6 151//6 154//6
f 154//6 151//6 152//6
f 155//2 153//2 156//2
f 156//2 153//2 154//2
f 157//19 155//19 158//19
f 158//19 155//19 156//19
f 159//6 157//6 160//6
f 160//6 157//6 158//6
f 161//20 159//20 162//20
f 162//20 159//20 160//20
f 163//6 161//6 164//6
f 164//6 161//6 162//6
f 165//2 163//2 166//2
f 166//2 163//2 164//2
f 167//5 165//5 168//5
f 168//5 165//5 166//5
f 169//21 167//21 170//21
f 170//21 167//21 168//21
f 171//5 169//5 172//5
f 172//5 169//5 170//5
f 173//22 171//22 174//22
f 174//22 171//22 172//22
f 175//5 173//5 176//5
f 176//5 173//5 174//5
f 177//2 175//2 178//2
f 178//2 175//2 176//2
f 1//5 179//5 2//5
f 2//5 179//5 177//5
f 2//5 177//5 7//5
f 7//5 177//5 178//5
f 7//5 178//5 10//5
f 10//5 178//5 15//5
f 15//5 178//5 180//5
f 15//5 180//5 13//5
f 13//5 180//5 9//5
f 9//5 180//5 5//5
f 9//5 5//5 7//5
f 1//5 5//5 179//5
f 179//5 5//5 180//5
f 10//5 9//5 7//5
f 34//2 179//2 36//2
f 36//2 179//2 180//2
f 180//3 178//3 36//3
f 36//3 178//3 38//3
f 36//3 38//3 35//3
f 176//3 174//3 178//3
f 178//3 174//3 40//3
f 178//3 40//3 38//3
f 40//3 174//3 54//3
f 54//3 174//3 172//3
f 54//3 172//3 168//3
f 168//3 172//3 170//3
f 168//3 166//3 54//3
f 54//3 166//3 56//3
f 56//3 166//3 62//3
f 56//3 62//3 60//3
f 62//3 166//3 64//3
f 64//3 166//3 164//3
f 64//3 164//3 148//3
f 148//3 164//3 162//3
f 148//3 162//3 160//3
f 148//3 160//3 150//3
f 150//3 160//3 158//3
f 150//3 158//3 154//3
f 154//3 158//3 156//3
f 154//3 152//3 150//3
f 148//3 146//3 64//3
f 64//3 146//3 130//3
f 64//3 130//3 66//3
f 66//3 130//3 128//3
f 66//3 128//3 112//3
f 112//3 128//3 126//3
f 112//3 126//3 124//3
f 146//3 144//3 130//3
f 130//3 144//3 142//3
f 130//3 142//3 136//3
f 136//3 142//3 140//3
f 136//3 140//3 138//3
f 134//3 132//3 136//3
f 136//3 132//3 130//3
f 112//3 124//3 118//3
f 118//3 124//3 122//3
f 118//3 122//3 120//3
f 116//3 114//3 118//3
f 118//3 114//3 112//3
f 112//3 110//3 66//3
f 66//3 110//3 94//3
f 66//3 94//3 92//3
f 110//3 108//3 94//3
f 94//3 108//3 106//3
f 94//3 106//3 100//3
f 100//3 106//3 104//3
f 100//3 104//3 102//3
f 98//3 96//3 100//3
f 100//3 96//3 94//3
f 92//3 90//3 66//3
f 66//3 90//3 88//3
f 66//3 88//3 68//3
f 68//3 88//3 80//3
f 68//3 80//3 76//3
f 76//3 80//3 78//3
f 88//3 86//3 80//3
f 80//3 86//3 82//3
f 82//3 86//3 84//3
f 76//3 74//3 68//3
f 68//3 74//3 72//3
f 68//3 72//3 70//3
f 60//3 58//3 56//3
f 52//3 50//3 54//3
f 54//3 50//3 44//3
f 54//3 44//3 40//3
f 40//3 44//3 42//3
f 50//3 48//3 44//3
f 44//3 48//3 46//3
f 179//1 34//1 177//1
f 177//1 34//1 37//1
f 177//1 37//1 39//1
f 34//1 33//1 37//1
f 41//1 43//1 39//1
f 39//1 43//1 53//1
f 39//1 53//1 173//1
f 173//1 53//1 171//1
f 171//1 53//1 167//1
f 171//1 167//1 169//1
f 45//1 47//1 43//1
f 43//1 47//1 49//1
f 43//1 49//1 53//1
f 53//1 49//1 51//1
f 167//1 53//1 165//1
f 165//1 53//1 55//1
f 165//1 55//1 61//1
f 61//1 55//1 59//1
f 59//1 55//1 57//1
f 61//1 63//1 165//1
f 165//1 63//1 163//1
f 163//1 63//1 147//1
f 163//1 147//1 161//1
f 161//1 147//1 159//1
f 159//1 147//1 149//1
f 159//1 149//1 157//1
f 157//1 149//1 153//1
f 157//1 153//1 155//1
f 65//1 129//1 63//1
f 63//1 129//1 145//1
f 63//1 145//1 147//1
f 67//1 87//1 65//1
f 65//1 87//1 89//1
f 65//1 89//1 91//1
f 69//1 71//1 67//1
f 67//1 71//1 73//1
f 67//1 73//1 75//1
f 77//1 79//1 75//1
f 75//1 79//1 67//1
f 81//1 85//1 79//1
f 79//1 85//1 87//1
f 79//1 87//1 67//1
f 81//1 83//1 85//1
f 91//1 93//1 65//1
f 65//1 93//1 109//1
f 65//1 109//1 111//1
f 95//1 99//1 93//1
f 93//1 99//1 105//1
f 93//1 105//1 107//1
f 95//1 97//1 99//1
f 101//1 103//1 99//1
f 99//1 103//1 105//1
f 107//1 109//1 93//1
f 113//1 117//1 111//1
f 111//1 117//1 123//1
f 111//1 123//1 125//1
f 113//1 115//1 117//1
f 119//1 121//1 117//1
f 117//1 121//1 123//1
f 125//1 127//1 111//1
f 111//1 127//1 65//1
f 127//1 129//1 65//1
f 131//1 135//1 129//1
f 129//1 135//1 141//1
f 129//1 141//1 143//1
f 131//1 133//1 135//1
f 137//1 139//1 135//1
f 135//1 139//1 141//1
f 143//1 145//1 129//1
f 149//1 151//1 153//1
f 175//1 177//1 173//1
f 173//1 177//1 39//1
