# Blender 5.1.1
# www.blender.org
mtllib corpo.mtl
o corpo
v 0.099999 0.154984 0.099999
v 2.127337 0.154984 0.099999
v 0.099999 3.174960 0.099999
v 2.127337 3.174960 0.099999
v 0.099999 3.174960 2.119982
v 2.127337 3.174960 2.119982
v 2.127337 0.154984 2.119982
v 0.683695 0.154984 0.117105
v 1.548052 0.154984 0.117105
v 1.548052 0.154984 2.045420
v 0.683695 0.154984 2.045420
v 0.099999 0.154984 2.119982
v 1.548052 0.154998 0.117105
v 1.548052 0.154998 2.045420
v 0.683695 0.154998 0.117105
v 0.683695 0.154998 2.045420
v 1.600137 0.054999 0.212536
v 1.614684 0.054999 0.227082
v 1.600137 0.000000 0.212536
v 1.614684 0.000000 0.227082
v 1.581368 0.054999 0.212536
v 1.581368 0.000000 0.212536
v 1.566821 0.054999 0.227082
v 1.566821 0.000000 0.227082
v 1.566821 0.054999 0.445283
v 1.566821 0.000000 0.445283
v 1.548052 0.054999 0.445283
v 1.548052 0.000000 0.445283
v 1.548052 0.054999 0.463162
v 1.548052 0.000000 0.463162
v 1.614684 0.054999 0.463162
v 1.614684 0.000000 0.463162
v 1.548052 0.054999 1.947252
v 1.548052 0.054999 1.921773
v 1.548052 0.000000 1.947252
v 1.548052 0.000000 1.921773
v 1.614684 0.054999 1.947252
v 1.614684 0.000000 1.947252
v 1.614684 0.054999 1.710846
v 1.614684 0.000000 1.710846
v 1.600137 0.054999 1.696299
v 1.600137 0.000000 1.696299
v 1.585590 0.054999 1.696299
v 1.585590 0.000000 1.696299
v 1.571044 0.054999 1.710846
v 1.571044 0.000000 1.710846
v 1.571044 0.054999 1.921773
v 1.571044 0.000000 1.921773
v 2.227336 3.274959 2.219980
v 0.000000 3.274959 2.219980
v 2.227336 0.054999 2.219980
v 0.000000 0.054999 2.219980
v 0.000000 3.274959 0.000000
v 2.227336 3.274959 0.000000
v 2.227336 0.054999 0.000000
v 0.000000 0.054999 0.000000
vn -0.0000 -0.0000 1.0000
vn -0.0000 -1.0000 -0.0000
vn -1.0000 -0.0000 -0.0000
vn -0.0000 1.0000 -0.0000
vn 1.0000 -0.0000 -0.0000
vn -0.0000 -0.0000 -1.0000
vn 0.7071 -0.0000 -0.7071
vn -0.7071 -0.0000 -0.7071
s 0
f 1//1 2//1 3//1
f 3//1 2//1 4//1
f 3//2 4//2 5//2
f 5//2 4//2 6//2
f 4//3 2//3 6//3
f 6//3 2//3 7//3
f 1//4 8//4 2//4
f 2//4 8//4 9//4
f 2//4 9//4 10//4
f 8//4 1//4 11//4
f 11//4 1//4 12//4
f 11//4 12//4 7//4
f 11//4 7//4 10//4
f 10//4 7//4 2//4
f 9//5 13//5 10//5
f 10//5 13//5 14//5
f 9//6 8//6 13//6
f 13//6 8//6 15//6
f 16//4 14//4 15//4
f 15//4 14//4 13//4
f 11//3 16//3 8//3
f 8//3 16//3 15//3
f 11//1 10//1 16//1
f 16//1 10//1 14//1
f 7//6 12//6 6//6
f 6//6 12//6 5//6
f 1//5 3//5 12//5
f 12//5 3//5 5//5
f 17//7 18//7 19//7
f 19//7 18//7 20//7
f 21//6 17//6 22//6
f 22//6 17//6 19//6
f 23//8 21//8 24//8
f 24//8 21//8 22//8
f 25//3 23//3 26//3
f 26//3 23//3 24//3
f 27//6 25//6 28//6
f 28//6 25//6 26//6
f 29//3 27//3 30//3
f 30//3 27//3 28//3
f 31//1 29//1 32//1
f 32//1 29//1 30//1
f 18//5 31//5 20//5
f 20//5 31//5 32//5
f 20//2 32//2 19//2
f 19//2 32//2 26//2
f 19//2 26//2 22//2
f 22//2 26//2 24//2
f 32//2 30//2 26//2
f 26//2 30//2 28//2
f 33//3 34//3 35//3
f 35//3 34//3 36//3
f 37//1 33//1 38//1
f 38//1 33//1 35//1
f 39//5 37//5 40//5
f 40//5 37//5 38//5
f 41//7 39//7 42//7
f 42//7 39//7 40//7
f 43//6 41//6 44//6
f 44//6 41//6 42//6
f 45//8 43//8 46//8
f 46//8 43//8 44//8
f 47//3 45//3 48//3
f 48//3 45//3 46//3
f 34//6 47//6 36//6
f 36//6 47//6 48//6
f 36//2 48//2 35//2
f 35//2 48//2 38//2
f 38//2 48//2 42//2
f 38//2 42//2 40//2
f 46//2 44//2 48//2
f 48//2 44//2 42//2
f 49//1 50//1 51//1
f 51//1 50//1 52//1
f 50//4 49//4 53//4
f 53//4 49//4 54//4
f 55//6 56//6 54//6
f 54//6 56//6 53//6
f 49//5 51//5 54//5
f 54//5 51//5 55//5
f 31//2 18//2 55//2
f 55//2 18//2 17//2
f 55//2 17//2 21//2
f 55//2 21//2 56//2
f 56//2 21//2 23//2
f 56//2 23//2 27//2
f 27//2 23//2 25//2
f 27//2 29//2 56//2
f 56//2 29//2 52//2
f 52//2 29//2 45//2
f 52//2 45//2 34//2
f 34//2 45//2 47//2
f 45//2 29//2 43//2
f 43//2 29//2 31//2
f 43//2 31//2 41//2
f 41//2 31//2 39//2
f 39//2 31//2 55//2
f 39//2 55//2 51//2
f 34//2 33//2 52//2
f 52//2 33//2 51//2
f 51//2 33//2 37//2
f 51//2 37//2 39//2
f 52//3 50//3 56//3
f 56//3 50//3 53//3
