# Blender 5.1.1
# www.blender.org
mtllib Osaka_3p_portasx.mtl
o Osaka_3p_portasx
v 0.650324 0.002630 1.898888
v 0.650332 -0.012370 1.898888
v 0.650324 0.002630 0.358907
v 0.650332 -0.012370 0.358907
v 0.036891 0.000307 1.898888
v 0.040332 0.002294 0.358907
v 0.036899 -0.014693 1.898888
v 0.040340 -0.012706 0.358907
vn 1.0000 0.0005 -0.0000
vn -0.0038 1.0000 0.0013
vn -0.0006 1.0000 -0.0000
vn -1.0000 -0.0005 -0.0022
vn 0.0038 -1.0000 -0.0000
vn 0.0006 -1.0000 -0.0013
vn -0.0000 -0.0000 1.0000
vn -0.0000 -0.0000 -1.0000
s 0
f 1//1 2//1 3//1
f 3//1 2//1 4//1
f 5//2 1//2 6//2
f 6//3 1//3 3//3
f 7//4 5//4 8//4
f 8//4 5//4 6//4
f 2//5 7//5 4//5
f 4//6 7//6 8//6
f 2//7 1//7 7//7
f 7//7 1//7 5//7
f 4//8 8//8 3//8
f 3//8 8//8 6//8
