# Blender 5.1.1
# www.blender.org
mtllib efficold_corpo.mtl
o efficold_corpo
v 0.000000 0.006513 0.000000
v 0.000000 0.661505 0.000000
v 0.582992 0.006513 0.000000
v 0.582992 0.661505 0.000000
v 0.000000 0.006513 0.027358
v 0.582992 0.006513 0.027358
v 0.000000 0.411508 0.027358
v 0.582992 0.411508 0.027358
v 0.000000 0.411508 0.345430
v 0.582992 0.411508 0.345430
v 0.000000 0.056220 0.299442
v 0.582992 0.056220 0.299442
v 0.000000 0.000000 0.733782
v 0.582992 0.000000 0.733782
v 0.000000 0.511507 0.799990
v 0.582992 0.511507 0.799990
v 0.000000 0.511507 0.869989
v 0.582992 0.511507 0.869989
v 0.000000 0.661505 0.869989
v 0.582992 0.661505 0.869989
vn -0.0000 -0.0000 -1.0000
vn -0.0000 -1.0000 -0.0000
vn -0.0000 -0.0000 1.0000
vn -0.0000 0.1284 -0.9917
vn -0.0000 -0.9917 -0.1284
vn -0.0000 -0.1284 0.9917
vn -0.0000 1.0000 -0.0000
vn 1.0000 -0.0000 -0.0000
vn -1.0000 -0.0000 -0.0000
s 0
f 1//1 2//1 3//1
f 3//1 2//1 4//1
f 5//2 1//2 6//2
f 6//2 1//2 3//2
f 7//3 5//3 8//3
f 8//3 5//3 6//3
f 9//2 7//2 10//2
f 10//2 7//2 8//2
f 11//4 9//4 12//4
f 12//4 9//4 10//4
f 13//5 11//5 14//5
f 14//5 11//5 12//5
f 15//6 13//6 16//6
f 16//6 13//6 14//6
f 17//2 15//2 18//2
f 18//2 15//2 16//2
f 19//3 17//3 20//3
f 20//3 17//3 18//3
f 2//7 19//7 4//7
f 4//7 19//7 20//7
f 20//8 10//8 4//8
f 4//8 10//8 8//8
f 4//8 8//8 3//8
f 3//8 8//8 6//8
f 18//8 16//8 20//8
f 20//8 16//8 10//8
f 16//8 14//8 10//8
f 10//8 14//8 12//8
f 2//9 9//9 19//9
f 19//9 9//9 15//9
f 19//9 15//9 17//9
f 9//9 2//9 7//9
f 7//9 2//9 1//9
f 7//9 1//9 5//9
f 11//9 13//9 9//9
f 9//9 13//9 15//9
