# Blender 5.1.1
# www.blender.org
mtllib astana_P_portasx.mtl
o astana_P_portasx
v 0.030038 0.000000 0.331150
v 0.790028 0.000674 0.331150
v 0.030038 0.000000 1.881130
v 0.790028 0.000674 1.881130
v 0.030000 0.042999 0.331150
v 0.030000 0.042999 1.881130
v 0.789990 0.043673 0.331150
v 0.789990 0.043673 1.881130
vn 0.0009 -1.0000 -0.0000
vn -1.0000 -0.0009 -0.0000
vn -0.0009 1.0000 -0.0000
vn 1.0000 0.0009 -0.0000
vn -0.0000 -0.0000 -1.0000
vn -0.0000 -0.0000 1.0000
s 0
f 1//1 2//1 3//1
f 3//1 2//1 4//1
f 5//2 1//2 6//2
f 6//2 1//2 3//2
f 7//3 5//3 8//3
f 8//3 5//3 6//3
f 2//4 7//4 4//4
f 4//4 7//4 8//4
f 7//5 2//5 5//5
f 5//5 2//5 1//5
f 4//6 8//6 3//6
f 3//6 8//6 6//6
