# Blender 5.1.1
# www.blender.org
mtllib athen_xl_portasx.mtl
o athen_xl_portasx
v 1.259999 0.069552 0.812207
v 1.259999 0.069337 0.835899
v 0.010000 0.069552 0.812207
v 0.010000 0.069337 0.835899
v 1.259999 1.407908 0.963958
v 1.259999 1.407877 0.964034
v 0.010000 1.407908 0.963958
v 0.010000 1.407877 0.964034
v 0.010000 1.407834 0.964104
v 1.259999 1.407811 0.964135
v 0.010000 1.407744 0.964208
v 1.259999 1.407756 0.964195
v 1.259999 1.407527 0.964370
v 0.010000 1.407478 0.964398
v 1.259999 1.406951 0.964623
v 0.010000 1.406639 0.964717
v 1.259999 1.405507 0.964953
v 0.010000 1.404886 0.965042
v 1.259999 1.402092 0.965279
v 0.010000 1.400712 0.965337
v 1.259999 1.392519 0.965340
v 0.010000 1.391119 0.965305
v 0.010000 1.369688 0.964218
v 1.259999 1.365587 0.963943
v 0.010000 1.320627 0.960229
v 1.259999 1.326170 0.960738
v 1.259999 1.274502 0.955789
v 0.010000 1.234837 0.951684
v 1.259999 1.210961 0.949162
v 0.010000 1.139879 0.941353
v 1.259999 1.135925 0.940923
v 0.010000 1.048579 0.931000
v 1.259999 1.049774 0.931138
v 1.259999 0.953029 0.919891
v 0.010000 0.895649 0.913126
v 1.259999 0.847732 0.907436
v 0.010000 0.730995 0.893445
v 1.259999 0.736301 0.894085
v 1.259999 0.504371 0.865913
v 0.010000 0.385220 0.851293
v 1.259999 0.275901 0.837810
v 0.010000 0.219718 0.830858
v 1.259999 0.168795 0.824544
v 0.010000 0.142230 0.821246
v 1.259999 1.407908 0.981961
v 0.010000 1.407908 0.981961
vn -0.0000 -1.0000 -0.0091
vn -0.0000 -0.9263 -0.3768
vn -0.0000 -0.9254 -0.3789
vn -0.0000 -0.8535 -0.5211
vn -0.0000 -0.8367 -0.5477
vn -0.0000 -0.7524 -0.6587
vn -0.0000 -0.7417 -0.6707
vn -0.0000 -0.6051 -0.7961
vn -0.0000 -0.5819 -0.8132
vn -0.0000 -0.4026 -0.9154
vn -0.0000 -0.3556 -0.9346
vn -0.0000 -0.2229 -0.9748
vn -0.0000 -0.1823 -0.9832
vn -0.0000 -0.0949 -0.9955
vn -0.0000 -0.0704 -0.9975
vn -0.0000 -0.0064 -1.0000
vn -0.0000 0.0033 -1.0000
vn -0.0000 0.0507 -0.9987
vn -0.0000 0.0518 -0.9987
vn -0.0000 0.0810 -0.9967
vn -0.0000 0.0954 -0.9954
vn 0.0001 0.0991 -0.9951
vn -0.0000 0.1037 -0.9946
vn 0.0001 0.1082 -0.9941
vn -0.0000 0.1091 -0.9940
vn -0.0000 0.1127 -0.9936
vn -0.0000 0.1128 -0.9936
vn -0.0000 0.1155 -0.9933
vn -0.0000 0.1161 -0.9932
vn -0.0000 0.1175 -0.9931
vn -0.0000 0.1187 -0.9929
vn -0.0000 0.1190 -0.9929
vn -0.0000 0.1206 -0.9927
vn 0.0001 0.1210 -0.9927
vn -0.0000 0.1221 -0.9925
vn -0.0000 0.1225 -0.9925
vn -0.0000 0.1229 -0.9924
vn -0.0000 0.1231 -0.9924
vn -0.0000 0.1234 -0.9924
vn -0.0000 1.0000 -0.0000
vn -0.0000 -0.1085 0.9941
vn -1.0000 -0.0000 -0.0000
vn 1.0000 -0.0000 -0.0000
vn 1.0000 0.0001 -0.0000
vn 1.0000 -0.0011 -0.0000
vn 1.0000 0.0014 -0.0000
s 0
f 1//1 2//1 3//1
f 3//1 2//1 4//1
f 5//2 6//2 7//2
f 7//3 6//3 8//3
f 8//4 6//4 9//4
f 9//5 6//5 10//5
f 9//6 10//6 11//6
f 11//7 10//7 12//7
f 11//8 12//8 13//8
f 11//9 13//9 14//9
f 14//10 13//10 15//10
f 14//11 15//11 16//11
f 16//12 15//12 17//12
f 16//13 17//13 18//13
f 18//14 17//14 19//14
f 18//15 19//15 20//15
f 20//16 19//16 21//16
f 20//17 21//17 22//17
f 22//18 21//18 23//18
f 23//19 21//19 24//19
f 23//20 24//20 25//20
f 25//20 24//20 26//20
f 25//21 26//21 27//21
f 25//22 27//22 28//22
f 28//23 27//23 29//23
f 28//24 29//24 30//24
f 30//25 29//25 31//25
f 30//26 31//26 32//26
f 32//27 31//27 33//27
f 32//28 33//28 34//28
f 32//29 34//29 35//29
f 35//30 34//30 36//30
f 35//31 36//31 37//31
f 37//32 36//32 38//32
f 37//33 38//33 39//33
f 37//34 39//34 40//34
f 40//35 39//35 41//35
f 40//36 41//36 42//36
f 42//37 41//37 43//37
f 42//38 43//38 44//38
f 44//39 43//39 1//39
f 44//39 1//39 3//39
f 45//40 5//40 46//40
f 46//40 5//40 7//40
f 2//41 45//41 4//41
f 4//41 45//41 46//41
f 46//42 35//42 4//42
f 4//42 35//42 37//42
f 4//42 37//42 40//42
f 7//42 8//42 46//42
f 46//42 8//42 9//42
f 46//42 9//42 11//42
f 11//42 14//42 46//42
f 46//42 14//42 16//42
f 46//42 16//42 18//42
f 18//42 20//42 46//42
f 46//42 20//42 22//42
f 46//42 22//42 23//42
f 23//42 25//42 46//42
f 46//42 25//42 28//42
f 46//42 28//42 30//42
f 30//42 32//42 46//42
f 46//42 32//42 35//42
f 40//42 42//42 4//42
f 4//42 42//42 44//42
f 4//42 44//42 3//42
f 2//43 34//43 45//43
f 45//43 34//43 33//43
f 45//43 33//43 31//43
f 1//43 43//43 2//43
f 2//43 43//43 41//43
f 2//43 41//43 39//43
f 39//43 38//43 2//43
f 2//43 38//43 36//43
f 2//43 36//43 34//43
f 31//43 29//43 45//43
f 45//43 29//43 27//43
f 45//43 27//43 26//43
f 26//43 24//43 45//43
f 45//43 24//43 21//43
f 45//43 21//43 19//43
f 19//43 17//43 45//43
f 45//43 17//43 15//43
f 45//44 15//44 13//44
f 13//43 12//43 45//43
f 45//45 12//45 10//45
f 45//46 10//46 6//46
f 6//43 5//43 45//43
