# Blender 5.1.1
# www.blender.org
mtllib athen_xl_portadx.mtl
o athen_xl_portadx
v 2.489998 0.050642 0.854073
v 2.489998 1.434901 0.997183
v 1.249999 0.050642 0.854073
v 1.249999 1.434901 0.997183
v 2.489998 0.050642 0.843831
v 1.249999 0.050642 0.843831
v 1.249999 1.434901 0.984723
v 2.489998 1.434901 0.984723
v 1.249999 1.434869 0.984801
v 2.489998 1.434869 0.984802
v 1.249999 1.434819 0.984871
v 2.489998 1.434819 0.984871
v 1.249999 1.434729 0.984954
v 2.489998 1.434710 0.984969
v 1.249999 1.434661 0.985002
v 2.489998 1.434638 0.985016
v 1.249999 1.434281 0.985177
v 2.489998 1.434175 0.985213
v 1.249999 1.433270 0.985421
v 2.489998 1.433105 0.985448
v 1.249999 1.430603 0.985689
v 2.489998 1.430601 0.985689
v 1.249999 1.424146 0.985795
v 2.489998 1.424009 0.985794
v 1.249999 1.409976 0.985321
v 2.489998 1.404933 0.985057
v 1.249999 1.371013 0.982734
v 2.489998 1.356335 0.981566
v 1.249999 1.280843 0.974882
v 2.489998 1.265548 0.973444
v 1.249999 1.100453 0.957083
v 2.489998 1.089350 0.955948
v 1.249999 1.008793 0.947620
v 2.489998 0.917009 0.937989
v 1.249999 0.922385 0.938557
v 1.249999 0.744632 0.919625
v 2.489998 0.737710 0.918882
v 2.489998 0.557153 0.899380
v 1.249999 0.372231 0.879218
v 2.489998 0.470693 0.889973
v 2.489998 0.388197 0.880965
v 1.249999 0.283038 0.869441
v 2.489998 0.223358 0.862882
v 1.249999 0.197953 0.860086
v 2.489998 0.141116 0.853823
v 1.249999 0.159602 0.855862
v 1.249999 0.125220 0.852071
v 2.489998 0.102010 0.849508
v 1.249999 0.090382 0.848224
v 2.489998 0.080797 0.847165
vn -0.0000 -0.1028 0.9947
vn -0.0000 -1.0000 -0.0000
vn -0.0000 -0.9290 -0.3700
vn -0.0000 -0.9274 -0.3740
vn -0.0000 -0.8138 -0.5811
vn -0.0000 -0.8129 -0.5824
vn -0.0000 -0.6786 -0.7345
vn -0.0000 -0.6648 -0.7470
vn -0.0000 -0.5708 -0.8211
vn -0.0000 -0.5498 -0.8353
vn -0.0000 -0.4194 -0.9078
vn -0.0000 -0.3915 -0.9202
vn -0.0000 -0.2338 -0.9723
vn -0.0000 -0.2145 -0.9767
vn -0.0000 -0.1003 -0.9950
vn -0.0000 -0.0961 -0.9954
vn -0.0000 -0.0164 -0.9999
vn -0.0000 -0.0159 -0.9999
vn -0.0000 0.0335 -0.9994
vn -0.0001 0.0386 -0.9993
vn 0.0001 0.0663 -0.9978
vn -0.0001 0.0716 -0.9974
vn 0.0001 0.0868 -0.9962
vn -0.0001 0.0891 -0.9960
vn 0.0001 0.0982 -0.9952
vn -0.0000 0.0988 -0.9951
vn -0.0000 0.1027 -0.9947
vn -0.0001 0.1036 -0.9946
vn -0.0000 0.1043 -0.9945
vn -0.0000 0.1059 -0.9944
vn -0.0000 0.1060 -0.9944
vn -0.0000 0.1074 -0.9942
vn 0.0001 0.1079 -0.9942
vn -0.0000 0.1082 -0.9941
vn -0.0000 0.1086 -0.9941
vn -0.0000 0.1090 -0.9940
vn -0.0000 0.1093 -0.9940
vn -0.0000 0.1095 -0.9940
vn -0.0000 0.1096 -0.9940
vn -0.0000 0.1097 -0.9940
vn -0.0000 0.1098 -0.9940
vn -0.0000 0.1099 -0.9939
vn -0.0000 1.0000 -0.0000
vn -1.0000 -0.0000 -0.0000
vn -1.0000 0.0003 -0.0000
vn -1.0000 0.0002 -0.0000
vn -1.0000 -0.0004 -0.0000
vn -1.0000 0.0001 -0.0000
vn 1.0000 -0.0000 -0.0000
vn 1.0000 -0.0035 -0.0000
vn 1.0000 0.0054 -0.0000
vn 1.0000 0.0001 -0.0000
s 0
f 1//1 2//1 3//1
f 3//1 2//1 4//1
f 5//2 1//2 6//2
f 6//2 1//2 3//2
f 7//3 8//3 9//3
f 9//4 8//4 10//4
f 9//5 10//5 11//5
f 11//6 10//6 12//6
f 11//7 12//7 13//7
f 13//8 12//8 14//8
f 13//9 14//9 15//9
f 15//10 14//10 16//10
f 15//11 16//11 17//11
f 17//12 16//12 18//12
f 17//13 18//13 19//13
f 19//14 18//14 20//14
f 19//15 20//15 21//15
f 21//16 20//16 22//16
f 21//17 22//17 23//17
f 23//18 22//18 24//18
f 23//19 24//19 25//19
f 25//20 24//20 26//20
f 25//21 26//21 27//21
f 27//22 26//22 28//22
f 27//23 28//23 29//23
f 29//24 28//24 30//24
f 29//25 30//25 31//25
f 31//26 30//26 32//26
f 31//27 32//27 33//27
f 33//28 32//28 34//28
f 33//29 34//29 35//29
f 35//30 34//30 36//30
f 36//31 34//31 37//31
f 36//32 37//32 38//32
f 36//33 38//33 39//33
f 39//34 38//34 40//34
f 39//35 40//35 41//35
f 39//36 41//36 42//36
f 42//36 41//36 43//36
f 42//37 43//37 44//37
f 44//38 43//38 45//38
f 44//38 45//38 46//38
f 46//39 45//39 47//39
f 47//40 45//40 48//40
f 47//40 48//40 49//40
f 49//41 48//41 50//41
f 49//42 50//42 6//42
f 6//42 50//42 5//42
f 2//43 8//43 4//43
f 4//43 8//43 7//43
f 7//44 9//44 4//44
f 4//45 9//45 11//45
f 4//46 11//46 13//46
f 13//44 15//44 4//44
f 4//47 15//47 17//47
f 4//48 17//48 19//48
f 19//44 21//44 4//44
f 4//44 21//44 23//44
f 4//44 23//44 25//44
f 25//44 27//44 4//44
f 4//44 27//44 29//44
f 4//44 29//44 31//44
f 31//44 33//44 4//44
f 4//44 33//44 35//44
f 4//44 35//44 3//44
f 3//44 35//44 36//44
f 3//44 36//44 39//44
f 39//44 42//44 3//44
f 3//44 42//44 44//44
f 3//44 44//44 46//44
f 46//44 47//44 3//44
f 3//44 47//44 49//44
f 3//44 49//44 6//44
f 8//49 2//49 10//49
f 10//49 2//49 12//49
f 12//50 2//50 14//50
f 14//51 2//51 16//51
f 16//49 2//49 18//49
f 18//49 2//49 20//49
f 20//49 2//49 22//49
f 22//52 2//52 24//52
f 24//49 2//49 26//49
f 26//49 2//49 28//49
f 28//49 2//49 30//49
f 30//49 2//49 32//49
f 32//49 2//49 34//49
f 34//49 2//49 1//49
f 34//49 1//49 37//49
f 37//49 1//49 38//49
f 38//49 1//49 40//49
f 40//49 1//49 41//49
f 41//49 1//49 43//49
f 43//49 1//49 45//49
f 45//49 1//49 48//49
f 48//49 1//49 50//49
f 50//49 1//49 5//49
