# Blender 5.1.1
# www.blender.org
mtllib osaka_portadx.mtl
o osaka_portadx
v 0.974987 0.074614 0.328151
v 0.974987 0.098106 0.418880
v 1.924975 0.074614 0.328151
v 1.924975 0.098106 0.418880
v 0.974987 0.128089 0.512443
v 1.924975 0.128089 0.512443
v 0.974987 0.165070 0.609063
v 1.924975 0.165070 0.609063
v 0.974987 0.209530 0.708951
v 1.924975 0.209530 0.708951
v 0.974987 0.261450 0.812096
v 1.924975 0.261450 0.812096
v 0.974987 0.320231 0.918238
v 1.924975 0.320231 0.918238
v 0.974987 0.385122 1.027050
v 1.924975 0.385122 1.027050
v 0.974987 0.455560 1.138284
v 1.924975 0.455560 1.138284
v 0.974987 0.060633 0.328151
v 1.924975 0.060633 0.328151
v 0.974987 0.447749 1.143526
v 0.974987 0.386362 1.048644
v 1.924975 0.447749 1.143526
v 1.924975 0.386170 1.048331
v 0.974987 0.325801 0.949968
v 1.924975 0.325935 0.950188
v 1.924975 0.268978 0.851151
v 0.974987 0.268056 0.849473
v 1.924975 0.216506 0.751911
v 0.974987 0.215066 0.749031
v 1.924975 0.168546 0.650422
v 0.974987 0.167374 0.647764
v 1.924975 0.125829 0.545565
v 0.974987 0.125163 0.543775
v 1.924975 0.089493 0.437690
v 0.974987 0.089228 0.436805
vn -0.0000 0.9681 -0.2507
vn -0.0000 0.9523 -0.3052
vn -0.0000 0.9339 -0.3575
vn -0.0000 0.9136 -0.4066
vn -0.0000 0.8932 -0.4496
vn -0.0000 0.8748 -0.4845
vn -0.0000 0.8589 -0.5122
vn -0.0000 0.8449 -0.5350
vn -0.0000 -0.0000 -1.0000
vn -0.0000 -0.8396 0.5432
vn -0.0000 -0.8396 0.5431
vn -0.0000 -0.8523 0.5231
vn -0.0000 -0.8669 0.4985
vn -0.0000 -0.8671 0.4982
vn -0.0000 -0.8840 0.4674
vn -0.0001 -0.8845 0.4666
vn 0.0001 -0.9041 0.4273
vn -0.0001 -0.9047 0.4261
vn 0.0001 -0.9261 0.3773
vn -0.0001 -0.9266 0.3761
vn 0.0001 -0.9477 0.3192
vn -0.0000 -0.9479 0.3184
vn -0.0000 -0.9670 0.2548
vn -0.0000 -0.9671 0.2545
vn -0.0000 0.5573 0.8303
vn 1.0000 -0.0000 -0.0000
vn -1.0000 -0.0000 -0.0000
s 0
f 1//1 2//1 3//1
f 3//1 2//1 4//1
f 4//2 2//2 5//2
f 4//2 5//2 6//2
f 6//3 5//3 7//3
f 6//3 7//3 8//3
f 8//4 7//4 9//4
f 8//4 9//4 10//4
f 10//5 9//5 11//5
f 10//5 11//5 12//5
f 12//6 11//6 13//6
f 12//6 13//6 14//6
f 14//7 13//7 15//7
f 14//7 15//7 16//7
f 16//8 15//8 17//8
f 16//8 17//8 18//8
f 19//9 1//9 20//9
f 20//9 1//9 3//9
f 21//10 22//10 23//10
f 23//11 22//11 24//11
f 24//12 22//12 25//12
f 24//12 25//12 26//12
f 26//13 25//13 27//13
f 27//14 25//14 28//14
f 27//15 28//15 29//15
f 29//16 28//16 30//16
f 29//17 30//17 31//17
f 31//18 30//18 32//18
f 31//19 32//19 33//19
f 33//20 32//20 34//20
f 33//21 34//21 35//21
f 35//22 34//22 36//22
f 35//23 36//23 20//23
f 20//24 36//24 19//24
f 17//25 21//25 18//25
f 18//25 21//25 23//25
f 23//26 24//26 18//26
f 18//26 24//26 16//26
f 16//26 24//26 26//26
f 16//26 26//26 14//26
f 14//26 26//26 27//26
f 14//26 27//26 12//26
f 12//26 27//26 29//26
f 12//26 29//26 10//26
f 10//26 29//26 31//26
f 10//26 31//26 8//26
f 8//26 31//26 33//26
f 8//26 33//26 6//26
f 6//26 33//26 35//26
f 6//26 35//26 4//26
f 4//26 35//26 3//26
f 3//26 35//26 20//26
f 21//27 17//27 22//27
f 22//27 17//27 15//27
f 22//27 15//27 25//27
f 25//27 15//27 13//27
f 25//27 13//27 28//27
f 28//27 13//27 11//27
f 28//27 11//27 30//27
f 30//27 11//27 9//27
f 30//27 9//27 32//27
f 32//27 9//27 7//27
f 32//27 7//27 34//27
f 34//27 7//27 5//27
f 34//27 5//27 36//27
f 36//27 5//27 2//27
f 36//27 2//27 1//27
f 1//27 19//27 36//27
