# Blender 5.1.1
# www.blender.org
mtllib Osaka_3p_portadx.mtl
o Osaka_3p_portadx
v 1.297843 0.003459 0.359232
v 0.687871 -0.001494 0.359232
v 1.297843 0.003459 1.899212
v 0.687871 -0.001494 1.899212
v 1.297965 -0.011541 0.359232
v 1.297965 -0.011541 1.899212
v 0.687993 -0.016493 0.359232
v 0.687993 -0.016493 1.899212
vn -0.0081 1.0000 -0.0000
vn 1.0000 0.0081 -0.0000
vn 0.0081 -1.0000 -0.0000
vn -1.0000 -0.0081 -0.0000
vn -0.0000 -0.0000 1.0000
vn -0.0000 -0.0000 -1.0000
s 0
f 1//1 2//1 3//1
f 3//1 2//1 4//1
f 5//2 1//2 6//2
f 6//2 1//2 3//2
f 7//3 5//3 8//3
f 8//3 5//3 6//3
f 2//4 7//4 4//4
f 4//4 7//4 8//4
f 8//5 6//5 4//5
f 4//5 6//5 3//5
f 7//6 2//6 5//6
f 5//6 2//6 1//6
