# Blender 5.1.1
# www.blender.org
mtllib Osaka_3p_corpo.mtl
o Osaka_3p_corpo
v 0.038631 0.000078 0.321408
v 0.038631 0.000078 0.358907
v 0.038038 0.000000 0.321408
v 0.038038 0.000000 0.358907
v 0.037444 0.000078 0.321408
v 0.037444 0.000078 0.358907
v 0.036891 0.000307 0.321408
v 0.036891 0.000307 0.358907
v 0.036416 0.000672 0.321408
v 0.036416 0.000672 0.358907
v 0.036051 0.001147 0.321408
v 0.036051 0.001147 0.358907
v 0.035822 0.001700 0.321408
v 0.035822 0.001700 0.358907
v 0.035744 0.002294 0.321408
v 0.035744 0.002294 0.358907
v 0.035822 0.002887 0.321408
v 0.035822 0.002887 0.358907
v 0.036051 0.003441 0.321408
v 0.036051 0.003441 0.358907
v 0.036416 0.003916 0.321408
v 0.036416 0.003916 0.358907
v 0.036891 0.004280 0.321408
v 0.036891 0.004280 0.358907
v 0.037444 0.004509 0.321408
v 0.037444 0.004509 0.358907
v 0.038038 0.004588 0.321408
v 0.038038 0.004588 0.358907
v 0.038631 0.004509 0.321408
v 0.038631 0.004509 0.358907
v 0.039185 0.004280 0.321408
v 0.039185 0.004280 0.358907
v 0.039660 0.003916 0.321408
v 0.039660 0.003916 0.358907
v 0.040024 0.003441 0.321408
v 0.040024 0.003441 0.358907
v 0.040253 0.002887 0.321408
v 0.040253 0.002887 0.358907
v 0.040332 0.002294 0.321408
v 0.040332 0.002294 0.358907
v 0.040253 0.001700 0.321408
v 0.040253 0.001700 0.358907
v 0.040024 0.001147 0.321408
v 0.040024 0.001147 0.358907
v 0.039660 0.000672 0.321408
v 0.039660 0.000672 0.358907
v 0.039185 0.000307 0.321408
v 0.039185 0.000307 0.358907
v 0.037375 0.000098 1.936387
v 0.037375 0.000098 1.935331
v 0.037814 0.000011 1.936387
v 0.037444 0.000078 1.898888
v 0.038038 0.000000 1.898888
v 0.036891 0.000307 1.898888
v 0.036835 0.000341 1.935331
v 0.036416 0.000672 1.898888
v 0.036375 0.000714 1.935331
v 0.036051 0.001147 1.898888
v 0.036026 0.001192 1.935331
v 0.035822 0.001700 1.898888
v 0.035811 0.001744 1.935331
v 0.035744 0.002294 1.898888
v 0.035744 0.002333 1.935331
v 0.035822 0.002887 1.898888
v 0.035831 0.002919 1.935331
v 0.036051 0.003441 1.898888
v 0.036065 0.003463 1.935331
v 0.036416 0.003916 1.898888
v 0.036430 0.003930 1.935331
v 0.036891 0.004280 1.898888
v 0.036902 0.004287 1.935331
v 0.037444 0.004509 1.898888
v 0.037450 0.004511 1.935331
v 0.038038 0.004588 1.898888
v 0.038038 0.004588 1.935331
v 0.038625 0.004511 1.935331
v 0.038631 0.004509 1.898888
v 0.039173 0.004287 1.935331
v 0.039185 0.004280 1.898888
v 0.039646 0.003930 1.935331
v 0.039660 0.003916 1.898888
v 0.040011 0.003463 1.935331
v 0.040024 0.003441 1.898888
v 0.040245 0.002919 1.935331
v 0.040253 0.002887 1.898888
v 0.040331 0.002333 1.935331
v 0.040332 0.002294 1.898888
v 0.040265 0.001744 1.935331
v 0.040253 0.001700 1.898888
v 0.040050 0.001192 1.935331
v 0.040024 0.001147 1.898888
v 0.039701 0.000714 1.935331
v 0.039660 0.000672 1.898888
v 0.039241 0.000341 1.935331
v 0.039185 0.000307 1.898888
v 0.038701 0.000098 1.935331
v 0.038631 0.000078 1.898888
v 0.038262 0.000011 1.936387
v 0.038701 0.000098 1.936387
v 0.000000 0.000098 1.935331
v 0.000000 0.000098 2.055455
v 1.319983 0.000098 2.055455
v 1.299229 0.000098 1.935748
v 1.300431 0.000098 1.935748
v 1.299229 0.000098 1.935331
v 1.300431 0.000098 1.935331
v 1.319983 0.000098 1.935331
v 1.300033 0.000027 1.935748
v 1.299628 0.000027 1.935748
v 1.300424 0.000096 1.898248
v 1.300977 0.000325 1.898248
v 1.299830 0.000018 1.898248
v 1.299237 0.000096 1.898248
v 1.298683 0.000325 1.898248
v 1.298677 0.000329 1.935331
v 1.298208 0.000689 1.898248
v 1.298204 0.000694 1.935331
v 1.297844 0.001165 1.898248
v 1.297841 0.001170 1.935331
v 1.297615 0.001718 1.898248
v 1.297613 0.001723 1.935331
v 1.297536 0.002311 1.898248
v 1.297536 0.002316 1.935331
v 1.297615 0.002905 1.898248
v 1.297616 0.002909 1.935331
v 1.297844 0.003458 1.898248
v 1.297845 0.003461 1.935331
v 1.298208 0.003933 1.898248
v 1.298210 0.003935 1.935331
v 1.298683 0.004298 1.898248
v 1.298684 0.004299 1.935331
v 1.299237 0.004527 1.898248
v 1.299237 0.004527 1.935331
v 1.299830 0.004605 1.898248
v 1.299830 0.004605 1.935331
v 1.300423 0.004527 1.935331
v 1.300424 0.004527 1.898248
v 1.300976 0.004299 1.935331
v 1.300977 0.004298 1.898248
v 1.301451 0.003935 1.935331
v 1.301452 0.003933 1.898248
v 1.301815 0.003461 1.935331
v 1.301817 0.003458 1.898248
v 1.302045 0.002909 1.935331
v 1.302046 0.002905 1.898248
v 1.302124 0.002316 1.935331
v 1.302124 0.002311 1.898248
v 1.302047 0.001723 1.935331
v 1.302046 0.001718 1.898248
v 1.301819 0.001170 1.935331
v 1.301817 0.001165 1.898248
v 1.301457 0.000694 1.935331
v 1.301452 0.000689 1.898248
v 1.300983 0.000329 1.935331
v 1.319983 0.073507 1.935331
v 0.000000 0.073507 1.935331
v 1.319983 0.146916 1.915311
v 1.319983 0.153590 1.935331
v 0.000000 0.146916 1.915311
v 0.000000 0.153590 1.935331
v 1.319983 0.233672 1.901963
v 0.000000 0.233672 1.901963
v 1.319983 0.243137 1.930357
v 0.000000 0.243137 1.930357
v 1.319983 0.574024 1.908637
v 0.000000 0.574024 1.908637
v 1.319983 0.574024 1.668389
v 0.000000 0.574024 1.668389
v 1.319983 0.213652 1.668389
v 0.000000 0.213652 1.668389
v 1.319983 0.213652 1.628348
v 0.000000 0.213652 1.628348
v 1.319983 0.413858 1.628348
v 0.000000 0.413858 1.628348
v 1.319983 0.557137 1.583971
v 0.000000 0.557137 1.583971
v 1.319983 0.574024 1.583971
v 0.000000 0.574024 1.583971
v 1.319983 0.574024 1.395895
v 0.000000 0.574024 1.395895
v 1.319983 0.210946 1.395895
v 0.000000 0.210946 1.395895
v 1.319983 0.210946 1.366309
v 0.000000 0.210946 1.366309
v 1.319983 0.431340 1.362021
v 0.000000 0.431340 1.362021
v 1.319983 0.540251 1.320858
v 0.000000 0.540251 1.320858
v 1.319983 0.574024 1.320858
v 0.000000 0.574024 1.320858
v 1.319983 0.574024 1.134504
v 0.000000 0.574024 1.134504
v 1.319983 0.213652 1.134504
v 0.000000 0.213652 1.134504
v 1.319983 0.213652 1.094463
v 0.000000 0.213652 1.094463
v 1.319983 0.440553 1.094463
v 0.000000 0.440553 1.094463
v 1.319983 0.540744 1.052107
v 0.000000 0.540744 1.052107
v 1.319983 0.574024 1.052107
v 0.000000 0.574024 1.052107
v 1.319983 0.574024 0.859647
v 0.000000 0.574024 0.859647
v 1.319983 0.208666 0.859647
v 0.000000 0.208666 0.859647
v 1.319983 0.208666 0.831093
v 0.000000 0.208666 0.831093
v 1.319983 0.427205 0.831093
v 0.000000 0.427205 0.831093
v 1.319983 0.540656 0.787480
v 0.000000 0.540656 0.787480
v 1.319983 0.574024 0.787480
v 0.000000 0.574024 0.787480
v 1.319983 0.574024 0.594167
v 0.000000 0.574024 0.594167
v 1.319983 0.213652 0.594167
v 0.000000 0.213652 0.594167
v 1.319983 0.213652 0.560579
v 0.000000 0.213652 0.560579
v 1.319983 0.427205 0.560579
v 0.000000 0.427205 0.560579
v 1.319983 0.533982 0.520537
v 0.000000 0.533982 0.520537
v 1.319983 0.574024 0.520537
v 0.000000 0.574024 0.520537
v 1.319983 0.574024 0.313657
v 0.000000 0.574024 0.313657
v 1.319983 0.509591 0.313657
v 0.000000 0.509591 0.313657
v 1.319983 0.509591 0.293636
v 0.000000 0.509591 0.293636
v 1.319983 0.126895 0.293636
v 0.000000 0.126895 0.293636
v 1.319983 0.126895 0.320331
v 0.000000 0.126895 0.320331
v 1.319983 0.000098 0.320331
v 0.000000 0.000098 0.320331
v 1.319983 0.000098 0.080083
v 0.000000 0.000098 0.080083
v 1.319983 0.093528 0.080083
v 0.000000 0.093528 0.080083
v 1.319983 0.093528 0.021026
v 0.000000 0.093528 0.021026
v 1.319983 0.113225 0.021026
v 0.000000 0.113225 0.021026
v 1.319983 0.113225 0.000000
v 0.000000 0.113225 0.000000
v 1.319983 0.138344 0.000000
v 0.000000 0.138344 0.000000
v 1.319983 0.138344 0.021026
v 0.000000 0.138344 0.021026
v 1.319983 0.213652 0.021026
v 0.000000 0.213652 0.021026
v 1.319983 0.213652 0.080083
v 0.000000 0.213652 0.080083
v 1.319983 0.498150 0.080083
v 0.000000 0.498150 0.080083
v 1.319983 0.498150 0.021026
v 0.000000 0.498150 0.021026
v 1.319983 0.574024 0.021026
v 0.000000 0.574024 0.021026
v 1.319983 0.574024 0.000000
v 0.000000 0.574024 0.000000
v 1.319983 0.599983 0.000000
v 0.000000 0.599983 0.000000
v 1.319983 0.599983 0.021026
v 0.000000 0.599983 0.021026
v 1.319983 0.620349 0.021026
v 0.000000 0.620349 0.021026
v 1.319983 0.620349 0.080083
v 0.000000 0.620349 0.080083
v 1.319983 0.680801 0.080083
v 0.000000 0.680801 0.080083
v 1.319983 0.680801 1.988720
v 0.000000 0.680801 1.988720
v 1.319983 0.674184 1.989204
v 0.000000 0.674184 1.989204
v 1.319983 0.679938 2.084542
v 0.000000 0.679938 2.084542
v 1.319983 0.522390 2.094051
v 0.000000 0.522390 2.094051
v 1.319983 0.515566 2.000813
v 0.000000 0.515566 2.000813
v 1.319983 0.316076 2.015414
v 0.000000 0.316076 2.015414
v 1.319983 0.316076 2.028761
v 0.000000 0.316076 2.028761
v 1.319983 0.293734 2.028761
v 0.000000 0.293734 2.028761
v 1.319983 0.293734 2.047432
v 0.000000 0.293734 2.047432
v 1.319983 0.040139 2.047432
v 0.000000 0.040139 2.047432
v 1.319983 0.040139 2.055455
v 0.000000 0.040139 2.055455
v 1.319983 0.073507 1.921984
v 0.000000 0.073507 1.921984
v 1.319983 0.126895 1.948678
v 0.000000 0.126895 1.948678
v 1.319983 0.146916 1.948678
v 0.000000 0.146916 1.948678
v 1.319983 0.146916 1.935331
v 0.000000 0.146916 1.935331
v 1.300424 0.000096 0.321732
v 1.300424 0.000096 0.359232
v 1.299830 0.000018 0.321732
v 1.299830 0.000018 0.359232
v 1.299237 0.000096 0.321732
v 1.299237 0.000096 0.359232
v 1.298683 0.000325 0.321732
v 1.298683 0.000325 0.359232
v 1.298208 0.000689 0.321732
v 1.298208 0.000689 0.359232
v 1.297844 0.001165 0.321732
v 1.297844 0.001165 0.359232
v 1.297615 0.001718 0.321732
v 1.297615 0.001718 0.359232
v 1.297536 0.002311 0.321732
v 1.297536 0.002311 0.359232
v 1.297615 0.002905 0.321732
v 1.297615 0.002905 0.359232
v 1.297844 0.003458 0.321732
v 1.297844 0.003458 0.359232
v 1.298208 0.003933 0.321732
v 1.298208 0.003933 0.359232
v 1.298683 0.004298 0.321732
v 1.298683 0.004298 0.359232
v 1.299237 0.004527 0.321732
v 1.299237 0.004527 0.359232
v 1.299830 0.004605 0.321732
v 1.299830 0.004605 0.359232
v 1.300424 0.004527 0.321732
v 1.300424 0.004527 0.359232
v 1.300977 0.004298 0.321732
v 1.300977 0.004298 0.359232
v 1.301452 0.003933 0.321732
v 1.301452 0.003933 0.359232
v 1.301817 0.003458 0.321732
v 1.301817 0.003458 0.359232
v 1.302046 0.002905 0.321732
v 1.302046 0.002905 0.359232
v 1.302124 0.002311 0.321732
v 1.302124 0.002311 0.359232
v 1.302046 0.001718 0.321732
v 1.302046 0.001718 0.359232
v 1.301817 0.001165 0.321732
v 1.301817 0.001165 0.359232
v 1.301452 0.000689 0.321732
v 1.301452 0.000689 0.359232
v 1.300977 0.000325 0.321732
v 1.300977 0.000325 0.359232
vn 0.1305 -0.9914 -0.0000
vn -0.1305 -0.9914 -0.0000
vn -0.3827 -0.9239 -0.0000
vn -0.6088 -0.7934 -0.0000
vn -0.7934 -0.6088 -0.0000
vn -0.9239 -0.3827 -0.0000
vn -0.9914 -0.1305 -0.0000
vn -0.9914 0.1305 -0.0000
vn -0.9239 0.3827 -0.0000
vn -0.7934 0.6088 -0.0000
vn -0.6088 0.7934 -0.0000
vn -0.3827 0.9239 -0.0000
vn -0.1305 0.9914 -0.0000
vn 0.1305 0.9914 -0.0000
vn 0.3827 0.9239 -0.0000
vn 0.6088 0.7934 -0.0000
vn 0.7934 0.6088 -0.0000
vn 0.9239 0.3827 -0.0000
vn 0.9914 0.1305 -0.0000
vn 0.9914 -0.1305 -0.0000
vn 0.9239 -0.3827 -0.0000
vn 0.7934 -0.6088 -0.0000
vn 0.6088 -0.7934 -0.0000
vn 0.3827 -0.9239 -0.0000
vn -0.0000 -0.0000 -1.0000
vn -0.0001 -0.0000 -1.0000
vn 0.0001 -0.0000 -1.0000
vn 0.0002 -0.0000 -1.0000
vn -0.0002 -0.0000 -1.0000
vn -0.0000 -0.0000 1.0000
vn -0.0001 -0.0000 1.0000
vn 0.0001 -0.0000 1.0000
vn -0.0002 -0.0000 1.0000
vn 0.0002 -0.0000 1.0000
vn -0.0003 -0.0000 1.0000
vn 0.0003 -0.0000 1.0000
vn -0.1942 -0.9810 -0.0000
vn -0.1946 -0.9809 0.0002
vn -0.1305 -0.9914 -0.0005
vn -0.3827 -0.9239 -0.0002
vn -0.4102 -0.9120 0.0002
vn -0.6088 -0.7934 -0.0002
vn -0.6300 -0.7766 0.0002
vn -0.7934 -0.6088 -0.0002
vn -0.8079 -0.5894 0.0002
vn -0.9239 -0.3827 -0.0002
vn -0.9318 -0.3629 0.0001
vn -0.9914 -0.1305 -0.0002
vn -0.9937 -0.1121 0.0001
vn -0.9914 0.1305 -0.0001
vn -0.9893 0.1460 0.0001
vn -0.9239 0.3827 -0.0001
vn -0.9189 0.3945 0.0001
vn -0.7934 0.6088 -0.0001
vn -0.7872 0.6166 0.0001
vn -0.6088 0.7934 -0.0001
vn -0.6031 0.7977 -0.0000
vn -0.3787 0.9255 -0.0000
vn -0.1291 0.9916 -0.0000
vn 0.1291 0.9916 -0.0000
vn 0.3787 0.9255 -0.0000
vn 0.6031 0.7977 -0.0000
vn 0.6088 0.7934 -0.0001
vn 0.7872 0.6166 0.0001
vn 0.7934 0.6088 -0.0001
vn 0.9189 0.3945 0.0001
vn 0.9239 0.3827 -0.0001
vn 0.9893 0.1460 0.0001
vn 0.9914 0.1305 -0.0001
vn 0.9937 -0.1121 0.0001
vn 0.9914 -0.1305 -0.0002
vn 0.9318 -0.3629 0.0001
vn 0.9239 -0.3827 -0.0002
vn 0.8079 -0.5893 0.0002
vn 0.7933 -0.6088 -0.0002
vn 0.6300 -0.7766 0.0002
vn 0.6088 -0.7934 -0.0002
vn 0.4102 -0.9120 0.0002
vn 0.3827 -0.9239 -0.0002
vn 0.1946 -0.9809 0.0002
vn 0.1305 -0.9914 -0.0005
vn -0.0000 -1.0000 0.0003
vn 0.1942 -0.9810 -0.0000
vn 0.0003 -0.0000 -1.0000
vn -0.0007 -0.0000 -1.0000
vn 0.0004 -0.0000 -1.0000
vn -0.0008 -0.0000 -1.0000
vn 0.0005 -0.0000 -1.0000
vn -0.0004 -0.0000 -1.0000
vn 0.0009 -0.0000 -1.0000
vn 0.0006 -0.0000 -1.0000
vn -0.0005 -0.0000 -1.0000
vn -0.0009 -0.0000 -1.0000
vn -0.0000 -1.0000 -0.0000
vn 0.1761 -0.9844 -0.0000
vn 0.1759 -0.9844 -0.0000
vn -0.0000 -1.0000 0.0002
vn -0.1760 -0.9844 -0.0000
vn -0.3856 -0.9226 -0.0000
vn -0.6087 -0.7934 -0.0000
vn -0.6112 -0.7915 -0.0000
vn -0.7934 -0.6087 -0.0000
vn -0.7949 -0.6067 -0.0000
vn -0.9239 -0.3825 -0.0000
vn -0.9246 -0.3809 -0.0000
vn -0.9915 -0.1302 -0.0000
vn -0.9917 -0.1283 -0.0000
vn -0.9915 0.1302 -0.0000
vn -0.9912 0.1324 -0.0000
vn -0.9238 0.3828 -0.0000
vn -0.9235 0.3837 -0.0000
vn -0.7932 0.6089 -0.0000
vn -0.7928 0.6095 -0.0000
vn -0.6087 0.7934 -0.0000
vn -0.6081 0.7938 -0.0000
vn -0.3821 0.9241 -0.0000
vn -0.1306 0.9914 -0.0000
vn -0.1303 0.9915 -0.0000
vn 0.1304 0.9915 -0.0000
vn -0.1761 -0.9844 -0.0000
vn 0.1306 0.9914 -0.0000
vn 0.3821 0.9241 -0.0000
vn 0.6081 0.7938 -0.0000
vn 0.6087 0.7934 -0.0000
vn 0.7930 0.6093 -0.0000
vn 0.7931 0.6091 -0.0000
vn 0.9235 0.3837 -0.0000
vn 0.9238 0.3828 -0.0000
vn 0.9912 0.1324 -0.0000
vn 0.9915 0.1302 -0.0000
vn 0.9917 -0.1283 -0.0000
vn 0.9915 -0.1302 -0.0000
vn 0.9245 -0.3812 -0.0000
vn 0.9241 -0.3822 -0.0000
vn 0.7949 -0.6067 -0.0000
vn 0.7934 -0.6087 -0.0000
vn 0.6112 -0.7915 -0.0000
vn 0.6087 -0.7934 -0.0000
vn 0.3856 -0.9226 -0.0000
vn 0.0008 -0.0000 -1.0000
vn -0.0015 -0.0000 -1.0000
vn 0.0007 -0.0000 -1.0000
vn -0.0000 -0.9487 0.3162
vn -0.0000 -0.1521 -0.9884
vn -0.0000 0.9487 -0.3162
vn -0.0000 -0.0655 -0.9979
vn -0.0000 -0.2959 -0.9552
vn -0.0000 -0.0195 -0.9998
vn -0.0000 -0.3535 -0.9354
vn -0.0000 -0.3894 -0.9211
vn -0.0000 -0.3588 -0.9334
vn -0.0000 -0.3511 -0.9363
vn -0.0000 1.0000 -0.0000
vn -0.0000 0.0730 0.9973
vn -0.0000 0.9982 -0.0602
vn -0.0000 0.0602 0.9982
vn -0.0000 -0.9973 0.0730
vn -0.0000 0.4472 -0.8944
vn -1.0000 -0.0000 -0.0000
vn 1.0000 -0.0000 -0.0000
vn -0.3826 -0.9239 -0.0000
vn -0.7933 -0.6088 -0.0000
vn -0.7935 -0.6086 -0.0000
vn -0.9238 -0.3829 -0.0000
vn -0.9239 -0.3826 -0.0000
vn -0.9915 -0.1304 -0.0000
vn -0.9915 0.1304 -0.0000
vn -0.9239 0.3826 -0.0000
vn -0.9238 0.3829 -0.0000
vn -0.7935 0.6086 -0.0000
vn -0.7933 0.6088 -0.0000
vn -0.3826 0.9239 -0.0000
vn 0.3826 0.9239 -0.0000
vn 0.6086 0.7935 -0.0000
vn 0.6089 0.7932 -0.0000
vn 0.7933 0.6088 -0.0000
vn 0.9239 0.3826 -0.0000
vn 0.9914 0.1307 -0.0000
vn 0.9915 0.1301 -0.0000
vn 0.9915 -0.1301 -0.0000
vn 0.9914 -0.1307 -0.0000
vn 0.9239 -0.3826 -0.0000
vn 0.7933 -0.6088 -0.0000
vn 0.6089 -0.7932 -0.0000
vn 0.6086 -0.7935 -0.0000
vn 0.3826 -0.9239 -0.0000
s 0
f 1//1 2//1 3//1
f 3//1 2//1 4//1
f 3//2 4//2 5//2
f 5//2 4//2 6//2
f 5//3 6//3 7//3
f 7//3 6//3 8//3
f 7//4 8//4 9//4
f 9//4 8//4 10//4
f 9//5 10//5 11//5
f 11//5 10//5 12//5
f 11//6 12//6 13//6
f 13//6 12//6 14//6
f 13//7 14//7 15//7
f 15//7 14//7 16//7
f 15//8 16//8 17//8
f 17//8 16//8 18//8
f 17//9 18//9 19//9
f 19//9 18//9 20//9
f 19//10 20//10 21//10
f 21//10 20//10 22//10
f 21//11 22//11 23//11
f 23//11 22//11 24//11
f 23//12 24//12 25//12
f 25//12 24//12 26//12
f 25//13 26//13 27//13
f 27//13 26//13 28//13
f 27//14 28//14 29//14
f 29//14 28//14 30//14
f 29//15 30//15 31//15
f 31//15 30//15 32//15
f 31//16 32//16 33//16
f 33//16 32//16 34//16
f 33//17 34//17 35//17
f 35//17 34//17 36//17
f 35//18 36//18 37//18
f 37//18 36//18 38//18
f 37//19 38//19 39//19
f 39//19 38//19 40//19
f 39//20 40//20 41//20
f 41//20 40//20 42//20
f 41//21 42//21 43//21
f 43//21 42//21 44//21
f 43//22 44//22 45//22
f 45//22 44//22 46//22
f 45//23 46//23 47//23
f 47//23 46//23 48//23
f 47//24 48//24 1//24
f 1//24 48//24 2//24
f 5//25 25//25 3//25
f 3//25 25//25 27//25
f 3//25 27//25 1//25
f 1//25 27//25 29//25
f 1//26 29//26 47//26
f 47//27 29//27 31//27
f 47//25 31//25 45//25
f 45//25 31//25 33//25
f 45//28 33//28 43//28
f 43//29 33//29 35//29
f 43//25 35//25 41//25
f 41//27 35//27 37//27
f 41//25 37//25 39//25
f 25//25 5//25 23//25
f 23//25 5//25 7//25
f 23//25 7//25 21//25
f 21//25 7//25 9//25
f 21//26 9//26 19//26
f 19//27 9//27 11//27
f 19//25 11//25 17//25
f 17//26 11//26 13//26
f 17//25 13//25 15//25
f 2//30 30//30 4//30
f 4//30 30//30 28//30
f 4//30 28//30 6//30
f 6//30 28//30 26//30
f 6//31 26//31 8//31
f 8//30 26//30 24//30
f 8//32 24//32 10//32
f 10//30 24//30 22//30
f 10//30 22//30 12//30
f 12//33 22//33 20//33
f 12//34 20//34 14//34
f 14//34 20//34 18//34
f 14//35 18//35 16//35
f 30//32 2//32 32//32
f 32//30 2//30 48//30
f 32//31 48//31 34//31
f 34//30 48//30 46//30
f 34//30 46//30 36//30
f 36//32 46//32 44//32
f 36//33 44//33 38//33
f 38//33 44//33 42//33
f 38//36 42//36 40//36
f 49//37 50//37 51//37
f 51//38 50//38 52//38
f 51//39 52//39 53//39
f 52//40 50//40 54//40
f 54//41 50//41 55//41
f 54//42 55//42 56//42
f 56//43 55//43 57//43
f 56//44 57//44 58//44
f 58//45 57//45 59//45
f 58//46 59//46 60//46
f 60//47 59//47 61//47
f 60//48 61//48 62//48
f 62//49 61//49 63//49
f 62//50 63//50 64//50
f 64//51 63//51 65//51
f 64//52 65//52 66//52
f 66//53 65//53 67//53
f 66//54 67//54 68//54
f 68//55 67//55 69//55
f 68//56 69//56 70//56
f 70//57 69//57 71//57
f 70//12 71//12 72//12
f 72//58 71//58 73//58
f 72//13 73//13 74//13
f 74//59 73//59 75//59
f 74//60 75//60 76//60
f 74//14 76//14 77//14
f 77//61 76//61 78//61
f 77//15 78//15 79//15
f 79//62 78//62 80//62
f 79//63 80//63 81//63
f 81//64 80//64 82//64
f 81//65 82//65 83//65
f 83//66 82//66 84//66
f 83//67 84//67 85//67
f 85//68 84//68 86//68
f 85//69 86//69 87//69
f 87//70 86//70 88//70
f 87//71 88//71 89//71
f 89//72 88//72 90//72
f 89//73 90//73 91//73
f 91//74 90//74 92//74
f 91//75 92//75 93//75
f 93//76 92//76 94//76
f 93//77 94//77 95//77
f 95//78 94//78 96//78
f 95//79 96//79 97//79
f 97//80 96//80 98//80
f 97//81 98//81 53//81
f 53//82 98//82 51//82
f 96//83 99//83 98//83
f 52//25 72//25 53//25
f 53//84 72//84 74//84
f 53//85 74//85 97//85
f 97//86 74//86 77//86
f 97//87 77//87 95//87
f 95//29 77//29 79//29
f 95//88 79//88 93//88
f 93//27 79//27 81//27
f 93//25 81//25 91//25
f 91//89 81//89 83//89
f 91//90 83//90 89//90
f 89//90 83//90 85//90
f 89//25 85//25 87//25
f 72//25 52//25 70//25
f 70//91 52//91 54//91
f 70//92 54//92 68//92
f 68//25 54//25 56//25
f 68//25 56//25 66//25
f 66//26 56//26 58//26
f 66//93 58//93 64//93
f 64//93 58//93 60//93
f 64//25 60//25 62//25
f 99//30 49//30 98//30
f 98//30 49//30 51//30
f 50//94 49//94 100//94
f 100//94 49//94 101//94
f 101//94 49//94 99//94
f 101//94 99//94 102//94
f 102//94 99//94 103//94
f 102//94 103//94 104//94
f 99//94 96//94 103//94
f 103//94 96//94 105//94
f 106//94 107//94 104//94
f 104//94 107//94 102//94
f 104//30 103//30 108//30
f 108//30 103//30 109//30
f 104//95 108//95 106//95
f 106//96 108//96 110//96
f 106//24 110//24 111//24
f 110//81 108//81 112//81
f 112//97 108//97 109//97
f 112//39 109//39 113//39
f 113//98 109//98 105//98
f 113//3 105//3 114//3
f 114//99 105//99 115//99
f 114//100 115//100 116//100
f 116//101 115//101 117//101
f 116//102 117//102 118//102
f 118//103 117//103 119//103
f 118//104 119//104 120//104
f 120//105 119//105 121//105
f 120//106 121//106 122//106
f 122//107 121//107 123//107
f 122//108 123//108 124//108
f 124//109 123//109 125//109
f 124//110 125//110 126//110
f 126//111 125//111 127//111
f 126//112 127//112 128//112
f 128//113 127//113 129//113
f 128//114 129//114 130//114
f 130//115 129//115 131//115
f 130//12 131//12 132//12
f 132//116 131//116 133//116
f 132//117 133//117 134//117
f 134//118 133//118 135//118
f 134//119 135//119 136//119
f 109//120 103//120 105//120
f 134//121 136//121 137//121
f 137//122 136//122 138//122
f 137//15 138//15 139//15
f 139//123 138//123 140//123
f 139//124 140//124 141//124
f 141//125 140//125 142//125
f 141//126 142//126 143//126
f 143//127 142//127 144//127
f 143//128 144//128 145//128
f 145//129 144//129 146//129
f 145//130 146//130 147//130
f 147//131 146//131 148//131
f 147//132 148//132 149//132
f 149//133 148//133 150//133
f 149//134 150//134 151//134
f 151//135 150//135 152//135
f 151//136 152//136 153//136
f 153//137 152//137 154//137
f 153//138 154//138 111//138
f 111//139 154//139 106//139
f 113//25 132//25 112//25
f 112//27 132//27 134//27
f 112//25 134//25 110//25
f 110//26 134//26 137//26
f 110//87 137//87 111//87
f 111//86 137//86 139//86
f 111//92 139//92 153//92
f 153//86 139//86 141//86
f 153//140 141//140 151//140
f 151//25 141//25 143//25
f 151//93 143//93 149//93
f 149//90 143//90 145//90
f 149//25 145//25 147//25
f 132//140 113//140 130//140
f 130//25 113//25 114//25
f 130//25 114//25 128//25
f 128//29 114//29 116//29
f 128//87 116//87 126//87
f 126//86 116//86 118//86
f 126//90 118//90 124//90
f 124//93 118//93 120//93
f 124//25 120//25 122//25
f 105//25 96//25 115//25
f 115//25 96//25 94//25
f 115//25 94//25 117//25
f 117//25 94//25 92//25
f 117//25 92//25 119//25
f 119//25 92//25 90//25
f 119//25 90//25 121//25
f 121//25 90//25 88//25
f 121//25 88//25 123//25
f 123//25 88//25 86//25
f 123//25 86//25 125//25
f 125//25 86//25 84//25
f 125//25 84//25 127//25
f 127//25 84//25 82//25
f 127//25 82//25 129//25
f 129//25 82//25 80//25
f 129//25 80//25 131//25
f 131//25 80//25 78//25
f 131//25 78//25 133//25
f 133//25 78//25 76//25
f 133//25 76//25 135//25
f 135//25 76//25 75//25
f 135//25 75//25 155//25
f 155//25 75//25 156//25
f 156//25 75//25 100//25
f 100//141 75//141 73//141
f 100//29 73//29 71//29
f 71//27 69//27 100//27
f 100//25 69//25 67//25
f 100//25 67//25 65//25
f 65//25 63//25 100//25
f 100//25 63//25 61//25
f 100//25 61//25 59//25
f 59//25 57//25 100//25
f 100//25 57//25 55//25
f 100//25 55//25 50//25
f 135//142 155//142 136//142
f 136//25 155//25 107//25
f 136//25 107//25 138//25
f 138//25 107//25 140//25
f 140//26 107//26 142//26
f 142//25 107//25 144//25
f 144//27 107//27 146//27
f 146//25 107//25 148//25
f 148//25 107//25 150//25
f 150//25 107//25 152//25
f 152//25 107//25 154//25
f 154//25 107//25 106//25
f 157//143 158//143 159//143
f 159//143 158//143 160//143
f 161//144 157//144 162//144
f 162//144 157//144 159//144
f 163//145 161//145 164//145
f 164//145 161//145 162//145
f 165//146 163//146 166//146
f 166//146 163//146 164//146
f 167//94 165//94 168//94
f 168//94 165//94 166//94
f 169//30 167//30 170//30
f 170//30 167//30 168//30
f 171//94 169//94 172//94
f 172//94 169//94 170//94
f 173//25 171//25 174//25
f 174//25 171//25 172//25
f 175//147 173//147 176//147
f 176//147 173//147 174//147
f 177//25 175//25 178//25
f 178//25 175//25 176//25
f 179//94 177//94 180//94
f 180//94 177//94 178//94
f 181//30 179//30 182//30
f 182//30 179//30 180//30
f 183//94 181//94 184//94
f 184//94 181//94 182//94
f 185//148 183//148 186//148
f 186//148 183//148 184//148
f 187//149 185//149 188//149
f 188//149 185//149 186//149
f 189//25 187//25 190//25
f 190//25 187//25 188//25
f 191//94 189//94 192//94
f 192//94 189//94 190//94
f 193//30 191//30 194//30
f 194//30 191//30 192//30
f 195//94 193//94 196//94
f 196//94 193//94 194//94
f 197//25 195//25 198//25
f 198//25 195//25 196//25
f 199//150 197//150 200//150
f 200//150 197//150 198//150
f 201//25 199//25 202//25
f 202//25 199//25 200//25
f 203//94 201//94 204//94
f 204//94 201//94 202//94
f 205//30 203//30 206//30
f 206//30 203//30 204//30
f 207//94 205//94 208//94
f 208//94 205//94 206//94
f 209//25 207//25 210//25
f 210//25 207//25 208//25
f 211//151 209//151 212//151
f 212//151 209//151 210//151
f 213//25 211//25 214//25
f 214//25 211//25 212//25
f 215//94 213//94 216//94
f 216//94 213//94 214//94
f 217//30 215//30 218//30
f 218//30 215//30 216//30
f 219//94 217//94 220//94
f 220//94 217//94 218//94
f 221//25 219//25 222//25
f 222//25 219//25 220//25
f 223//152 221//152 224//152
f 224//152 221//152 222//152
f 225//25 223//25 226//25
f 226//25 223//25 224//25
f 227//94 225//94 228//94
f 228//94 225//94 226//94
f 229//30 227//30 230//30
f 230//30 227//30 228//30
f 231//94 229//94 232//94
f 232//94 229//94 230//94
f 233//30 231//30 234//30
f 234//30 231//30 232//30
f 235//153 233//153 236//153
f 236//153 233//153 234//153
f 237//30 235//30 238//30
f 238//30 235//30 236//30
f 239//94 237//94 240//94
f 240//94 237//94 238//94
f 241//25 239//25 242//25
f 242//25 239//25 240//25
f 243//94 241//94 244//94
f 244//94 241//94 242//94
f 245//25 243//25 246//25
f 246//25 243//25 244//25
f 247//94 245//94 248//94
f 248//94 245//94 246//94
f 249//25 247//25 250//25
f 250//25 247//25 248//25
f 251//153 249//153 252//153
f 252//153 249//153 250//153
f 253//25 251//25 254//25
f 254//25 251//25 252//25
f 255//153 253//153 256//153
f 256//153 253//153 254//153
f 257//25 255//25 258//25
f 258//25 255//25 256//25
f 259//94 257//94 260//94
f 260//94 257//94 258//94
f 261//25 259//25 262//25
f 262//25 259//25 260//25
f 263//94 261//94 264//94
f 264//94 261//94 262//94
f 265//25 263//25 266//25
f 266//25 263//25 264//25
f 267//153 265//153 268//153
f 268//153 265//153 266//153
f 269//25 267//25 270//25
f 270//25 267//25 268//25
f 271//153 269//153 272//153
f 272//153 269//153 270//153
f 273//25 271//25 274//25
f 274//25 271//25 272//25
f 275//153 273//153 276//153
f 276//153 273//153 274//153
f 277//154 275//154 278//154
f 278//154 275//154 276//154
f 279//155 277//155 280//155
f 280//155 277//155 278//155
f 281//156 279//156 282//156
f 282//156 279//156 280//156
f 283//157 281//157 284//157
f 284//157 281//157 282//157
f 285//154 283//154 286//154
f 286//154 283//154 284//154
f 287//153 285//153 288//153
f 288//153 285//153 286//153
f 289//30 287//30 290//30
f 290//30 287//30 288//30
f 291//153 289//153 292//153
f 292//153 289//153 290//153
f 293//30 291//30 294//30
f 294//30 291//30 292//30
f 295//153 293//153 296//153
f 296//153 293//153 294//153
f 102//30 295//30 101//30
f 101//30 295//30 296//30
f 297//94 155//94 298//94
f 298//94 155//94 156//94
f 299//158 297//158 300//158
f 300//158 297//158 298//158
f 301//25 299//25 302//25
f 302//25 299//25 300//25
f 303//94 301//94 304//94
f 304//94 301//94 302//94
f 158//25 303//25 160//25
f 160//25 303//25 304//25
f 304//159 302//159 160//159
f 160//159 302//159 164//159
f 160//159 164//159 162//159
f 300//159 294//159 302//159
f 302//159 294//159 292//159
f 302//159 292//159 164//159
f 164//159 292//159 290//159
f 164//159 290//159 286//159
f 286//159 290//159 288//159
f 298//159 156//159 300//159
f 300//159 156//159 294//159
f 156//159 100//159 294//159
f 294//159 100//159 101//159
f 294//159 101//159 296//159
f 164//159 286//159 166//159
f 166//159 286//159 284//159
f 166//159 284//159 282//159
f 282//159 280//159 166//159
f 166//159 280//159 278//159
f 166//159 278//159 168//159
f 168//159 278//159 276//159
f 168//159 276//159 178//159
f 178//159 276//159 180//159
f 180//159 276//159 190//159
f 180//159 190//159 188//159
f 274//159 202//159 276//159
f 276//159 202//159 192//159
f 276//159 192//159 190//159
f 272//159 228//159 274//159
f 274//159 228//159 226//159
f 274//159 226//159 216//159
f 216//159 226//159 224//159
f 216//159 224//159 222//159
f 270//159 268//159 272//159
f 272//159 268//159 228//159
f 228//159 268//159 262//159
f 262//159 268//159 266//159
f 262//159 266//159 264//159
f 260//159 258//159 262//159
f 262//159 258//159 232//159
f 262//159 232//159 228//159
f 228//159 232//159 230//159
f 258//159 256//159 232//159
f 232//159 256//159 234//159
f 234//159 256//159 252//159
f 234//159 252//159 246//159
f 246//159 252//159 248//159
f 248//159 252//159 250//159
f 256//159 254//159 252//159
f 244//159 242//159 246//159
f 246//159 242//159 234//159
f 240//159 238//159 242//159
f 242//159 238//159 234//159
f 238//159 236//159 234//159
f 220//159 218//159 222//159
f 222//159 218//159 216//159
f 216//159 214//159 274//159
f 274//159 214//159 204//159
f 274//159 204//159 202//159
f 214//159 212//159 204//159
f 204//159 212//159 210//159
f 204//159 210//159 206//159
f 206//159 210//159 208//159
f 202//159 200//159 192//159
f 192//159 200//159 198//159
f 192//159 198//159 194//159
f 194//159 198//159 196//159
f 188//159 186//159 180//159
f 180//159 186//159 182//159
f 182//159 186//159 184//159
f 178//159 176//159 168//159
f 168//159 176//159 174//159
f 168//159 174//159 170//159
f 170//159 174//159 172//159
f 162//159 159//159 160//159
f 303//160 158//160 301//160
f 301//160 158//160 163//160
f 301//160 163//160 291//160
f 291//160 163//160 289//160
f 289//160 163//160 285//160
f 289//160 285//160 287//160
f 157//160 161//160 158//160
f 158//160 161//160 163//160
f 163//160 165//160 285//160
f 285//160 165//160 283//160
f 283//160 165//160 281//160
f 281//160 165//160 279//160
f 279//160 165//160 277//160
f 277//160 165//160 167//160
f 277//160 167//160 275//160
f 275//160 167//160 177//160
f 275//160 177//160 179//160
f 169//160 173//160 167//160
f 167//160 173//160 175//160
f 167//160 175//160 177//160
f 169//160 171//160 173//160
f 181//160 185//160 179//160
f 179//160 185//160 187//160
f 179//160 187//160 189//160
f 181//160 183//160 185//160
f 179//160 189//160 275//160
f 275//160 189//160 191//160
f 275//160 191//160 201//160
f 201//160 191//160 199//160
f 199//160 191//160 197//160
f 197//160 191//160 193//160
f 197//160 193//160 195//160
f 275//160 201//160 273//160
f 273//160 201//160 203//160
f 273//160 203//160 213//160
f 213//160 203//160 211//160
f 211//160 203//160 209//160
f 209//160 203//160 205//160
f 209//160 205//160 207//160
f 213//160 215//160 273//160
f 273//160 215//160 225//160
f 273//160 225//160 227//160
f 217//160 221//160 215//160
f 215//160 221//160 223//160
f 215//160 223//160 225//160
f 217//160 219//160 221//160
f 229//160 231//160 227//160
f 227//160 231//160 261//160
f 227//160 261//160 267//160
f 267//160 261//160 265//160
f 265//160 261//160 263//160
f 233//160 255//160 231//160
f 231//160 255//160 257//160
f 231//160 257//160 261//160
f 261//160 257//160 259//160
f 235//160 237//160 233//160
f 233//160 237//160 241//160
f 233//160 241//160 245//160
f 245//160 241//160 243//160
f 237//160 239//160 241//160
f 247//160 249//160 245//160
f 245//160 249//160 251//160
f 245//160 251//160 233//160
f 233//160 251//160 255//160
f 251//160 253//160 255//160
f 269//160 271//160 267//160
f 267//160 271//160 227//160
f 271//160 273//160 227//160
f 291//160 293//160 301//160
f 301//160 293//160 299//160
f 299//160 293//160 155//160
f 299//160 155//160 297//160
f 295//160 102//160 293//160
f 293//160 102//160 107//160
f 293//160 107//160 155//160
f 305//1 306//1 307//1
f 307//1 306//1 308//1
f 307//2 308//2 309//2
f 309//2 308//2 310//2
f 309//3 310//3 311//3
f 311//161 310//161 312//161
f 311//4 312//4 313//4
f 313//4 312//4 314//4
f 313//162 314//162 315//162
f 315//163 314//163 316//163
f 315//164 316//164 317//164
f 317//165 316//165 318//165
f 317//166 318//166 319//166
f 319//166 318//166 320//166
f 319//167 320//167 321//167
f 321//167 320//167 322//167
f 321//168 322//168 323//168
f 323//169 322//169 324//169
f 323//170 324//170 325//170
f 325//171 324//171 326//171
f 325//11 326//11 327//11
f 327//11 326//11 328//11
f 327//172 328//172 329//172
f 329//12 328//12 330//12
f 329//13 330//13 331//13
f 331//13 330//13 332//13
f 331//14 332//14 333//14
f 333//14 332//14 334//14
f 333//15 334//15 335//15
f 335//173 334//173 336//173
f 335//174 336//174 337//174
f 337//175 336//175 338//175
f 337//176 338//176 339//176
f 339//176 338//176 340//176
f 339//177 340//177 341//177
f 341//177 340//177 342//177
f 341//178 342//178 343//178
f 343//179 342//179 344//179
f 343//180 344//180 345//180
f 345//181 344//181 346//181
f 345//182 346//182 347//182
f 347//182 346//182 348//182
f 347//183 348//183 349//183
f 349//183 348//183 350//183
f 349//184 350//184 351//184
f 351//185 350//185 352//185
f 351//186 352//186 305//186
f 305//24 352//24 306//24
f 309//25 329//25 307//25
f 307//25 329//25 331//25
f 307//25 331//25 305//25
f 305//25 331//25 333//25
f 305//25 333//25 351//25
f 351//25 333//25 335//25
f 351//26 335//26 349//26
f 349//25 335//25 337//25
f 349//27 337//27 347//27
f 347//26 337//26 339//26
f 347//25 339//25 345//25
f 345//25 339//25 341//25
f 345//25 341//25 343//25
f 329//25 309//25 327//25
f 327//25 309//25 311//25
f 327//25 311//25 325//25
f 325//27 311//27 313//27
f 325//26 313//26 323//26
f 323//27 313//27 315//27
f 323//25 315//25 321//25
f 321//25 315//25 317//25
f 321//25 317//25 319//25
f 306//32 334//32 308//32
f 308//31 334//31 332//31
f 308//30 332//30 310//30
f 310//30 332//30 330//30
f 310//30 330//30 312//30
f 312//30 330//30 328//30
f 312//30 328//30 314//30
f 314//30 328//30 326//30
f 314//34 326//34 316//34
f 316//33 326//33 324//33
f 316//30 324//30 318//30
f 318//32 324//32 322//32
f 318//30 322//30 320//30
f 334//30 306//30 336//30
f 336//30 306//30 352//30
f 336//30 352//30 338//30
f 338//30 352//30 350//30
f 338//33 350//33 340//33
f 340//34 350//34 348//34
f 340//30 348//30 342//30
f 342//31 348//31 346//31
f 342//30 346//30 344//30
