# Blender 5.1.1
# www.blender.org
mtllib electrolux_corpo.mtl
o electrolux_corpo
v 0.659992 0.139998 0.000000
v 0.659992 0.139998 0.020000
v 0.660843 0.146469 0.000000
v 0.660843 0.146469 0.020000
v 0.663341 0.152498 0.000000
v 0.663341 0.152498 0.020000
v 0.667314 0.157676 0.000000
v 0.667314 0.157676 0.020000
v 0.672491 0.161649 0.000000
v 0.672491 0.161649 0.020000
v 0.678521 0.164146 0.000000
v 0.678521 0.164146 0.020000
v 0.684991 0.164998 0.000000
v 0.684991 0.164998 0.020000
v 0.691462 0.164146 0.000000
v 0.691462 0.164146 0.020000
v 0.697491 0.161649 0.000000
v 0.697491 0.161649 0.020000
v 0.702669 0.157676 0.000000
v 0.702669 0.157676 0.020000
v 0.706642 0.152498 0.000000
v 0.706642 0.152498 0.020000
v 0.709139 0.146469 0.000000
v 0.709139 0.146469 0.020000
v 0.709991 0.139998 0.000000
v 0.709991 0.139998 0.020000
v 0.709139 0.133528 0.000000
v 0.709139 0.133528 0.020000
v 0.706642 0.127498 0.000000
v 0.706642 0.127498 0.020000
v 0.702669 0.122321 0.000000
v 0.702669 0.122321 0.020000
v 0.697491 0.118348 0.000000
v 0.697491 0.118348 0.020000
v 0.691462 0.115850 0.000000
v 0.691462 0.115850 0.020000
v 0.684991 0.114999 0.000000
v 0.684991 0.114999 0.020000
v 0.678521 0.115850 0.000000
v 0.678521 0.115850 0.020000
v 0.672491 0.118348 0.000000
v 0.672491 0.118348 0.020000
v 0.667314 0.122321 0.000000
v 0.667314 0.122321 0.020000
v 0.663341 0.127498 0.000000
v 0.663341 0.127498 0.020000
v 0.660843 0.133528 0.000000
v 0.660843 0.133528 0.020000
v 0.069799 0.139998 0.000000
v 0.069799 0.139998 0.020000
v 0.070651 0.146469 0.000000
v 0.070651 0.146469 0.020000
v 0.073148 0.152498 0.000000
v 0.073148 0.152498 0.020000
v 0.077121 0.157676 0.000000
v 0.077121 0.157676 0.020000
v 0.082299 0.161649 0.000000
v 0.082299 0.161649 0.020000
v 0.088328 0.164146 0.000000
v 0.088328 0.164146 0.020000
v 0.094799 0.164998 0.000000
v 0.094799 0.164998 0.020000
v 0.101269 0.164146 0.000000
v 0.101269 0.164146 0.020000
v 0.107299 0.161649 0.000000
v 0.107299 0.161649 0.020000
v 0.112476 0.157676 0.000000
v 0.112476 0.157676 0.020000
v 0.116449 0.152498 0.000000
v 0.116449 0.152498 0.020000
v 0.118947 0.146469 0.000000
v 0.118947 0.146469 0.020000
v 0.119798 0.139998 0.000000
v 0.119798 0.139998 0.020000
v 0.118947 0.133528 0.000000
v 0.118947 0.133528 0.020000
v 0.116449 0.127498 0.000000
v 0.116449 0.127498 0.020000
v 0.112476 0.122321 0.000000
v 0.112476 0.122321 0.020000
v 0.107299 0.118348 0.000000
v 0.107299 0.118348 0.020000
v 0.101269 0.115850 0.000000
v 0.101269 0.115850 0.020000
v 0.094799 0.114999 0.000000
v 0.094799 0.114999 0.020000
v 0.088328 0.115850 0.000000
v 0.088328 0.115850 0.020000
v 0.082299 0.118348 0.000000
v 0.082299 0.118348 0.020000
v 0.077121 0.122321 0.000000
v 0.077121 0.122321 0.020000
v 0.073148 0.127498 0.000000
v 0.073148 0.127498 0.020000
v 0.070651 0.133528 0.000000
v 0.070651 0.133528 0.020000
v 0.660192 0.754990 0.000000
v 0.660192 0.754990 0.020000
v 0.661043 0.761461 0.000000
v 0.661043 0.761461 0.020000
v 0.663541 0.767490 0.000000
v 0.663541 0.767490 0.020000
v 0.667514 0.772668 0.000000
v 0.667514 0.772668 0.020000
v 0.672691 0.776641 0.000000
v 0.672691 0.776641 0.020000
v 0.678721 0.779138 0.000000
v 0.678721 0.779138 0.020000
v 0.685191 0.779990 0.000000
v 0.685191 0.779990 0.020000
v 0.691662 0.779138 0.000000
v 0.691662 0.779138 0.020000
v 0.697691 0.776641 0.000000
v 0.697691 0.776641 0.020000
v 0.702869 0.772668 0.000000
v 0.702869 0.772668 0.020000
v 0.706842 0.767490 0.000000
v 0.706842 0.767490 0.020000
v 0.709339 0.761461 0.000000
v 0.709339 0.761461 0.020000
v 0.710191 0.754990 0.000000
v 0.710191 0.754990 0.020000
v 0.709339 0.748520 0.000000
v 0.709339 0.748520 0.020000
v 0.706842 0.742490 0.000000
v 0.706842 0.742490 0.020000
v 0.702869 0.737313 0.000000
v 0.702869 0.737313 0.020000
v 0.697691 0.733340 0.000000
v 0.697691 0.733340 0.020000
v 0.691662 0.730842 0.000000
v 0.691662 0.730842 0.020000
v 0.685191 0.729991 0.000000
v 0.685191 0.729991 0.020000
v 0.678721 0.730842 0.000000
v 0.678721 0.730842 0.020000
v 0.672691 0.733340 0.000000
v 0.672691 0.733340 0.020000
v 0.667514 0.737313 0.000000
v 0.667514 0.737313 0.020000
v 0.663541 0.742490 0.000000
v 0.663541 0.742490 0.020000
v 0.661043 0.748520 0.000000
v 0.661043 0.748520 0.020000
v 0.069799 0.754990 0.000000
v 0.069799 0.754990 0.020000
v 0.070651 0.761461 0.000000
v 0.070651 0.761461 0.020000
v 0.073148 0.767490 0.000000
v 0.073148 0.767490 0.020000
v 0.077121 0.772668 0.000000
v 0.077121 0.772668 0.020000
v 0.082299 0.776641 0.000000
v 0.082299 0.776641 0.020000
v 0.088328 0.779138 0.000000
v 0.088328 0.779138 0.020000
v 0.094799 0.779990 0.000000
v 0.094799 0.779990 0.020000
v 0.101269 0.779138 0.000000
v 0.101269 0.779138 0.020000
v 0.107299 0.776641 0.000000
v 0.107299 0.776641 0.020000
v 0.112476 0.772668 0.000000
v 0.112476 0.772668 0.020000
v 0.116449 0.767490 0.000000
v 0.116449 0.767490 0.020000
v 0.118947 0.761461 0.000000
v 0.118947 0.761461 0.020000
v 0.119798 0.754990 0.000000
v 0.119798 0.754990 0.020000
v 0.118947 0.748520 0.000000
v 0.118947 0.748520 0.020000
v 0.116449 0.742490 0.000000
v 0.116449 0.742490 0.020000
v 0.112476 0.737313 0.000000
v 0.112476 0.737313 0.020000
v 0.107299 0.733340 0.000000
v 0.107299 0.733340 0.020000
v 0.101269 0.730842 0.000000
v 0.101269 0.730842 0.020000
v 0.094799 0.729991 0.000000
v 0.094799 0.729991 0.020000
v 0.088328 0.730842 0.000000
v 0.088328 0.730842 0.020000
v 0.082299 0.733340 0.000000
v 0.082299 0.733340 0.020000
v 0.077121 0.737313 0.000000
v 0.077121 0.737313 0.020000
v 0.073148 0.742490 0.000000
v 0.073148 0.742490 0.020000
v 0.070651 0.748520 0.000000
v 0.070651 0.748520 0.020000
v 0.064799 0.139998 0.020000
v 0.064799 0.139998 0.109999
v 0.065821 0.147763 0.020000
v 0.065821 0.147763 0.109999
v 0.068818 0.154998 0.020000
v 0.068818 0.154998 0.109999
v 0.073586 0.161211 0.020000
v 0.073586 0.161211 0.109999
v 0.079799 0.165979 0.020000
v 0.079799 0.165979 0.109999
v 0.087034 0.168976 0.020000
v 0.087034 0.168976 0.109999
v 0.094799 0.169998 0.020000
v 0.094799 0.169998 0.109999
v 0.102563 0.168976 0.020000
v 0.102563 0.168976 0.109999
v 0.109799 0.165979 0.020000
v 0.109799 0.165979 0.109999
v 0.116012 0.161211 0.020000
v 0.116012 0.161211 0.109999
v 0.120779 0.154998 0.020000
v 0.120779 0.154998 0.109999
v 0.123776 0.147763 0.020000
v 0.123776 0.147763 0.109999
v 0.124798 0.139998 0.020000
v 0.124798 0.139998 0.109999
v 0.123776 0.132234 0.020000
v 0.123776 0.132234 0.109999
v 0.120779 0.124998 0.020000
v 0.120779 0.124998 0.109999
v 0.116012 0.118785 0.020000
v 0.116012 0.118785 0.109999
v 0.109799 0.114018 0.020000
v 0.109799 0.114018 0.109999
v 0.102563 0.111021 0.020000
v 0.102563 0.111021 0.109999
v 0.094799 0.109999 0.020000
v 0.094799 0.109999 0.109999
v 0.087034 0.111021 0.020000
v 0.087034 0.111021 0.109999
v 0.079799 0.114018 0.020000
v 0.079799 0.114018 0.109999
v 0.073586 0.118785 0.020000
v 0.073586 0.118785 0.109999
v 0.068818 0.124998 0.020000
v 0.068818 0.124998 0.109999
v 0.065821 0.132234 0.020000
v 0.065821 0.132234 0.109999
v 0.655192 0.139998 0.020000
v 0.655192 0.139998 0.109999
v 0.656214 0.147763 0.020000
v 0.656214 0.147763 0.109999
v 0.659211 0.154998 0.020000
v 0.659211 0.154998 0.109999
v 0.663978 0.161211 0.020000
v 0.663978 0.161211 0.109999
v 0.670191 0.165979 0.020000
v 0.670191 0.165979 0.109999
v 0.677427 0.168976 0.020000
v 0.677427 0.168976 0.109999
v 0.685191 0.169998 0.020000
v 0.685191 0.169998 0.109999
v 0.692956 0.168976 0.020000
v 0.692956 0.168976 0.109999
v 0.700191 0.165979 0.020000
v 0.700191 0.165979 0.109999
v 0.706404 0.161211 0.020000
v 0.706404 0.161211 0.109999
v 0.711172 0.154998 0.020000
v 0.711172 0.154998 0.109999
v 0.714169 0.147763 0.020000
v 0.714169 0.147763 0.109999
v 0.715191 0.139998 0.020000
v 0.715191 0.139998 0.109999
v 0.714169 0.132234 0.020000
v 0.714169 0.132234 0.109999
v 0.711172 0.124998 0.020000
v 0.711172 0.124998 0.109999
v 0.706404 0.118785 0.020000
v 0.706404 0.118785 0.109999
v 0.700191 0.114018 0.020000
v 0.700191 0.114018 0.109999
v 0.692956 0.111021 0.020000
v 0.692956 0.111021 0.109999
v 0.685191 0.109999 0.020000
v 0.685191 0.109999 0.109999
v 0.677427 0.111021 0.020000
v 0.677427 0.111021 0.109999
v 0.670191 0.114018 0.020000
v 0.670191 0.114018 0.109999
v 0.663978 0.118785 0.020000
v 0.663978 0.118785 0.109999
v 0.659211 0.124998 0.020000
v 0.659211 0.124998 0.109999
v 0.656214 0.132234 0.020000
v 0.656214 0.132234 0.109999
v 0.655192 0.754990 0.020000
v 0.655192 0.754990 0.109999
v 0.656214 0.762755 0.020000
v 0.656214 0.762755 0.109999
v 0.659211 0.769990 0.020000
v 0.659211 0.769990 0.109999
v 0.663978 0.776203 0.020000
v 0.663978 0.776203 0.109999
v 0.670191 0.780971 0.020000
v 0.670191 0.780971 0.109999
v 0.677427 0.783968 0.020000
v 0.677427 0.783968 0.109999
v 0.685191 0.784990 0.020000
v 0.685191 0.784990 0.109999
v 0.692956 0.783968 0.020000
v 0.692956 0.783968 0.109999
v 0.700191 0.780971 0.020000
v 0.700191 0.780971 0.109999
v 0.706404 0.776203 0.020000
v 0.706404 0.776203 0.109999
v 0.711172 0.769990 0.020000
v 0.711172 0.769990 0.109999
v 0.714169 0.762755 0.020000
v 0.714169 0.762755 0.109999
v 0.715191 0.754990 0.020000
v 0.715191 0.754990 0.109999
v 0.714169 0.747226 0.020000
v 0.714169 0.747226 0.109999
v 0.711172 0.739990 0.020000
v 0.711172 0.739990 0.109999
v 0.706404 0.733777 0.020000
v 0.706404 0.733777 0.109999
v 0.700191 0.729010 0.020000
v 0.700191 0.729010 0.109999
v 0.692956 0.726013 0.020000
v 0.692956 0.726013 0.109999
v 0.685191 0.724991 0.020000
v 0.685191 0.724991 0.109999
v 0.677427 0.726013 0.020000
v 0.677427 0.726013 0.109999
v 0.670191 0.729010 0.020000
v 0.670191 0.729010 0.109999
v 0.663978 0.733777 0.020000
v 0.663978 0.733777 0.109999
v 0.659211 0.739990 0.020000
v 0.659211 0.739990 0.109999
v 0.656214 0.747226 0.020000
v 0.656214 0.747226 0.109999
v 0.064799 0.754990 0.020000
v 0.064799 0.754990 0.109999
v 0.065821 0.762755 0.020000
v 0.065821 0.762755 0.109999
v 0.068818 0.769990 0.020000
v 0.068818 0.769990 0.109999
v 0.073586 0.776203 0.020000
v 0.073586 0.776203 0.109999
v 0.079799 0.780971 0.020000
v 0.079799 0.780971 0.109999
v 0.087034 0.783968 0.020000
v 0.087034 0.783968 0.109999
v 0.094799 0.784990 0.020000
v 0.094799 0.784990 0.109999
v 0.102563 0.783968 0.020000
v 0.102563 0.783968 0.109999
v 0.109799 0.780971 0.020000
v 0.109799 0.780971 0.109999
v 0.116012 0.776203 0.020000
v 0.116012 0.776203 0.109999
v 0.120779 0.769990 0.020000
v 0.120779 0.769990 0.109999
v 0.123776 0.762755 0.020000
v 0.123776 0.762755 0.109999
v 0.124798 0.754990 0.020000
v 0.124798 0.754990 0.109999
v 0.123776 0.747226 0.020000
v 0.123776 0.747226 0.109999
v 0.120779 0.739990 0.020000
v 0.120779 0.739990 0.109999
v 0.116012 0.733777 0.020000
v 0.116012 0.733777 0.109999
v 0.109799 0.729010 0.020000
v 0.109799 0.729010 0.109999
v 0.102563 0.726013 0.020000
v 0.102563 0.726013 0.109999
v 0.094799 0.724991 0.020000
v 0.094799 0.724991 0.109999
v 0.087034 0.726013 0.020000
v 0.087034 0.726013 0.109999
v 0.079799 0.729010 0.020000
v 0.079799 0.729010 0.109999
v 0.073586 0.733777 0.020000
v 0.073586 0.733777 0.109999
v 0.068818 0.739990 0.020000
v 0.068818 0.739990 0.109999
v 0.065821 0.747226 0.020000
v 0.065821 0.747226 0.109999
v 0.726591 0.063999 0.128996
v 0.691591 0.063999 0.128996
v 0.726591 0.051740 0.128996
v 0.691591 0.051740 0.128996
v 0.726591 0.061499 0.126496
v 0.691591 0.061499 0.126496
v 0.726591 0.061499 0.109999
v 0.691591 0.061499 0.109999
v 0.726591 0.021188 0.126496
v 0.691591 0.021188 0.126496
v 0.726591 0.021188 0.135498
v 0.691591 0.021188 0.135498
v 0.726591 0.023688 0.135498
v 0.691591 0.023688 0.135498
v 0.726591 0.023688 0.128996
v 0.691591 0.023688 0.128996
v 0.691591 0.063999 0.109999
v 0.726591 0.063999 0.109999
v 0.020000 0.063999 0.109999
v 0.040599 0.063999 1.789942
v 0.020000 0.063999 2.079973
v 0.040599 0.063999 2.079939
v 0.734591 0.063999 2.079939
v 0.726591 0.063999 1.782942
v 0.691591 0.063999 1.782942
v 0.691591 0.063999 1.789942
v 0.759990 0.063999 0.109999
v 0.734591 0.063999 1.789942
v 0.759990 0.063999 2.079973
v 0.726591 0.063999 1.789942
v 0.726591 0.036051 1.782942
v 0.691591 0.036051 1.782942
v 0.726591 0.061051 1.782942
v 0.691591 0.061051 1.782942
v 0.726591 0.036051 1.785442
v 0.691591 0.036051 1.785442
v 0.726591 0.061499 1.785442
v 0.691591 0.061499 1.785442
v 0.726591 0.061499 1.789942
v 0.691591 0.061499 1.789942
v 0.040599 0.000000 1.789942
v 0.734591 0.000000 1.789942
v 0.040599 0.000000 2.079939
v 0.734591 0.000000 2.079939
v 0.759990 0.851989 2.079973
v 0.759990 0.851989 0.109999
v 0.020000 0.851989 2.079973
v 0.020000 0.851989 0.109999
v 0.094999 0.795990 1.753943
v 0.094999 0.088999 1.753943
v 0.094999 0.795990 0.179674
v 0.094999 0.088999 0.179674
v 0.684991 0.795990 1.753943
v 0.684991 0.088999 1.753943
v 0.389995 0.795990 0.169998
v 0.389995 0.088999 0.169998
v 0.684991 0.795990 0.179998
v 0.684991 0.088999 0.179998
v 0.726591 0.049695 0.132247
v 0.691591 0.049695 0.132247
v 0.726591 0.052196 0.132247
v 0.691591 0.052196 0.132247
v 0.726591 0.049695 0.135498
v 0.691591 0.049695 0.135498
v 0.726591 0.025688 0.135498
v 0.691591 0.025688 0.135498
v 0.726591 0.025688 0.137998
v 0.691591 0.025688 0.137998
v 0.726591 0.052196 0.137998
v 0.691591 0.052196 0.137998
vn -0.9914 0.1305 -0.0000
vn -0.9239 0.3827 -0.0000
vn -0.7934 0.6088 -0.0000
vn -0.6088 0.7934 -0.0000
vn -0.3827 0.9239 -0.0000
vn -0.1305 0.9914 -0.0000
vn 0.1305 0.9914 -0.0000
vn 0.3827 0.9239 -0.0000
vn 0.6088 0.7934 -0.0000
vn 0.7934 0.6088 -0.0000
vn 0.9239 0.3827 -0.0000
vn 0.9914 0.1305 -0.0000
vn 0.9914 -0.1305 -0.0000
vn 0.9239 -0.3827 -0.0000
vn 0.7934 -0.6088 -0.0000
vn 0.6088 -0.7934 -0.0000
vn 0.3827 -0.9239 -0.0000
vn 0.1305 -0.9914 -0.0000
vn -0.1305 -0.9914 -0.0000
vn -0.3827 -0.9239 -0.0000
vn -0.6088 -0.7934 -0.0000
vn -0.7934 -0.6088 -0.0000
vn -0.9239 -0.3827 -0.0000
vn -0.9914 -0.1305 -0.0000
vn -0.0000 -0.0000 -1.0000
vn -0.7933 0.6088 -0.0000
vn -0.6088 0.7933 -0.0000
vn -0.6088 -0.7933 -0.0000
vn -0.7933 -0.6088 -0.0000
vn 0.6088 0.7933 -0.0000
vn 0.7933 0.6088 -0.0000
vn 0.7933 -0.6088 -0.0000
vn 0.6088 -0.7933 -0.0000
vn -0.0000 -0.0000 1.0000
vn -0.0000 -1.0000 -0.0000
vn -0.0000 1.0000 -0.0000
vn -1.0000 -0.0000 -0.0000
vn 1.0000 -0.0000 -0.0000
vn 0.0328 -0.0000 0.9995
vn -0.0339 -0.0000 0.9994
s 0
f 1//1 2//1 3//1
f 3//1 2//1 4//1
f 3//2 4//2 5//2
f 5//2 4//2 6//2
f 5//3 6//3 7//3
f 7//3 6//3 8//3
f 7//4 8//4 9//4
f 9//4 8//4 10//4
f 9//5 10//5 11//5
f 11//5 10//5 12//5
f 11//6 12//6 13//6
f 13//6 12//6 14//6
f 13//7 14//7 15//7
f 15//7 14//7 16//7
f 15//8 16//8 17//8
f 17//8 16//8 18//8
f 17//9 18//9 19//9
f 19//9 18//9 20//9
f 19//10 20//10 21//10
f 21//10 20//10 22//10
f 21//11 22//11 23//11
f 23//11 22//11 24//11
f 23//12 24//12 25//12
f 25//12 24//12 26//12
f 25//13 26//13 27//13
f 27//13 26//13 28//13
f 27//14 28//14 29//14
f 29//14 28//14 30//14
f 29//15 30//15 31//15
f 31//15 30//15 32//15
f 31//16 32//16 33//16
f 33//16 32//16 34//16
f 33//17 34//17 35//17
f 35//17 34//17 36//17
f 35//18 36//18 37//18
f 37//18 36//18 38//18
f 37//19 38//19 39//19
f 39//19 38//19 40//19
f 39//20 40//20 41//20
f 41//20 40//20 42//20
f 41//21 42//21 43//21
f 43//21 42//21 44//21
f 43//22 44//22 45//22
f 45//22 44//22 46//22
f 45//23 46//23 47//23
f 47//23 46//23 48//23
f 47//24 48//24 1//24
f 1//24 48//24 2//24
f 1//25 3//25 47//25
f 47//25 3//25 45//25
f 45//25 3//25 5//25
f 45//25 5//25 43//25
f 43//25 5//25 7//25
f 43//25 7//25 41//25
f 41//25 7//25 9//25
f 41//25 9//25 39//25
f 39//25 9//25 11//25
f 39//25 11//25 37//25
f 37//25 11//25 13//25
f 37//25 13//25 35//25
f 35//25 13//25 15//25
f 35//25 15//25 33//25
f 33//25 15//25 17//25
f 33//25 17//25 31//25
f 31//25 17//25 19//25
f 31//25 19//25 29//25
f 29//25 19//25 21//25
f 29//25 21//25 27//25
f 27//25 21//25 23//25
f 27//25 23//25 25//25
f 49//1 50//1 51//1
f 51//1 50//1 52//1
f 51//2 52//2 53//2
f 53//2 52//2 54//2
f 53//3 54//3 55//3
f 55//3 54//3 56//3
f 55//4 56//4 57//4
f 57//4 56//4 58//4
f 57//5 58//5 59//5
f 59//5 58//5 60//5
f 59//6 60//6 61//6
f 61//6 60//6 62//6
f 61//7 62//7 63//7
f 63//7 62//7 64//7
f 63//8 64//8 65//8
f 65//8 64//8 66//8
f 65//9 66//9 67//9
f 67//9 66//9 68//9
f 67//10 68//10 69//10
f 69//10 68//10 70//10
f 69//11 70//11 71//11
f 71//11 70//11 72//11
f 71//12 72//12 73//12
f 73//12 72//12 74//12
f 73//13 74//13 75//13
f 75//13 74//13 76//13
f 75//14 76//14 77//14
f 77//14 76//14 78//14
f 77//15 78//15 79//15
f 79//15 78//15 80//15
f 79//16 80//16 81//16
f 81//16 80//16 82//16
f 81//17 82//17 83//17
f 83//17 82//17 84//17
f 83//18 84//18 85//18
f 85//18 84//18 86//18
f 85//19 86//19 87//19
f 87//19 86//19 88//19
f 87//20 88//20 89//20
f 89//20 88//20 90//20
f 89//21 90//21 91//21
f 91//21 90//21 92//21
f 91//22 92//22 93//22
f 93//22 92//22 94//22
f 93//23 94//23 95//23
f 95//23 94//23 96//23
f 95//24 96//24 49//24
f 49//24 96//24 50//24
f 49//25 51//25 95//25
f 95//25 51//25 93//25
f 93//25 51//25 53//25
f 93//25 53//25 91//25
f 91//25 53//25 55//25
f 91//25 55//25 89//25
f 89//25 55//25 57//25
f 89//25 57//25 87//25
f 87//25 57//25 59//25
f 87//25 59//25 85//25
f 85//25 59//25 61//25
f 85//25 61//25 83//25
f 83//25 61//25 63//25
f 83//25 63//25 81//25
f 81//25 63//25 65//25
f 81//25 65//25 79//25
f 79//25 65//25 67//25
f 79//25 67//25 77//25
f 77//25 67//25 69//25
f 77//25 69//25 75//25
f 75//25 69//25 71//25
f 75//25 71//25 73//25
f 97//1 98//1 99//1
f 99//1 98//1 100//1
f 99//2 100//2 101//2
f 101//2 100//2 102//2
f 101//26 102//26 103//26
f 103//3 102//3 104//3
f 103//4 104//4 105//4
f 105//27 104//27 106//27
f 105//5 106//5 107//5
f 107//5 106//5 108//5
f 107//6 108//6 109//6
f 109//6 108//6 110//6
f 109//7 110//7 111//7
f 111//7 110//7 112//7
f 111//8 112//8 113//8
f 113//8 112//8 114//8
f 113//9 114//9 115//9
f 115//9 114//9 116//9
f 115//10 116//10 117//10
f 117//10 116//10 118//10
f 117//11 118//11 119//11
f 119//11 118//11 120//11
f 119//12 120//12 121//12
f 121//12 120//12 122//12
f 121//13 122//13 123//13
f 123//13 122//13 124//13
f 123//14 124//14 125//14
f 125//14 124//14 126//14
f 125//15 126//15 127//15
f 127//15 126//15 128//15
f 127//16 128//16 129//16
f 129//16 128//16 130//16
f 129//17 130//17 131//17
f 131//17 130//17 132//17
f 131//18 132//18 133//18
f 133//18 132//18 134//18
f 133//19 134//19 135//19
f 135//19 134//19 136//19
f 135//20 136//20 137//20
f 137//20 136//20 138//20
f 137//28 138//28 139//28
f 139//21 138//21 140//21
f 139//22 140//22 141//22
f 141//29 140//29 142//29
f 141//23 142//23 143//23
f 143//23 142//23 144//23
f 143//24 144//24 97//24
f 97//24 144//24 98//24
f 97//25 99//25 143//25
f 143//25 99//25 141//25
f 141//25 99//25 101//25
f 141//25 101//25 139//25
f 139//25 101//25 103//25
f 139//25 103//25 137//25
f 137//25 103//25 105//25
f 137//25 105//25 135//25
f 135//25 105//25 107//25
f 135//25 107//25 133//25
f 133//25 107//25 109//25
f 133//25 109//25 131//25
f 131//25 109//25 111//25
f 131//25 111//25 129//25
f 129//25 111//25 113//25
f 129//25 113//25 127//25
f 127//25 113//25 115//25
f 127//25 115//25 125//25
f 125//25 115//25 117//25
f 125//25 117//25 123//25
f 123//25 117//25 119//25
f 123//25 119//25 121//25
f 145//1 146//1 147//1
f 147//1 146//1 148//1
f 147//2 148//2 149//2
f 149//2 148//2 150//2
f 149//3 150//3 151//3
f 151//3 150//3 152//3
f 151//4 152//4 153//4
f 153//4 152//4 154//4
f 153//5 154//5 155//5
f 155//5 154//5 156//5
f 155//6 156//6 157//6
f 157//6 156//6 158//6
f 157//7 158//7 159//7
f 159//7 158//7 160//7
f 159//8 160//8 161//8
f 161//8 160//8 162//8
f 161//9 162//9 163//9
f 163//9 162//9 164//9
f 163//10 164//10 165//10
f 165//10 164//10 166//10
f 165//11 166//11 167//11
f 167//11 166//11 168//11
f 167//12 168//12 169//12
f 169//12 168//12 170//12
f 169//13 170//13 171//13
f 171//13 170//13 172//13
f 171//14 172//14 173//14
f 173//14 172//14 174//14
f 173//15 174//15 175//15
f 175//15 174//15 176//15
f 175//16 176//16 177//16
f 177//16 176//16 178//16
f 177//17 178//17 179//17
f 179//17 178//17 180//17
f 179//18 180//18 181//18
f 181//18 180//18 182//18
f 181//19 182//19 183//19
f 183//19 182//19 184//19
f 183//20 184//20 185//20
f 185//20 184//20 186//20
f 185//21 186//21 187//21
f 187//21 186//21 188//21
f 187//22 188//22 189//22
f 189//22 188//22 190//22
f 189//23 190//23 191//23
f 191//23 190//23 192//23
f 191//24 192//24 145//24
f 145//24 192//24 146//24
f 145//25 147//25 191//25
f 191//25 147//25 189//25
f 189//25 147//25 149//25
f 189//25 149//25 187//25
f 187//25 149//25 151//25
f 187//25 151//25 185//25
f 185//25 151//25 153//25
f 185//25 153//25 183//25
f 183//25 153//25 155//25
f 183//25 155//25 181//25
f 181//25 155//25 157//25
f 181//25 157//25 179//25
f 179//25 157//25 159//25
f 179//25 159//25 177//25
f 177//25 159//25 161//25
f 177//25 161//25 175//25
f 175//25 161//25 163//25
f 175//25 163//25 173//25
f 173//25 163//25 165//25
f 173//25 165//25 171//25
f 171//25 165//25 167//25
f 171//25 167//25 169//25
f 193//1 194//1 195//1
f 195//1 194//1 196//1
f 195//2 196//2 197//2
f 197//2 196//2 198//2
f 197//3 198//3 199//3
f 199//3 198//3 200//3
f 199//4 200//4 201//4
f 201//4 200//4 202//4
f 201//5 202//5 203//5
f 203//5 202//5 204//5
f 203//6 204//6 205//6
f 205//6 204//6 206//6
f 205//7 206//7 207//7
f 207//7 206//7 208//7
f 207//8 208//8 209//8
f 209//8 208//8 210//8
f 209//9 210//9 211//9
f 211//9 210//9 212//9
f 211//10 212//10 213//10
f 213//10 212//10 214//10
f 213//11 214//11 215//11
f 215//11 214//11 216//11
f 215//12 216//12 217//12
f 217//12 216//12 218//12
f 217//13 218//13 219//13
f 219//13 218//13 220//13
f 219//14 220//14 221//14
f 221//14 220//14 222//14
f 221//15 222//15 223//15
f 223//15 222//15 224//15
f 223//16 224//16 225//16
f 225//16 224//16 226//16
f 225//17 226//17 227//17
f 227//17 226//17 228//17
f 227//18 228//18 229//18
f 229//18 228//18 230//18
f 229//19 230//19 231//19
f 231//19 230//19 232//19
f 231//20 232//20 233//20
f 233//20 232//20 234//20
f 233//21 234//21 235//21
f 235//21 234//21 236//21
f 235//22 236//22 237//22
f 237//22 236//22 238//22
f 237//23 238//23 239//23
f 239//23 238//23 240//23
f 239//24 240//24 193//24
f 193//24 240//24 194//24
f 72//25 215//25 74//25
f 74//25 215//25 217//25
f 74//25 217//25 219//25
f 215//25 72//25 213//25
f 213//25 72//25 70//25
f 213//25 70//25 211//25
f 211//25 70//25 68//25
f 211//25 68//25 209//25
f 209//25 68//25 66//25
f 209//25 66//25 207//25
f 207//25 66//25 64//25
f 207//25 64//25 205//25
f 205//25 64//25 62//25
f 205//25 62//25 60//25
f 205//25 60//25 203//25
f 203//25 60//25 58//25
f 203//25 58//25 201//25
f 201//25 58//25 56//25
f 201//25 56//25 199//25
f 199//25 56//25 54//25
f 199//25 54//25 197//25
f 197//25 54//25 52//25
f 197//25 52//25 195//25
f 195//25 52//25 50//25
f 195//25 50//25 193//25
f 193//25 50//25 239//25
f 239//25 50//25 96//25
f 239//25 96//25 237//25
f 237//25 96//25 94//25
f 237//25 94//25 235//25
f 235//25 94//25 92//25
f 235//25 92//25 233//25
f 233//25 92//25 90//25
f 233//25 90//25 231//25
f 231//25 90//25 88//25
f 231//25 88//25 229//25
f 229//25 88//25 86//25
f 229//25 86//25 227//25
f 227//25 86//25 84//25
f 227//25 84//25 82//25
f 227//25 82//25 225//25
f 225//25 82//25 80//25
f 225//25 80//25 223//25
f 223//25 80//25 78//25
f 223//25 78//25 221//25
f 221//25 78//25 76//25
f 221//25 76//25 219//25
f 219//25 76//25 74//25
f 241//1 242//1 243//1
f 243//1 242//1 244//1
f 243//2 244//2 245//2
f 245//2 244//2 246//2
f 245//26 246//26 247//26
f 247//3 246//3 248//3
f 247//4 248//4 249//4
f 249//4 248//4 250//4
f 249//5 250//5 251//5
f 251//5 250//5 252//5
f 251//6 252//6 253//6
f 253//6 252//6 254//6
f 253//7 254//7 255//7
f 255//7 254//7 256//7
f 255//8 256//8 257//8
f 257//8 256//8 258//8
f 257//9 258//9 259//9
f 259//30 258//30 260//30
f 259//31 260//31 261//31
f 261//10 260//10 262//10
f 261//11 262//11 263//11
f 263//11 262//11 264//11
f 263//12 264//12 265//12
f 265//12 264//12 266//12
f 265//13 266//13 267//13
f 267//13 266//13 268//13
f 267//14 268//14 269//14
f 269//14 268//14 270//14
f 269//15 270//15 271//15
f 271//32 270//32 272//32
f 271//33 272//33 273//33
f 273//16 272//16 274//16
f 273//17 274//17 275//17
f 275//17 274//17 276//17
f 275//18 276//18 277//18
f 277//18 276//18 278//18
f 277//19 278//19 279//19
f 279//19 278//19 280//19
f 279//20 280//20 281//20
f 281//20 280//20 282//20
f 281//21 282//21 283//21
f 283//21 282//21 284//21
f 283//22 284//22 285//22
f 285//29 284//29 286//29
f 285//23 286//23 287//23
f 287//23 286//23 288//23
f 287//24 288//24 241//24
f 241//24 288//24 242//24
f 24//25 263//25 26//25
f 26//25 263//25 265//25
f 26//25 265//25 267//25
f 263//25 24//25 261//25
f 261//25 24//25 22//25
f 261//25 22//25 259//25
f 259//25 22//25 20//25
f 259//25 20//25 257//25
f 257//25 20//25 18//25
f 257//25 18//25 255//25
f 255//25 18//25 16//25
f 255//25 16//25 253//25
f 253//25 16//25 14//25
f 253//25 14//25 251//25
f 251//25 14//25 12//25
f 251//25 12//25 249//25
f 249//25 12//25 10//25
f 249//25 10//25 247//25
f 247//25 10//25 8//25
f 247//25 8//25 245//25
f 245//25 8//25 6//25
f 245//25 6//25 243//25
f 243//25 6//25 4//25
f 243//25 4//25 241//25
f 241//25 4//25 2//25
f 241//25 2//25 48//25
f 241//25 48//25 287//25
f 287//25 48//25 46//25
f 287//25 46//25 285//25
f 285//25 46//25 44//25
f 285//25 44//25 283//25
f 283//25 44//25 42//25
f 283//25 42//25 281//25
f 281//25 42//25 40//25
f 281//25 40//25 279//25
f 279//25 40//25 38//25
f 279//25 38//25 277//25
f 277//25 38//25 36//25
f 277//25 36//25 275//25
f 275//25 36//25 34//25
f 275//25 34//25 273//25
f 273//25 34//25 32//25
f 273//25 32//25 271//25
f 271//25 32//25 30//25
f 271//25 30//25 269//25
f 269//25 30//25 28//25
f 269//25 28//25 267//25
f 267//25 28//25 26//25
f 289//1 290//1 291//1
f 291//1 290//1 292//1
f 291//2 292//2 293//2
f 293//2 292//2 294//2
f 293//26 294//26 295//26
f 295//3 294//3 296//3
f 295//4 296//4 297//4
f 297//4 296//4 298//4
f 297//5 298//5 299//5
f 299//5 298//5 300//5
f 299//6 300//6 301//6
f 301//6 300//6 302//6
f 301//7 302//7 303//7
f 303//7 302//7 304//7
f 303//8 304//8 305//8
f 305//8 304//8 306//8
f 305//9 306//9 307//9
f 307//30 306//30 308//30
f 307//31 308//31 309//31
f 309//10 308//10 310//10
f 309//11 310//11 311//11
f 311//11 310//11 312//11
f 311//12 312//12 313//12
f 313//12 312//12 314//12
f 313//13 314//13 315//13
f 315//13 314//13 316//13
f 315//14 316//14 317//14
f 317//14 316//14 318//14
f 317//15 318//15 319//15
f 319//32 318//32 320//32
f 319//33 320//33 321//33
f 321//16 320//16 322//16
f 321//17 322//17 323//17
f 323//17 322//17 324//17
f 323//18 324//18 325//18
f 325//18 324//18 326//18
f 325//19 326//19 327//19
f 327//19 326//19 328//19
f 327//20 328//20 329//20
f 329//20 328//20 330//20
f 329//21 330//21 331//21
f 331//21 330//21 332//21
f 331//22 332//22 333//22
f 333//29 332//29 334//29
f 333//23 334//23 335//23
f 335//23 334//23 336//23
f 335//24 336//24 289//24
f 289//24 336//24 290//24
f 120//25 311//25 122//25
f 122//25 311//25 313//25
f 122//25 313//25 315//25
f 311//25 120//25 309//25
f 309//25 120//25 118//25
f 309//25 118//25 307//25
f 307//25 118//25 116//25
f 307//25 116//25 305//25
f 305//25 116//25 114//25
f 305//25 114//25 303//25
f 303//25 114//25 112//25
f 303//25 112//25 301//25
f 301//25 112//25 110//25
f 301//25 110//25 108//25
f 301//25 108//25 299//25
f 299//25 108//25 106//25
f 299//25 106//25 297//25
f 297//25 106//25 104//25
f 297//25 104//25 295//25
f 295//25 104//25 102//25
f 295//25 102//25 293//25
f 293//25 102//25 100//25
f 293//25 100//25 291//25
f 291//25 100//25 98//25
f 291//25 98//25 289//25
f 289//25 98//25 335//25
f 335//25 98//25 144//25
f 335//25 144//25 333//25
f 333//25 144//25 142//25
f 333//25 142//25 331//25
f 331//25 142//25 140//25
f 331//25 140//25 329//25
f 329//25 140//25 138//25
f 329//25 138//25 327//25
f 327//25 138//25 136//25
f 327//25 136//25 325//25
f 325//25 136//25 134//25
f 325//25 134//25 323//25
f 323//25 134//25 132//25
f 323//25 132//25 130//25
f 323//25 130//25 321//25
f 321//25 130//25 128//25
f 321//25 128//25 319//25
f 319//25 128//25 126//25
f 319//25 126//25 317//25
f 317//25 126//25 124//25
f 317//25 124//25 315//25
f 315//25 124//25 122//25
f 337//1 338//1 339//1
f 339//1 338//1 340//1
f 339//2 340//2 341//2
f 341//2 340//2 342//2
f 341//3 342//3 343//3
f 343//3 342//3 344//3
f 343//4 344//4 345//4
f 345//4 344//4 346//4
f 345//5 346//5 347//5
f 347//5 346//5 348//5
f 347//6 348//6 349//6
f 349//6 348//6 350//6
f 349//7 350//7 351//7
f 351//7 350//7 352//7
f 351//8 352//8 353//8
f 353//8 352//8 354//8
f 353//9 354//9 355//9
f 355//9 354//9 356//9
f 355//10 356//10 357//10
f 357//10 356//10 358//10
f 357//11 358//11 359//11
f 359//11 358//11 360//11
f 359//12 360//12 361//12
f 361//12 360//12 362//12
f 361//13 362//13 363//13
f 363//13 362//13 364//13
f 363//14 364//14 365//14
f 365//14 364//14 366//14
f 365//15 366//15 367//15
f 367//15 366//15 368//15
f 367//16 368//16 369//16
f 369//16 368//16 370//16
f 369//17 370//17 371//17
f 371//17 370//17 372//17
f 371//18 372//18 373//18
f 373//18 372//18 374//18
f 373//19 374//19 375//19
f 375//19 374//19 376//19
f 375//20 376//20 377//20
f 377//20 376//20 378//20
f 377//21 378//21 379//21
f 379//21 378//21 380//21
f 379//22 380//22 381//22
f 381//22 380//22 382//22
f 381//23 382//23 383//23
f 383//23 382//23 384//23
f 383//24 384//24 337//24
f 337//24 384//24 338//24
f 168//25 359//25 170//25
f 170//25 359//25 361//25
f 170//25 361//25 363//25
f 359//25 168//25 357//25
f 357//25 168//25 166//25
f 357//25 166//25 355//25
f 355//25 166//25 164//25
f 355//25 164//25 353//25
f 353//25 164//25 162//25
f 353//25 162//25 351//25
f 351//25 162//25 160//25
f 351//25 160//25 349//25
f 349//25 160//25 158//25
f 349//25 158//25 156//25
f 349//25 156//25 347//25
f 347//25 156//25 154//25
f 347//25 154//25 345//25
f 345//25 154//25 152//25
f 345//25 152//25 343//25
f 343//25 152//25 150//25
f 343//25 150//25 341//25
f 341//25 150//25 148//25
f 341//25 148//25 339//25
f 339//25 148//25 146//25
f 339//25 146//25 337//25
f 337//25 146//25 383//25
f 383//25 146//25 192//25
f 383//25 192//25 381//25
f 381//25 192//25 190//25
f 381//25 190//25 379//25
f 379//25 190//25 188//25
f 379//25 188//25 377//25
f 377//25 188//25 186//25
f 377//25 186//25 375//25
f 375//25 186//25 184//25
f 375//25 184//25 373//25
f 373//25 184//25 182//25
f 373//25 182//25 371//25
f 371//25 182//25 180//25
f 371//25 180//25 178//25
f 371//25 178//25 369//25
f 369//25 178//25 176//25
f 369//25 176//25 367//25
f 367//25 176//25 174//25
f 367//25 174//25 365//25
f 365//25 174//25 172//25
f 365//25 172//25 363//25
f 363//25 172//25 170//25
f 385//34 386//34 387//34
f 387//34 386//34 388//34
f 389//35 390//35 391//35
f 391//35 390//35 392//35
f 393//25 394//25 389//25
f 389//25 394//25 390//25
f 395//35 396//35 393//35
f 393//35 396//35 394//35
f 397//34 398//34 395//34
f 395//34 398//34 396//34
f 399//36 400//36 397//36
f 397//36 400//36 398//36
f 387//34 388//34 399//34
f 399//34 388//34 400//34
f 386//37 390//37 388//37
f 388//37 390//37 394//37
f 388//37 394//37 400//37
f 400//37 394//37 396//37
f 400//37 396//37 398//37
f 386//37 401//37 390//37
f 390//37 401//37 392//37
f 399//38 393//38 387//38
f 387//38 393//38 389//38
f 387//38 389//38 385//38
f 385//38 389//38 402//38
f 402//38 389//38 391//38
f 397//38 395//38 399//38
f 399//38 395//38 393//38
f 401//35 386//35 403//35
f 403//35 386//35 404//35
f 403//35 404//35 405//35
f 405//35 404//35 406//35
f 405//35 406//35 407//35
f 385//35 408//35 386//35
f 386//35 408//35 409//35
f 386//35 409//35 404//35
f 404//35 409//35 410//35
f 402//35 411//35 385//35
f 385//35 411//35 408//35
f 408//35 411//35 412//35
f 412//35 411//35 413//35
f 412//35 413//35 407//35
f 407//35 413//35 405//35
f 412//35 414//35 408//35
f 415//25 416//25 417//25
f 417//25 416//25 418//25
f 419//35 420//35 415//35
f 415//35 420//35 416//35
f 421//34 422//34 419//34
f 419//34 422//34 420//34
f 423//35 424//35 421//35
f 421//35 424//35 422//35
f 417//25 418//25 408//25
f 408//25 418//25 409//25
f 416//37 420//37 418//37
f 418//37 420//37 422//37
f 418//37 422//37 409//37
f 409//37 422//37 410//37
f 410//37 422//37 424//37
f 408//38 421//38 417//38
f 417//38 421//38 419//38
f 417//38 419//38 415//38
f 408//38 414//38 421//38
f 421//38 414//38 423//38
f 410//25 424//25 404//25
f 404//25 424//25 425//25
f 425//25 424//25 426//25
f 426//25 424//25 423//25
f 426//25 423//25 412//25
f 412//25 423//25 414//25
f 425//37 427//37 404//37
f 404//37 427//37 406//37
f 426//35 428//35 425//35
f 425//35 428//35 427//35
f 412//38 407//38 426//38
f 426//38 407//38 428//38
f 427//34 428//34 406//34
f 406//34 428//34 407//34
f 413//38 411//38 429//38
f 429//38 411//38 430//38
f 431//37 432//37 405//37
f 405//37 432//37 403//37
f 429//36 430//36 431//36
f 431//36 430//36 432//36
f 216//25 244//25 218//25
f 218//25 244//25 242//25
f 218//25 242//25 220//25
f 220//25 242//25 288//25
f 220//25 288//25 222//25
f 222//25 288//25 286//25
f 222//25 286//25 401//25
f 401//25 286//25 284//25
f 401//25 284//25 282//25
f 244//25 216//25 246//25
f 246//25 216//25 214//25
f 246//25 214//25 248//25
f 248//25 214//25 212//25
f 248//25 212//25 332//25
f 332//25 212//25 368//25
f 332//25 368//25 334//25
f 334//25 368//25 366//25
f 334//25 366//25 336//25
f 336//25 366//25 364//25
f 336//25 364//25 290//25
f 290//25 364//25 362//25
f 290//25 362//25 292//25
f 292//25 362//25 360//25
f 292//25 360//25 294//25
f 294//25 360//25 358//25
f 294//25 358//25 296//25
f 296//25 358//25 356//25
f 296//25 356//25 298//25
f 298//25 356//25 354//25
f 298//25 354//25 430//25
f 430//25 354//25 432//25
f 432//25 354//25 352//25
f 432//25 352//25 350//25
f 212//25 210//25 368//25
f 368//25 210//25 370//25
f 370//25 210//25 208//25
f 370//25 208//25 372//25
f 372//25 208//25 206//25
f 372//25 206//25 374//25
f 374//25 206//25 376//25
f 376//25 206//25 204//25
f 376//25 204//25 378//25
f 378//25 204//25 202//25
f 378//25 202//25 380//25
f 380//25 202//25 200//25
f 380//25 200//25 382//25
f 382//25 200//25 198//25
f 382//25 198//25 403//25
f 403//25 198//25 196//25
f 403//25 196//25 194//25
f 194//25 240//25 403//25
f 403//25 240//25 238//25
f 403//25 238//25 236//25
f 236//25 234//25 403//25
f 403//25 234//25 232//25
f 403//25 232//25 230//25
f 230//25 228//25 403//25
f 403//25 228//25 226//25
f 403//25 226//25 401//25
f 401//25 226//25 224//25
f 401//25 224//25 222//25
f 268//25 266//25 411//25
f 411//25 266//25 264//25
f 411//25 264//25 262//25
f 411//25 262//25 318//25
f 318//25 262//25 260//25
f 318//25 260//25 320//25
f 320//25 260//25 258//25
f 320//25 258//25 322//25
f 322//25 258//25 256//25
f 322//25 256//25 324//25
f 324//25 256//25 254//25
f 324//25 254//25 326//25
f 326//25 254//25 328//25
f 328//25 254//25 252//25
f 328//25 252//25 330//25
f 330//25 252//25 250//25
f 330//25 250//25 332//25
f 332//25 250//25 248//25
f 282//25 280//25 401//25
f 401//25 280//25 278//25
f 401//25 278//25 276//25
f 276//25 274//25 401//25
f 401//25 274//25 402//25
f 401//25 402//25 392//25
f 392//25 402//25 391//25
f 274//25 272//25 402//25
f 402//25 272//25 270//25
f 402//25 270//25 411//25
f 411//25 270//25 268//25
f 316//25 314//25 430//25
f 430//25 314//25 312//25
f 430//25 312//25 310//25
f 310//25 308//25 430//25
f 430//25 308//25 306//25
f 430//25 306//25 304//25
f 304//25 302//25 430//25
f 430//25 302//25 300//25
f 430//25 300//25 298//25
f 318//25 316//25 411//25
f 411//25 316//25 430//25
f 350//25 348//25 432//25
f 432//25 348//25 346//25
f 432//25 346//25 344//25
f 344//25 342//25 432//25
f 432//25 342//25 340//25
f 432//25 340//25 338//25
f 338//25 384//25 432//25
f 432//25 384//25 403//25
f 403//25 384//25 382//25
f 429//34 431//34 413//34
f 413//34 431//34 405//34
f 433//38 434//38 435//38
f 435//38 434//38 436//38
f 437//25 438//25 433//25
f 433//25 438//25 434//25
f 435//39 436//39 439//39
f 439//39 436//39 440//39
f 439//40 440//40 441//40
f 441//40 440//40 442//40
f 441//37 442//37 437//37
f 437//37 442//37 438//37
f 442//36 440//36 438//36
f 438//36 440//36 434//36
f 434//36 440//36 436//36
f 441//35 437//35 439//35
f 439//35 437//35 433//35
f 439//35 433//35 435//35
f 443//25 444//25 445//25
f 445//25 444//25 446//25
f 447//35 448//35 443//35
f 443//35 448//35 444//35
f 449//25 450//25 447//25
f 447//25 450//25 448//25
f 451//35 452//35 449//35
f 449//35 452//35 450//35
f 453//34 454//34 451//34
f 451//34 454//34 452//34
f 445//36 446//36 453//36
f 453//36 446//36 454//36
f 450//37 452//37 448//37
f 448//37 452//37 454//37
f 448//37 454//37 446//37
f 446//37 444//37 448//37
f 449//38 447//38 451//38
f 451//38 447//38 453//38
f 453//38 447//38 445//38
f 445//38 447//38 443//38
