# Blender 5.1.1
# www.blender.org
mtllib electrolux_porta.mtl
o electrolux_porta
v 0.040599 0.004000 0.137964
v 0.040599 0.004000 1.782942
v 0.040599 0.038000 0.137964
v 0.040599 0.038000 1.782942
v 0.055599 0.000000 0.137964
v 0.055599 0.000000 1.782942
v 0.734591 0.000000 0.137964
v 0.734591 0.000000 1.782942
v 0.734591 0.055999 0.137964
v 0.734591 0.055999 1.782942
v 0.726591 0.055999 0.137964
v 0.726591 0.055999 1.782942
v 0.726591 0.063999 0.137964
v 0.726591 0.063999 1.782942
v 0.080599 0.063999 0.137964
v 0.080599 0.063999 1.782942
v 0.080599 0.055999 0.137964
v 0.080599 0.055999 1.782942
v 0.062599 0.055999 0.137964
v 0.062599 0.055999 1.782942
v 0.062599 0.038000 0.137964
v 0.062599 0.038000 1.782942
vn -1.0000 -0.0000 -0.0000
vn -0.2577 -0.9662 -0.0000
vn -0.0000 -1.0000 -0.0000
vn 1.0000 -0.0000 -0.0000
vn -0.0000 1.0000 -0.0000
vn -0.0000 -0.0000 1.0000
vn -0.0000 -0.0000 -1.0000
s 0
f 1//1 2//1 3//1
f 3//1 2//1 4//1
f 5//2 6//2 1//2
f 1//2 6//2 2//2
f 7//3 8//3 5//3
f 5//3 8//3 6//3
f 9//4 10//4 7//4
f 7//4 10//4 8//4
f 11//5 12//5 9//5
f 9//5 12//5 10//5
f 13//4 14//4 11//4
f 11//4 14//4 12//4
f 15//5 16//5 13//5
f 13//5 16//5 14//5
f 17//1 18//1 15//1
f 15//1 18//1 16//1
f 19//5 20//5 17//5
f 17//5 20//5 18//5
f 21//1 22//1 19//1
f 19//1 22//1 20//1
f 3//5 4//5 21//5
f 21//5 4//5 22//5
f 4//6 2//6 22//6
f 22//6 2//6 8//6
f 22//6 8//6 12//6
f 12//6 8//6 10//6
f 2//6 6//6 8//6
f 14//6 16//6 12//6
f 12//6 16//6 18//6
f 12//6 18//6 22//6
f 22//6 18//6 20//6
f 3//7 21//7 1//7
f 1//7 21//7 7//7
f 1//7 7//7 5//7
f 19//7 17//7 21//7
f 21//7 17//7 11//7
f 21//7 11//7 7//7
f 7//7 11//7 9//7
f 15//7 13//7 17//7
f 17//7 13//7 11//7
