# Blender 5.1.1
# www.blender.org
mtllib studio_54_corpo1.mtl
o studio_54_corpo1
v 0.824685 0.079999 1.702944
v 0.824685 0.079999 1.663336
v 0.824685 0.074999 1.702944
v 0.824685 0.074999 1.663336
v 0.833350 0.079999 1.702944
v 0.833350 0.074999 1.702944
v 0.833350 0.079999 1.663336
v 0.833350 0.074999 1.663336
v 0.850126 0.079999 2.104519
v 0.000000 0.079999 2.104519
v 0.850126 0.000000 2.104519
v 0.000000 0.000000 2.104519
v 0.000000 0.079999 1.811077
v 0.850126 0.079999 1.811077
v 0.000000 0.000000 1.811077
v 0.850126 0.000000 1.811077
v 0.785203 0.079999 1.715705
v 0.782024 0.079999 0.841657
v 0.833350 0.079999 0.327962
v 0.840967 0.079999 1.801454
v 0.840967 0.079999 0.152394
v 0.833350 0.079999 0.288354
v 0.824685 0.079999 0.288354
v 0.167020 0.079999 1.715705
v 0.850126 0.079999 1.801454
v 0.000000 0.079999 1.801454
v 0.004548 0.079999 1.801454
v 0.004548 0.079999 0.152394
v 0.056725 0.079999 0.841657
v 0.056725 0.079999 1.206119
v 0.056725 0.079999 1.229430
v 0.782487 0.079999 1.229430
v 0.782487 0.079999 1.206119
v 0.043486 0.079999 0.152394
v 0.056725 0.079999 0.264095
v 0.056725 0.079999 0.428218
v 0.056725 0.079999 0.458668
v 0.780520 0.079999 0.428218
v 0.780631 0.079999 0.458668
v 0.781933 0.079999 0.816790
v 0.110689 0.079999 0.152394
v 0.043486 0.079999 0.000000
v 0.110689 0.079999 0.000000
v 0.664440 0.079999 0.152394
v 0.779923 0.079999 0.264095
v 0.728955 0.079999 0.152394
v 0.664440 0.079999 0.000000
v 0.728955 0.079999 0.000000
v 0.056725 0.079999 1.715705
v 0.750175 0.079999 1.715705
v 0.167020 0.079999 1.679601
v 0.750175 0.079999 1.679601
v 0.824685 0.079999 0.327962
v 0.056725 0.079999 0.816790
v 0.368567 0.079999 2.113264
v 0.028118 0.079999 2.113264
v 0.000000 0.079999 2.113264
v 0.850126 0.079999 2.111411
v 0.347982 0.079999 2.138600
v 0.051871 0.079999 2.138600
v 0.056725 0.836989 0.458668
v 0.780631 0.836989 0.458668
v 0.056725 0.836989 0.816790
v 0.781933 0.836989 0.816790
v 0.056725 0.836989 0.264095
v 0.779923 0.836989 0.264095
v 0.056725 0.836989 0.428218
v 0.780520 0.836989 0.428218
v 0.056725 0.836989 0.841657
v 0.782024 0.836989 0.841657
v 0.056725 0.836989 1.206119
v 0.782487 0.836989 1.206119
v 0.785203 0.836989 1.715705
v 0.782487 0.836989 1.229430
v 0.750175 0.836989 1.679601
v 0.167020 0.836989 1.679601
v 0.750175 0.836989 1.715705
v 0.167020 0.836989 1.715705
v 0.056725 0.836989 1.715705
v 0.056725 0.836989 1.229430
v 0.788781 0.836989 1.724507
v 0.788781 0.836989 0.246532
v 0.788781 0.837989 1.724507
v 0.788781 0.837989 0.246532
v 0.052835 0.836989 1.724507
v 0.052835 0.837989 1.724507
v 0.052835 0.836989 0.246532
v 0.052835 0.837989 0.246532
v 0.110689 0.836989 0.000000
v 0.110689 0.836989 0.152394
v 0.043486 0.836989 0.000000
v 0.043486 0.836989 0.152394
v 0.004548 0.836989 0.152394
v 0.004548 0.836989 1.801454
v 0.000000 0.836989 1.801454
v 0.000000 0.836989 2.113264
v 0.028118 0.836989 2.113264
v 0.051871 0.836989 2.138600
v 0.347982 0.836989 2.138600
v 0.368567 0.836989 2.113264
v 0.850126 0.836989 2.111411
v 0.850126 0.836989 1.801454
v 0.840967 0.836989 1.801454
v 0.840967 0.836989 0.152394
v 0.728955 0.836989 0.152394
v 0.728955 0.836989 0.000000
v 0.664440 0.836989 0.000000
v 0.664440 0.836989 0.152394
v 0.824685 0.074999 0.327962
v 0.824685 0.074999 0.288354
v 0.833350 0.074999 0.327962
v 0.833350 0.074999 0.288354
vn -1.0000 -0.0000 -0.0000
vn -0.0000 -0.0000 1.0000
vn 1.0000 -0.0000 -0.0000
vn -0.0000 -0.0000 -1.0000
vn -0.0000 -1.0000 -0.0000
vn -0.0000 1.0000 -0.0000
vn -1.0000 -0.0000 0.0036
vn -0.7295 -0.0000 0.6839
vn 0.7761 -0.0000 0.6306
vn 0.0038 -0.0000 1.0000
s 0
f 1//1 2//1 3//1
f 3//1 2//1 4//1
f 5//2 1//2 6//2
f 6//2 1//2 3//2
f 7//3 5//3 8//3
f 8//3 5//3 6//3
f 2//4 7//4 4//4
f 4//4 7//4 8//4
f 8//5 6//5 4//5
f 4//5 6//5 3//5
f 9//2 10//2 11//2
f 11//2 10//2 12//2
f 13//4 14//4 15//4
f 15//4 14//4 16//4
f 16//5 11//5 15//5
f 15//5 11//5 12//5
f 1//5 17//5 2//5
f 2//5 17//5 18//5
f 2//5 18//5 7//5
f 7//5 18//5 19//5
f 7//5 19//5 20//5
f 20//5 19//5 21//5
f 21//5 19//5 22//5
f 21//5 22//5 23//5
f 17//5 1//5 20//5
f 20//5 1//5 5//5
f 20//5 5//5 7//5
f 13//5 24//5 14//5
f 14//5 24//5 20//5
f 14//5 20//5 25//5
f 26//5 27//5 13//5
f 13//5 27//5 24//5
f 28//5 29//5 27//5
f 27//5 29//5 30//5
f 27//5 30//5 31//5
f 31//5 30//5 32//5
f 32//5 30//5 33//5
f 34//5 35//5 28//5
f 28//5 35//5 36//5
f 28//5 36//5 37//5
f 37//5 36//5 38//5
f 37//5 38//5 39//5
f 39//5 38//5 19//5
f 39//5 19//5 40//5
f 40//5 19//5 18//5
f 40//5 18//5 29//5
f 35//5 34//5 41//5
f 41//5 34//5 42//5
f 41//5 42//5 43//5
f 41//5 44//5 35//5
f 35//5 44//5 45//5
f 45//5 44//5 46//5
f 45//5 46//5 21//5
f 44//5 47//5 46//5
f 46//5 47//5 48//5
f 31//5 49//5 27//5
f 27//5 49//5 24//5
f 20//5 24//5 50//5
f 50//5 24//5 51//5
f 50//5 51//5 52//5
f 50//5 17//5 20//5
f 19//5 38//5 53//5
f 53//5 38//5 45//5
f 53//5 45//5 23//5
f 23//5 45//5 21//5
f 40//5 29//5 54//5
f 54//5 29//5 28//5
f 54//5 28//5 37//5
f 9//5 55//5 10//5
f 10//5 55//5 56//5
f 10//5 56//5 57//5
f 9//5 58//5 55//5
f 59//5 60//5 55//5
f 55//5 60//5 56//5
f 61//5 62//5 63//5
f 63//5 62//5 64//5
f 65//5 66//5 67//5
f 67//5 66//5 68//5
f 69//5 70//5 71//5
f 71//5 70//5 72//5
f 72//5 70//5 73//5
f 72//5 73//5 74//5
f 74//5 73//5 75//5
f 74//5 75//5 76//5
f 73//5 77//5 75//5
f 78//5 79//5 76//5
f 76//5 79//5 80//5
f 76//5 80//5 74//5
f 81//3 82//3 83//3
f 83//3 82//3 84//3
f 85//2 81//2 86//2
f 86//2 81//2 83//2
f 87//1 85//1 88//1
f 88//1 85//1 86//1
f 82//4 87//4 84//4
f 84//4 87//4 88//4
f 88//6 86//6 84//6
f 84//6 86//6 83//6
f 70//2 69//2 18//2
f 18//2 69//2 29//2
f 73//7 70//7 17//7
f 17//7 70//7 18//7
f 77//4 73//4 50//4
f 50//4 73//4 17//4
f 75//3 77//3 52//3
f 52//3 77//3 50//3
f 76//4 75//4 51//4
f 51//4 75//4 52//4
f 78//1 76//1 24//1
f 24//1 76//1 51//1
f 79//4 78//4 49//4
f 49//4 78//4 24//4
f 80//3 79//3 31//3
f 31//3 79//3 49//3
f 74//2 80//2 32//2
f 32//2 80//2 31//2
f 72//3 74//3 33//3
f 33//3 74//3 32//3
f 71//4 72//4 30//4
f 30//4 72//4 33//4
f 69//3 71//3 29//3
f 29//3 71//3 30//3
f 66//2 65//2 45//2
f 45//2 65//2 35//2
f 68//7 66//7 38//7
f 38//7 66//7 45//7
f 67//4 68//4 36//4
f 36//4 68//4 38//4
f 65//3 67//3 35//3
f 35//3 67//3 36//3
f 61//3 63//3 37//3
f 37//3 63//3 54//3
f 62//2 61//2 39//2
f 39//2 61//2 37//2
f 64//7 62//7 40//7
f 40//7 62//7 39//7
f 63//4 64//4 54//4
f 54//4 64//4 40//4
f 89//3 90//3 43//3
f 43//3 90//3 41//3
f 91//4 89//4 42//4
f 42//4 89//4 43//4
f 92//1 91//1 34//1
f 34//1 91//1 42//1
f 93//4 92//4 28//4
f 28//4 92//4 34//4
f 94//1 93//1 27//1
f 27//1 93//1 28//1
f 95//4 94//4 26//4
f 26//4 94//4 27//4
f 95//1 13//1 96//1
f 96//1 13//1 10//1
f 96//1 10//1 57//1
f 95//1 26//1 13//1
f 15//1 12//1 13//1
f 13//1 12//1 10//1
f 97//2 96//2 56//2
f 56//2 96//2 57//2
f 98//8 97//8 60//8
f 60//8 97//8 56//8
f 99//2 98//2 59//2
f 59//2 98//2 60//2
f 100//9 99//9 55//9
f 55//9 99//9 59//9
f 101//10 100//10 58//10
f 58//10 100//10 55//10
f 25//3 102//3 14//3
f 14//3 102//3 101//3
f 14//3 101//3 9//3
f 9//3 101//3 58//3
f 11//3 16//3 9//3
f 9//3 16//3 14//3
f 103//4 102//4 20//4
f 20//4 102//4 25//4
f 104//3 103//3 21//3
f 21//3 103//3 20//3
f 105//4 104//4 46//4
f 46//4 104//4 21//4
f 106//3 105//3 48//3
f 48//3 105//3 46//3
f 107//4 106//4 47//4
f 47//4 106//4 48//4
f 108//1 107//1 44//1
f 44//1 107//1 47//1
f 90//4 108//4 41//4
f 41//4 108//4 44//4
f 81//6 103//6 82//6
f 82//6 103//6 104//6
f 82//6 104//6 105//6
f 85//6 100//6 81//6
f 81//6 100//6 101//6
f 81//6 101//6 103//6
f 103//6 101//6 102//6
f 87//6 94//6 85//6
f 85//6 94//6 97//6
f 85//6 97//6 98//6
f 82//6 108//6 87//6
f 87//6 108//6 90//6
f 87//6 90//6 92//6
f 92//6 90//6 91//6
f 91//6 90//6 89//6
f 92//6 93//6 87//6
f 87//6 93//6 94//6
f 95//6 96//6 94//6
f 94//6 96//6 97//6
f 98//6 99//6 85//6
f 85//6 99//6 100//6
f 106//6 107//6 105//6
f 105//6 107//6 108//6
f 105//6 108//6 82//6
f 53//1 23//1 109//1
f 109//1 23//1 110//1
f 19//2 53//2 111//2
f 111//2 53//2 109//2
f 22//3 19//3 112//3
f 112//3 19//3 111//3
f 23//4 22//4 110//4
f 110//4 22//4 112//4
f 112//5 111//5 110//5
f 110//5 111//5 109//5
