# Blender 5.1.1
# www.blender.org
mtllib astana_P_corpo.mtl
o astana_P_corpo
v 1.579979 0.064035 1.914482
v 1.589979 0.064035 1.914482
v 1.579979 0.064035 1.899482
v 1.589979 0.064035 1.899482
v 1.589979 0.044035 1.914482
v 1.589979 0.044035 1.899482
v 1.579979 0.044035 1.914482
v 1.579979 0.044035 1.899482
v 1.589979 0.044035 0.319503
v 1.589979 0.064035 0.319503
v 1.589979 0.044035 0.349502
v 1.589979 0.064035 0.349502
v 1.579979 0.044035 0.319503
v 1.579979 0.044035 0.349502
v 1.579979 0.064035 0.319503
v 1.579979 0.064035 0.349502
v 0.789990 0.044035 0.319503
v 0.789990 0.064035 0.319503
v 0.789990 0.044035 0.349502
v 0.789990 0.064035 0.349502
v 0.779990 0.044035 0.319503
v 0.779990 0.044035 0.349502
v 0.779990 0.064035 0.319503
v 0.779990 0.064035 0.349502
v 0.779990 0.064035 1.914482
v 0.789990 0.064035 1.914482
v 0.779990 0.064035 1.899482
v 0.789990 0.064035 1.899482
v 0.789990 0.044035 1.914482
v 0.789990 0.044035 1.899482
v 0.779990 0.044035 1.914482
v 0.779990 0.044035 1.899482
v 1.599979 0.000000 0.297195
v 1.599979 0.022307 0.297195
v 0.000000 0.000000 0.297195
v 0.000000 0.022307 0.297195
v 1.599979 0.000000 0.141043
v 0.000000 0.000000 0.141043
v 1.599979 0.144998 0.141043
v 0.000000 0.144998 0.141043
v 1.599979 0.144998 0.018353
v 0.000000 0.144998 0.018353
v 1.599979 0.167306 0.018353
v 0.000000 0.167306 0.018353
v 1.599979 0.167306 0.000000
v 0.000000 0.167306 0.000000
v 1.599979 0.178459 0.000000
v 0.000000 0.178459 0.000000
v 1.599979 0.178459 0.018353
v 0.000000 0.178459 0.018353
v 1.599979 0.200767 0.018353
v 0.000000 0.200767 0.018353
v 1.599979 0.200767 0.107582
v 0.000000 0.200767 0.107582
v 1.599979 0.858835 0.107582
v 0.000000 0.858835 0.107582
v 1.599979 0.858835 0.018353
v 0.000000 0.858835 0.018353
v 1.599979 0.897873 0.018353
v 0.000000 0.897873 0.018353
v 1.599979 0.897873 0.107582
v 0.000000 0.897873 0.107582
v 1.599979 0.903450 0.107582
v 0.000000 0.903450 0.107582
v 1.599979 0.903450 1.981404
v 0.000000 0.903450 1.981404
v 1.599979 0.078076 1.981404
v 0.000000 0.078076 1.981404
v 1.599979 0.078076 2.015301
v 0.000000 0.078076 2.015301
v 1.599979 0.014362 2.015301
v 0.000000 0.014362 2.015301
v 1.599979 0.014362 1.914482
v 0.000000 0.014362 1.914482
v 1.599979 0.089230 1.914482
v 0.000000 0.089230 1.914482
v 1.599979 0.095312 1.890955
v 0.000000 0.095312 1.890955
v 1.599979 0.144998 1.890955
v 0.000000 0.144998 1.890955
v 1.599979 0.178459 1.858714
v 0.000000 0.178459 1.858714
v 1.599979 0.216918 1.848949
v 0.000000 0.216918 1.848949
v 1.599979 0.197688 1.862209
v 0.000000 0.197688 1.862209
v 1.599979 0.223074 1.881021
v 0.000000 0.223074 1.881021
v 1.599979 0.245237 1.865737
v 0.000000 0.245237 1.865737
v 1.599979 0.780759 1.865737
v 0.000000 0.780759 1.865737
v 1.599979 0.780759 1.724869
v 0.000000 0.780759 1.724869
v 1.599979 0.200767 1.724869
v 0.000000 0.200767 1.724869
v 1.599979 0.200767 1.713715
v 0.000000 0.200767 1.713715
v 1.599979 0.234228 1.713715
v 0.000000 0.234228 1.713715
v 1.599979 0.234228 1.691408
v 0.000000 0.234228 1.691408
v 1.599979 0.301150 1.680254
v 0.000000 0.301150 1.680254
v 1.599979 0.646915 1.680254
v 0.000000 0.646915 1.680254
v 1.599979 0.763228 1.561317
v 0.000000 0.763228 1.561317
v 1.599979 0.780759 1.561317
v 0.000000 0.780759 1.561317
v 1.599979 0.780759 1.373073
v 0.000000 0.780759 1.373073
v 1.599979 0.200767 1.373073
v 0.000000 0.200767 1.373073
v 1.599979 0.200767 1.362374
v 0.000000 0.200767 1.362374
v 1.599979 0.233063 1.362374
v 0.000000 0.233063 1.362374
v 1.599979 0.233063 1.345643
v 0.000000 0.233063 1.345643
v 1.599979 0.284961 1.329741
v 0.000000 0.284961 1.329741
v 1.599979 0.658068 1.329741
v 0.000000 0.658068 1.329741
v 1.599979 0.758452 1.211799
v 0.000000 0.758452 1.211799
v 1.599979 0.780759 1.211799
v 0.000000 0.780759 1.211799
v 1.599979 0.780759 1.022186
v 0.000000 0.780759 1.022186
v 1.599979 0.200767 1.022186
v 0.000000 0.200767 1.022186
v 1.599979 0.200767 1.011032
v 0.000000 0.200767 1.011032
v 1.599979 0.234228 1.011032
v 0.000000 0.234228 1.011032
v 1.599979 0.234228 0.999878
v 0.000000 0.234228 0.999878
v 1.599979 0.289996 0.977571
v 0.000000 0.289996 0.977571
v 1.599979 0.646915 0.977571
v 0.000000 0.646915 0.977571
v 1.599979 0.758452 0.854880
v 0.000000 0.758452 0.854880
v 1.599979 0.780759 0.854880
v 0.000000 0.780759 0.854880
v 1.599979 0.780759 0.676421
v 0.000000 0.780759 0.676421
v 1.599979 0.200767 0.676421
v 0.000000 0.200767 0.676421
v 1.599979 0.200767 0.654114
v 0.000000 0.200767 0.654114
v 1.599979 0.234228 0.654114
v 0.000000 0.234228 0.654114
v 1.599979 0.234228 0.642960
v 0.000000 0.234228 0.642960
v 1.599979 0.301150 0.620653
v 0.000000 0.301150 0.620653
v 1.599979 0.658068 0.620653
v 0.000000 0.658068 0.620653
v 1.599979 0.758452 0.509116
v 0.000000 0.758452 0.509116
v 1.599979 0.780759 0.509116
v 0.000000 0.780759 0.509116
v 1.599979 0.780759 0.392002
v 0.000000 0.780759 0.392002
v 1.599979 0.246541 0.392002
v 0.000000 0.246541 0.392002
v 1.599979 0.234228 0.419886
v 0.000000 0.234228 0.419886
v 1.599979 0.200767 0.419886
v 0.000000 0.200767 0.419886
v 1.599979 0.156152 0.364117
v 0.000000 0.156152 0.364117
v 1.599979 0.089230 0.364117
v 0.000000 0.089230 0.364117
v 1.599979 0.089230 0.319503
v 0.000000 0.089230 0.319503
v 1.599979 0.022307 0.319503
v 0.000000 0.022307 0.319503
vn -0.0000 1.0000 -0.0000
vn 1.0000 -0.0000 -0.0000
vn -0.0000 -1.0000 -0.0000
vn -1.0000 -0.0000 -0.0000
vn -0.0000 -0.0000 -1.0000
vn -0.0000 -0.0000 1.0000
vn -0.0000 -0.9682 -0.2503
vn -0.0000 -0.6939 -0.7201
vn -0.0000 -0.2461 -0.9692
vn -0.0000 0.5677 0.8232
vn -0.0000 0.5954 -0.8034
vn -0.0000 -0.5677 -0.8232
vn -0.0000 -0.1644 -0.9864
vn -0.0000 -0.7149 -0.6992
vn -0.0000 -0.2930 -0.9561
vn -0.0000 -0.7615 -0.6481
vn -0.0000 -0.3714 -0.9285
vn -0.0000 -0.7399 -0.6727
vn -0.0000 -0.3162 -0.9487
vn -0.0000 -0.7433 -0.6690
vn -0.0000 0.9148 0.4040
vn -0.0000 -0.7809 0.6247
s 0
f 1//1 2//1 3//1
f 3//1 2//1 4//1
f 2//2 5//2 4//2
f 4//2 5//2 6//2
f 5//3 7//3 6//3
f 6//3 7//3 8//3
f 7//4 1//4 8//4
f 8//4 1//4 3//4
f 4//5 6//5 3//5
f 3//5 6//5 8//5
f 9//2 10//2 11//2
f 11//2 10//2 12//2
f 13//3 9//3 14//3
f 14//3 9//3 11//3
f 15//4 13//4 16//4
f 16//4 13//4 14//4
f 10//1 15//1 12//1
f 12//1 15//1 16//1
f 16//6 14//6 12//6
f 12//6 14//6 11//6
f 17//2 18//2 19//2
f 19//2 18//2 20//2
f 21//3 17//3 22//3
f 22//3 17//3 19//3
f 23//4 21//4 24//4
f 24//4 21//4 22//4
f 18//1 23//1 20//1
f 20//1 23//1 24//1
f 24//6 22//6 20//6
f 20//6 22//6 19//6
f 25//1 26//1 27//1
f 27//1 26//1 28//1
f 26//2 29//2 28//2
f 28//2 29//2 30//2
f 29//3 31//3 30//3
f 30//3 31//3 32//3
f 31//4 25//4 32//4
f 32//4 25//4 27//4
f 28//5 30//5 27//5
f 27//5 30//5 32//5
f 33//6 34//6 35//6
f 35//6 34//6 36//6
f 37//3 33//3 38//3
f 38//3 33//3 35//3
f 39//5 37//5 40//5
f 40//5 37//5 38//5
f 41//3 39//3 42//3
f 42//3 39//3 40//3
f 43//5 41//5 44//5
f 44//5 41//5 42//5
f 45//3 43//3 46//3
f 46//3 43//3 44//3
f 47//5 45//5 48//5
f 48//5 45//5 46//5
f 49//1 47//1 50//1
f 50//1 47//1 48//1
f 51//5 49//5 52//5
f 52//5 49//5 50//5
f 53//1 51//1 54//1
f 54//1 51//1 52//1
f 55//5 53//5 56//5
f 56//5 53//5 54//5
f 57//3 55//3 58//3
f 58//3 55//3 56//3
f 59//5 57//5 60//5
f 60//5 57//5 58//5
f 61//1 59//1 62//1
f 62//1 59//1 60//1
f 63//5 61//5 64//5
f 64//5 61//5 62//5
f 65//1 63//1 66//1
f 66//1 63//1 64//1
f 67//6 65//6 68//6
f 68//6 65//6 66//6
f 69//1 67//1 70//1
f 70//1 67//1 68//1
f 71//6 69//6 72//6
f 72//6 69//6 70//6
f 73//3 71//3 74//3
f 74//3 71//3 72//3
f 2//5 75//5 5//5
f 5//5 75//5 73//5
f 5//5 73//5 7//5
f 7//5 73//5 29//5
f 7//5 29//5 26//5
f 2//5 1//5 75//5
f 75//5 1//5 26//5
f 75//5 26//5 76//5
f 76//5 26//5 25//5
f 76//5 25//5 31//5
f 1//5 7//5 26//5
f 76//5 31//5 74//5
f 74//5 31//5 29//5
f 74//5 29//5 73//5
f 77//7 75//7 78//7
f 78//7 75//7 76//7
f 79//5 77//5 80//5
f 80//5 77//5 78//5
f 81//8 79//8 82//8
f 82//8 79//8 80//8
f 83//9 81//9 84//9
f 84//9 81//9 82//9
f 85//10 83//10 86//10
f 86//10 83//10 84//10
f 87//11 85//11 88//11
f 88//11 85//11 86//11
f 89//12 87//12 90//12
f 90//12 87//12 88//12
f 91//5 89//5 92//5
f 92//5 89//5 90//5
f 93//3 91//3 94//3
f 94//3 91//3 92//3
f 95//6 93//6 96//6
f 96//6 93//6 94//6
f 97//3 95//3 98//3
f 98//3 95//3 96//3
f 99//5 97//5 100//5
f 100//5 97//5 98//5
f 101//3 99//3 102//3
f 102//3 99//3 100//3
f 103//13 101//13 104//13
f 104//13 101//13 102//13
f 105//5 103//5 106//5
f 106//5 103//5 104//5
f 107//14 105//14 108//14
f 108//14 105//14 106//14
f 109//5 107//5 110//5
f 110//5 107//5 108//5
f 111//3 109//3 112//3
f 112//3 109//3 110//3
f 113//6 111//6 114//6
f 114//6 111//6 112//6
f 115//3 113//3 116//3
f 116//3 113//3 114//3
f 117//5 115//5 118//5
f 118//5 115//5 116//5
f 119//3 117//3 120//3
f 120//3 117//3 118//3
f 121//15 119//15 122//15
f 122//15 119//15 120//15
f 123//5 121//5 124//5
f 124//5 121//5 122//5
f 125//16 123//16 126//16
f 126//16 123//16 124//16
f 127//5 125//5 128//5
f 128//5 125//5 126//5
f 129//3 127//3 130//3
f 130//3 127//3 128//3
f 131//6 129//6 132//6
f 132//6 129//6 130//6
f 133//3 131//3 134//3
f 134//3 131//3 132//3
f 135//5 133//5 136//5
f 136//5 133//5 134//5
f 137//3 135//3 138//3
f 138//3 135//3 136//3
f 139//17 137//17 140//17
f 140//17 137//17 138//17
f 141//5 139//5 142//5
f 142//5 139//5 140//5
f 143//18 141//18 144//18
f 144//18 141//18 142//18
f 145//5 143//5 146//5
f 146//5 143//5 144//5
f 147//3 145//3 148//3
f 148//3 145//3 146//3
f 149//6 147//6 150//6
f 150//6 147//6 148//6
f 151//3 149//3 152//3
f 152//3 149//3 150//3
f 153//5 151//5 154//5
f 154//5 151//5 152//5
f 155//3 153//3 156//3
f 156//3 153//3 154//3
f 157//19 155//19 158//19
f 158//19 155//19 156//19
f 159//5 157//5 160//5
f 160//5 157//5 158//5
f 161//20 159//20 162//20
f 162//20 159//20 160//20
f 163//5 161//5 164//5
f 164//5 161//5 162//5
f 165//3 163//3 166//3
f 166//3 163//3 164//3
f 167//6 165//6 168//6
f 168//6 165//6 166//6
f 169//21 167//21 170//21
f 170//21 167//21 168//21
f 171//6 169//6 172//6
f 172//6 169//6 170//6
f 173//22 171//22 174//22
f 174//22 171//22 172//22
f 175//6 173//6 176//6
f 176//6 173//6 174//6
f 177//3 175//3 178//3
f 178//3 175//3 176//3
f 9//6 179//6 10//6
f 10//6 179//6 177//6
f 10//6 177//6 15//6
f 15//6 177//6 18//6
f 15//6 18//6 17//6
f 9//6 13//6 179//6
f 179//6 13//6 17//6
f 179//6 17//6 180//6
f 180//6 17//6 21//6
f 180//6 21//6 23//6
f 13//6 15//6 17//6
f 180//6 23//6 178//6
f 178//6 23//6 18//6
f 178//6 18//6 177//6
f 34//3 179//3 36//3
f 36//3 179//3 180//3
f 180//4 178//4 36//4
f 36//4 178//4 38//4
f 36//4 38//4 35//4
f 176//4 174//4 178//4
f 178//4 174//4 40//4
f 178//4 40//4 38//4
f 40//4 174//4 54//4
f 54//4 174//4 172//4
f 54//4 172//4 168//4
f 168//4 172//4 170//4
f 168//4 166//4 54//4
f 54//4 166//4 56//4
f 56//4 166//4 62//4
f 56//4 62//4 60//4
f 62//4 166//4 64//4
f 64//4 166//4 164//4
f 64//4 164//4 148//4
f 148//4 164//4 162//4
f 148//4 162//4 160//4
f 148//4 160//4 150//4
f 150//4 160//4 158//4
f 150//4 158//4 154//4
f 154//4 158//4 156//4
f 154//4 152//4 150//4
f 148//4 146//4 64//4
f 64//4 146//4 130//4
f 64//4 130//4 66//4
f 66//4 130//4 128//4
f 66//4 128//4 112//4
f 112//4 128//4 126//4
f 112//4 126//4 124//4
f 146//4 144//4 130//4
f 130//4 144//4 142//4
f 130//4 142//4 136//4
f 136//4 142//4 140//4
f 136//4 140//4 138//4
f 134//4 132//4 136//4
f 136//4 132//4 130//4
f 112//4 124//4 118//4
f 118//4 124//4 122//4
f 118//4 122//4 120//4
f 116//4 114//4 118//4
f 118//4 114//4 112//4
f 112//4 110//4 66//4
f 66//4 110//4 94//4
f 66//4 94//4 92//4
f 110//4 108//4 94//4
f 94//4 108//4 106//4
f 94//4 106//4 100//4
f 100//4 106//4 104//4
f 100//4 104//4 102//4
f 98//4 96//4 100//4
f 100//4 96//4 94//4
f 92//4 90//4 66//4
f 66//4 90//4 88//4
f 66//4 88//4 68//4
f 68//4 88//4 80//4
f 68//4 80//4 76//4
f 76//4 80//4 78//4
f 88//4 86//4 80//4
f 80//4 86//4 82//4
f 82//4 86//4 84//4
f 76//4 74//4 68//4
f 68//4 74//4 72//4
f 68//4 72//4 70//4
f 60//4 58//4 56//4
f 52//4 50//4 54//4
f 54//4 50//4 44//4
f 54//4 44//4 40//4
f 40//4 44//4 42//4
f 50//4 48//4 44//4
f 44//4 48//4 46//4
f 179//2 34//2 177//2
f 177//2 34//2 37//2
f 177//2 37//2 39//2
f 34//2 33//2 37//2
f 41//2 43//2 39//2
f 39//2 43//2 53//2
f 39//2 53//2 173//2
f 173//2 53//2 171//2
f 171//2 53//2 167//2
f 171//2 167//2 169//2
f 45//2 47//2 43//2
f 43//2 47//2 49//2
f 43//2 49//2 53//2
f 53//2 49//2 51//2
f 167//2 53//2 165//2
f 165//2 53//2 55//2
f 165//2 55//2 61//2
f 61//2 55//2 59//2
f 59//2 55//2 57//2
f 61//2 63//2 165//2
f 165//2 63//2 163//2
f 163//2 63//2 147//2
f 163//2 147//2 161//2
f 161//2 147//2 159//2
f 159//2 147//2 149//2
f 159//2 149//2 157//2
f 157//2 149//2 153//2
f 157//2 153//2 155//2
f 65//2 129//2 63//2
f 63//2 129//2 145//2
f 63//2 145//2 147//2
f 67//2 87//2 65//2
f 65//2 87//2 89//2
f 65//2 89//2 91//2
f 69//2 71//2 67//2
f 67//2 71//2 73//2
f 67//2 73//2 75//2
f 77//2 79//2 75//2
f 75//2 79//2 67//2
f 81//2 85//2 79//2
f 79//2 85//2 87//2
f 79//2 87//2 67//2
f 81//2 83//2 85//2
f 91//2 93//2 65//2
f 65//2 93//2 109//2
f 65//2 109//2 111//2
f 95//2 99//2 93//2
f 93//2 99//2 105//2
f 93//2 105//2 107//2
f 95//2 97//2 99//2
f 101//2 103//2 99//2
f 99//2 103//2 105//2
f 107//2 109//2 93//2
f 113//2 117//2 111//2
f 111//2 117//2 123//2
f 111//2 123//2 125//2
f 113//2 115//2 117//2
f 119//2 121//2 117//2
f 117//2 121//2 123//2
f 125//2 127//2 111//2
f 111//2 127//2 65//2
f 127//2 129//2 65//2
f 131//2 135//2 129//2
f 129//2 135//2 141//2
f 129//2 141//2 143//2
f 131//2 133//2 135//2
f 137//2 139//2 135//2
f 135//2 139//2 141//2
f 143//2 145//2 129//2
f 149//2 151//2 153//2
f 175//2 177//2 173//2
f 173//2 177//2 39//2
